%TF.GenerationSoftware,KiCad,Pcbnew,7.0.6*%
%TF.CreationDate,2023-07-24T08:09:00-07:00*%
%TF.ProjectId,minidrone,6d696e69-6472-46f6-9e65-2e6b69636164,rev?*%
%TF.SameCoordinates,Original*%
%TF.FileFunction,Copper,L2,Inr*%
%TF.FilePolarity,Positive*%
%FSLAX46Y46*%
G04 Gerber Fmt 4.6, Leading zero omitted, Abs format (unit mm)*
G04 Created by KiCad (PCBNEW 7.0.6) date 2023-07-24 08:09:00*
%MOMM*%
%LPD*%
G01*
G04 APERTURE LIST*
%TA.AperFunction,ComponentPad*%
%ADD10C,3.500000*%
%TD*%
%TA.AperFunction,ComponentPad*%
%ADD11R,1.700000X1.700000*%
%TD*%
%TA.AperFunction,ComponentPad*%
%ADD12O,1.700000X1.700000*%
%TD*%
%TA.AperFunction,ComponentPad*%
%ADD13O,2.100000X1.100000*%
%TD*%
%TA.AperFunction,ComponentPad*%
%ADD14C,0.700000*%
%TD*%
%TA.AperFunction,ComponentPad*%
%ADD15R,1.350000X1.350000*%
%TD*%
%TA.AperFunction,ComponentPad*%
%ADD16O,1.350000X1.350000*%
%TD*%
%TA.AperFunction,ViaPad*%
%ADD17C,0.457200*%
%TD*%
%TA.AperFunction,Conductor*%
%ADD18C,0.406400*%
%TD*%
%TA.AperFunction,Conductor*%
%ADD19C,0.127000*%
%TD*%
%TA.AperFunction,Conductor*%
%ADD20C,0.254000*%
%TD*%
G04 APERTURE END LIST*
D10*
%TO.N,N/C*%
%TO.C,REF\u002A\u002A*%
X150685800Y-78412600D03*
%TD*%
D11*
%TO.N,/UART0_TX*%
%TO.C,J7*%
X158874500Y-71506200D03*
D12*
%TO.N,/UART0_RX*%
X158874500Y-68966200D03*
%TD*%
D13*
%TO.N,GNDA*%
%TO.C,J5*%
X136685400Y-71760800D03*
X139685400Y-71760800D03*
X136685400Y-62560800D03*
X139685400Y-62560800D03*
D14*
X139485400Y-64185800D03*
%TO.N,VBUS*%
X139485400Y-65035800D03*
%TO.N,unconnected-(J5-SBU2-PadB8)*%
X139485400Y-65885800D03*
%TO.N,Net-(J5-D--PadA7)*%
X139485400Y-66735800D03*
%TO.N,Net-(J5-D+-PadA6)*%
X139485400Y-67585800D03*
%TO.N,Net-(J5-CC2)*%
X139485400Y-68435800D03*
%TO.N,VBUS*%
X139485400Y-69285800D03*
%TO.N,GNDA*%
X139485400Y-70135800D03*
X140835400Y-70135800D03*
%TO.N,VBUS*%
X140835400Y-69285800D03*
%TO.N,unconnected-(J5-SBU1-PadA8)*%
X140835400Y-68435800D03*
%TO.N,Net-(J5-D--PadA7)*%
X140835400Y-67585800D03*
%TO.N,Net-(J5-D+-PadA6)*%
X140835400Y-66735800D03*
%TO.N,Net-(J5-CC1)*%
X140835400Y-65885800D03*
%TO.N,VBUS*%
X140835400Y-65035800D03*
%TO.N,GNDA*%
X140835400Y-64185800D03*
%TD*%
D15*
%TO.N,Net-(J4-Pin_1)*%
%TO.C,J4*%
X134150400Y-54340800D03*
D16*
%TO.N,Net-(J4-Pin_2)*%
X136150400Y-54340800D03*
%TO.N,Net-(J4-Pin_3)*%
X138150400Y-54340800D03*
%TD*%
%TO.N,Net-(J3-Pin_3)*%
%TO.C,J3*%
X134150400Y-75980800D03*
%TO.N,Net-(J3-Pin_2)*%
X134150400Y-77980800D03*
D15*
%TO.N,Net-(J3-Pin_1)*%
X134150400Y-79980800D03*
%TD*%
%TO.N,Net-(J2-Pin_1)*%
%TO.C,J2*%
X159790400Y-79980800D03*
D16*
%TO.N,Net-(J2-Pin_2)*%
X157790400Y-79980800D03*
%TO.N,Net-(J2-Pin_3)*%
X155790400Y-79980800D03*
%TD*%
%TO.N,Net-(J1-Pin_3)*%
%TO.C,J1*%
X159790400Y-58340800D03*
%TO.N,Net-(J1-Pin_2)*%
X159790400Y-56340800D03*
D15*
%TO.N,Net-(J1-Pin_1)*%
X159790400Y-54340800D03*
%TD*%
D17*
%TO.N,/FAULT_N*%
X153517600Y-61417200D03*
%TO.N,+BATT*%
X140919200Y-79110306D03*
%TO.N,Earth*%
X144983200Y-80060800D03*
X147320000Y-80162400D03*
%TO.N,Net-(J5-CC1)*%
X138863500Y-65430400D03*
%TO.N,Net-(U2-RUN)*%
X153289497Y-65430400D03*
%TO.N,/Motor Controller 1/AVDD*%
X153451008Y-55471442D03*
%TO.N,GNDA*%
X153873200Y-65430400D03*
%TO.N,+BATT*%
X146227394Y-57927003D03*
X144424400Y-56591200D03*
X144364900Y-54914800D03*
X145796000Y-55079400D03*
%TO.N,/CE_N*%
X150622000Y-58877200D03*
%TO.N,Earth*%
X149561200Y-54460800D03*
X157504400Y-58118800D03*
X158139400Y-58753800D03*
X156012400Y-78329800D03*
X156012400Y-77694800D03*
X156647400Y-77694800D03*
X155377400Y-78329800D03*
X135801400Y-76202800D03*
X137928400Y-55991800D03*
X137293400Y-56626800D03*
X136436400Y-76202800D03*
X138563400Y-55991800D03*
X137928400Y-56626800D03*
X136436400Y-76837800D03*
X135801400Y-75567800D03*
X157504400Y-57483800D03*
X158139400Y-58118800D03*
X145040000Y-56696000D03*
X148443600Y-56645200D03*
X147741300Y-56491200D03*
X146868800Y-56492800D03*
%TO.N,Net-(D3-K)*%
X158455616Y-53751065D03*
%TO.N,Net-(D3-A)*%
X153408000Y-53902000D03*
X147326000Y-53698800D03*
%TO.N,GNDA*%
X158806800Y-64925600D03*
X146665600Y-66500400D03*
X147427600Y-68684800D03*
X147681600Y-66602000D03*
X145598800Y-67668800D03*
X147478400Y-68024400D03*
X146716400Y-67567200D03*
%TO.N,Net-(U2-ADC_AVDD)*%
X142583539Y-65453947D03*
%TO.N,+BATT*%
X147167600Y-79349600D03*
%TO.N,/MC2_CS_N*%
X152152000Y-63706400D03*
%TO.N,/MC4_CS_N*%
X138373443Y-60960000D03*
X142855600Y-59896400D03*
%TO.N,VCC*%
X155848200Y-63401600D03*
%TO.N,/MC3_SENSE*%
X142093600Y-63604800D03*
%TO.N,/PWM_SYNC*%
X141902138Y-69106882D03*
X141676230Y-64023400D03*
%TO.N,/SLEEP_N*%
X155758800Y-65230400D03*
X149662800Y-57356400D03*
X139458000Y-60461200D03*
%TO.N,/FAULT_N*%
X147884800Y-78692400D03*
%TO.N,/MC2_SENSE*%
X141992000Y-65454400D03*
X153371200Y-70920000D03*
%TO.N,GNDA*%
X147308706Y-71699294D03*
%TO.N,/FAULT_N*%
X152292200Y-58926000D03*
%TO.N,/MC1_CS_N*%
X149764400Y-55713400D03*
X151166333Y-60246962D03*
%TO.N,/SENSE_SEL_1*%
X154285600Y-64011200D03*
%TO.N,/SENSE_SEL_0*%
X154793600Y-64570000D03*
%TO.N,/SENSE_SEL_1*%
X136150000Y-63757200D03*
%TO.N,/SENSE_SEL_0*%
X136912000Y-63909600D03*
%TO.N,/PWM_SYNC*%
X153033200Y-55981600D03*
X140874400Y-80013200D03*
X147168345Y-64917802D03*
X160229200Y-73307600D03*
%TO.N,Net-(U13-IO1)*%
X142797562Y-79499902D03*
%TO.N,/SENSE_SEL_0*%
X142305788Y-58447874D03*
%TO.N,/SENSE_SEL_1*%
X141827932Y-58112669D03*
%TO.N,/SENSE_SEL_0*%
X136263518Y-72715716D03*
%TO.N,/SENSE_SEL_1*%
X136855623Y-72733825D03*
%TO.N,/MC3_SENSE*%
X138379200Y-72796400D03*
%TO.N,/SENSE_SEL_0*%
X152718100Y-77504395D03*
%TO.N,/SENSE_SEL_1*%
X152112723Y-76200314D03*
%TO.N,/MC2_SENSE*%
X151733400Y-75340610D03*
%TO.N,/MC2_CS_N*%
X157934503Y-73150000D03*
%TO.N,/MC_SDO*%
X157350800Y-73150000D03*
%TO.N,/MC_SDI*%
X156749355Y-73134765D03*
%TO.N,/MC_SCLK*%
X155696484Y-73224106D03*
%TO.N,/SLEEP_N*%
X155674400Y-73806948D03*
%TO.N,/FAULT_N*%
X155221717Y-74226048D03*
%TO.N,/MC_SCLK*%
X152603704Y-58326896D03*
%TO.N,/MC_SDI*%
X152361799Y-57493001D03*
%TO.N,/MC_SDO*%
X152358617Y-56897829D03*
%TO.N,/PWM_SYNC*%
X135554061Y-60957490D03*
%TO.N,/MC4_CS_N*%
X135932040Y-61401700D03*
%TO.N,/MC_SDO*%
X136515742Y-61400799D03*
%TO.N,/MC_SDI*%
X136969000Y-61008300D03*
%TO.N,/MC_SCLK*%
X137535743Y-61147982D03*
%TO.N,/FAULT_N*%
X138785600Y-60067484D03*
%TO.N,/MC3_CS_N*%
X140919200Y-78272606D03*
%TO.N,/MC_SDO*%
X140903144Y-77434906D03*
%TO.N,/MC_SDI*%
X140884695Y-76851495D03*
%TO.N,/MC_SCLK*%
X140840800Y-74894103D03*
%TO.N,/SLEEP_N*%
X140008300Y-74203837D03*
%TO.N,/FAULT_N*%
X139960000Y-75796800D03*
%TO.N,Net-(U13-IO2)*%
X147800400Y-77620400D03*
%TO.N,GNDA*%
X146978900Y-77061600D03*
%TO.N,Net-(U13-IO0)*%
X146225600Y-75232800D03*
%TO.N,Net-(U13-CLK)*%
X145006400Y-75232800D03*
%TO.N,Net-(U13-IO3)*%
X143736400Y-75283600D03*
%TO.N,VCC*%
X141907600Y-66850800D03*
%TO.N,/MC1_CS_N*%
X151153200Y-61466000D03*
%TO.N,VCC*%
X147749600Y-64971200D03*
%TO.N,Net-(U2-TESTEN)*%
X149426000Y-68374800D03*
%TO.N,Net-(U2-USB_DP)*%
X142009200Y-66139600D03*
%TO.N,Net-(U2-USB_DM)*%
X144379600Y-66856000D03*
%TO.N,VCC*%
X144342943Y-65142202D03*
%TO.N,/MC3_CS_N*%
X149121200Y-65022000D03*
%TO.N,/MC4_CS_N*%
X147834000Y-62792000D03*
%TO.N,/SENSE_SEL_0*%
X146557295Y-64936862D03*
%TO.N,/SENSE_SEL_1*%
X146106800Y-62741200D03*
%TO.N,VCC*%
X143510000Y-63398400D03*
%TO.N,/MC3_SENSE*%
X143833000Y-61909278D03*
%TO.N,/MC1_SENSE*%
X143922400Y-60201200D03*
%TO.N,/MC2_CS_N*%
X148443600Y-62588800D03*
%TO.N,/CE_N*%
X144690387Y-58104315D03*
%TO.N,Net-(U2-SWD)*%
X156927200Y-65535200D03*
%TO.N,Net-(U2-SWCLK)*%
X156927200Y-66195600D03*
%TO.N,VCC*%
X149510400Y-66754400D03*
%TO.N,+1V1*%
X151186800Y-66703600D03*
X146030600Y-65205000D03*
%TO.N,Net-(U13-IO3)*%
X142024499Y-67769900D03*
%TO.N,Net-(U13-CLK)*%
X144379600Y-67872000D03*
%TO.N,Net-(U13-IO0)*%
X144887600Y-68278400D03*
%TO.N,Net-(U13-IO2)*%
X144142800Y-68960800D03*
%TO.N,Net-(U13-IO1)*%
X142552288Y-68971558D03*
%TO.N,VCC*%
X144125600Y-71123200D03*
%TO.N,/MC_SDO*%
X144385944Y-71961296D03*
%TO.N,/BARO_INT*%
X145192400Y-69599200D03*
%TO.N,/MC_SCLK*%
X144830800Y-72339200D03*
%TO.N,/MC_SDI*%
X144915697Y-73131791D03*
%TO.N,/BARO_INT*%
X150597551Y-74952289D03*
%TO.N,/IMU_INT1*%
X153540100Y-72405600D03*
X147190100Y-69396200D03*
%TO.N,/IMU_SDI*%
X151711300Y-70726900D03*
%TO.N,/IMU_SDO*%
X153082900Y-71529800D03*
%TO.N,VCC*%
X147951200Y-69861800D03*
%TO.N,/IMU_INT2*%
X148510000Y-71715900D03*
%TO.N,/IMU_SDO*%
X149230172Y-71390783D03*
%TO.N,/IMU_SDI*%
X149983200Y-70903100D03*
%TO.N,/IMU_SCLK*%
X149170400Y-69023500D03*
%TO.N,/IMU_CS_N*%
X148770800Y-69584100D03*
%TO.N,VCC*%
X141947400Y-72034400D03*
%TO.N,/QSPI_CS*%
X141642600Y-70780995D03*
%TO.N,GNDA*%
X140846000Y-74257700D03*
%TO.N,/SENSE_SEL_0*%
X158270400Y-62934500D03*
%TO.N,/SENSE_SEL_1*%
X157660800Y-62934500D03*
%TO.N,/MC1_SENSE*%
X155273200Y-61410500D03*
%TO.N,/FAULT_N*%
X150294800Y-63442500D03*
X156746400Y-62934500D03*
X153998000Y-58926000D03*
%TO.N,GNDA*%
X148542200Y-73932700D03*
X153223700Y-73022100D03*
%TO.N,/UART0_TX*%
X151959000Y-69853644D03*
%TO.N,/UART0_RX*%
X151445623Y-69576827D03*
%TO.N,GNDA*%
X155966900Y-67180100D03*
X154366900Y-71310500D03*
X152969700Y-66789300D03*
%TO.N,+BATT*%
X150168031Y-54821080D03*
%TO.N,Net-(D4-K)*%
X141692100Y-55105300D03*
%TO.N,Net-(D4-A)*%
X141742900Y-53530500D03*
%TO.N,VCC*%
X143520900Y-58407300D03*
%TO.N,+BATT*%
X138563400Y-57261800D03*
X138563400Y-56626800D03*
X139198400Y-56626800D03*
%TO.N,Net-(U9-CP)*%
X139147200Y-57407200D03*
%TO.N,Net-(U8-S2)*%
X138720400Y-58626800D03*
%TO.N,GNDA*%
X139331400Y-58626800D03*
%TO.N,Net-(U9-CSAREF)*%
X138781769Y-59464476D03*
%TO.N,Net-(U8-S2)*%
X141244400Y-58126800D03*
%TO.N,GNDA*%
X136418400Y-59523800D03*
X136291400Y-58253800D03*
X137434400Y-58888800D03*
%TO.N,/Motor Controller 4/AVDD*%
X134149800Y-60150800D03*
X141117400Y-59626800D03*
%TO.N,+BATT*%
X134753400Y-57134800D03*
X137071400Y-75567800D03*
X136436400Y-75567800D03*
X136436400Y-74932800D03*
%TO.N,Net-(U7-CP)*%
X137517800Y-75192446D03*
%TO.N,Net-(U6-S2)*%
X138436400Y-75410800D03*
%TO.N,GNDA*%
X138436400Y-74799800D03*
%TO.N,Net-(U7-CSAREF)*%
X139324868Y-75349040D03*
%TO.N,Net-(U6-S2)*%
X137486216Y-72716922D03*
%TO.N,GNDA*%
X139333400Y-77712800D03*
X138063400Y-77839800D03*
X138698400Y-76696800D03*
%TO.N,/Motor Controller 3/AVDD*%
X139960400Y-79981400D03*
X139344400Y-72948800D03*
%TO.N,+BATT*%
X136944400Y-79377800D03*
X155377400Y-77059800D03*
X155377400Y-77694800D03*
X154742400Y-77694800D03*
%TO.N,Net-(U5-CP)*%
X154730610Y-76869948D03*
%TO.N,Net-(U4-S2)*%
X155220400Y-75694800D03*
%TO.N,GNDA*%
X154609400Y-75694800D03*
%TO.N,Net-(U5-CSAREF)*%
X155158640Y-74806332D03*
%TO.N,Net-(U4-S2)*%
X152696400Y-76194800D03*
%TO.N,GNDA*%
X157522400Y-74797800D03*
X157649400Y-76067800D03*
X156506400Y-75432800D03*
%TO.N,/Motor Controller 2/AVDD*%
X159791000Y-74170800D03*
X152823400Y-74694800D03*
%TO.N,+BATT*%
X159187400Y-77186800D03*
X156996400Y-54943800D03*
%TO.N,/MC1_CS_N*%
X152927749Y-56579316D03*
%TO.N,/Motor Controller 1/AVDD*%
X154504400Y-61307800D03*
X153980400Y-54340200D03*
%TO.N,GNDA*%
X155242400Y-57624800D03*
X155877400Y-56481800D03*
X154607400Y-56608800D03*
%TO.N,Net-(U1-SOB)*%
X156004400Y-61434800D03*
%TO.N,Net-(U1-CSAREF)*%
X154615932Y-58972560D03*
%TO.N,GNDA*%
X155504400Y-59521800D03*
%TO.N,Net-(U1-SOB)*%
X155504400Y-58910800D03*
%TO.N,Net-(U1-CP)*%
X156423000Y-59129154D03*
%TO.N,+BATT*%
X157504400Y-59388800D03*
X157504400Y-58753800D03*
X156869400Y-58753800D03*
%TD*%
D18*
%TO.N,VCC*%
X144603970Y-65403230D02*
X143154400Y-66852800D01*
X143154400Y-66852800D02*
X143154400Y-67970400D01*
D19*
X144603970Y-65403230D02*
X144825539Y-65624798D01*
X144342943Y-65142202D02*
X144603970Y-65403230D01*
D18*
X143481000Y-70684600D02*
X143584000Y-70581600D01*
X143042400Y-71123200D02*
X143481000Y-70684600D01*
X143560800Y-71123200D02*
X142858600Y-71123200D01*
X143560800Y-71123200D02*
X143560800Y-70764400D01*
X144125600Y-71123200D02*
X143560800Y-71123200D01*
X143560800Y-70764400D02*
X143481000Y-70684600D01*
X142858600Y-71123200D02*
X143042400Y-71123200D01*
D19*
%TO.N,+BATT*%
X150290751Y-54943800D02*
X156996400Y-54943800D01*
X150168031Y-54821080D02*
X150290751Y-54943800D01*
X148117797Y-57927003D02*
X146227394Y-57927003D01*
X149047200Y-56997600D02*
X148117797Y-57927003D01*
X149047200Y-55837903D02*
X149047200Y-56997600D01*
X150064023Y-54821080D02*
X149047200Y-55837903D01*
X150168031Y-54821080D02*
X150064023Y-54821080D01*
X145796000Y-55079400D02*
X145796000Y-57495609D01*
X145631400Y-54914800D02*
X144364900Y-54914800D01*
X145796000Y-57495609D02*
X146227394Y-57927003D01*
X145796000Y-55079400D02*
X145631400Y-54914800D01*
X141696400Y-56626800D02*
X139198400Y-56626800D01*
X143303600Y-55019600D02*
X141696400Y-56626800D01*
X144260100Y-55019600D02*
X143303600Y-55019600D01*
X144424400Y-54974300D02*
X144424400Y-56591200D01*
X144364900Y-54914800D02*
X144260100Y-55019600D01*
X144364900Y-54914800D02*
X144424400Y-54974300D01*
D18*
X158829200Y-61953600D02*
X158829200Y-63471600D01*
X158648400Y-61772800D02*
X158829200Y-61953600D01*
D20*
%TO.N,*%
X139852400Y-57384500D02*
X139852400Y-57251600D01*
X139347100Y-57889800D02*
X139852400Y-57384500D01*
X138865000Y-57889800D02*
X139347100Y-57889800D01*
X138734800Y-57759600D02*
X138865000Y-57889800D01*
D18*
%TO.N,+BATT*%
X141950400Y-56626800D02*
X142240000Y-56337200D01*
X139198400Y-56626800D02*
X141950400Y-56626800D01*
X139008263Y-56337200D02*
X142240000Y-56337200D01*
X138718663Y-56626800D02*
X139008263Y-56337200D01*
X138563400Y-56626800D02*
X138718663Y-56626800D01*
X137668000Y-57185600D02*
X137617200Y-57134800D01*
X138159863Y-57185600D02*
X137668000Y-57185600D01*
X138563400Y-56782063D02*
X138159863Y-57185600D01*
X138563400Y-56626800D02*
X138563400Y-56782063D01*
D19*
X137617200Y-57134800D02*
X138436400Y-57134800D01*
X134753400Y-57134800D02*
X137617200Y-57134800D01*
D18*
X136436400Y-74536000D02*
X136652000Y-74320400D01*
X136436400Y-75567800D02*
X136436400Y-74536000D01*
X136591663Y-75567800D02*
X137420531Y-76396669D01*
X137718800Y-76694937D02*
X137718800Y-76911200D01*
X136436400Y-75567800D02*
X136591663Y-75567800D01*
X158505400Y-76504800D02*
X158292800Y-76504800D01*
X159187400Y-77186800D02*
X158505400Y-76504800D01*
X137668000Y-78654200D02*
X137668000Y-78486000D01*
X136944400Y-79377800D02*
X137668000Y-78654200D01*
X147167600Y-78181200D02*
X146964400Y-77978000D01*
X147167600Y-79349600D02*
X147167600Y-78181200D01*
X154256000Y-78181200D02*
X153365200Y-78181200D01*
X154267800Y-78169400D02*
X154256000Y-78181200D01*
X155377400Y-77694800D02*
X154742400Y-77694800D01*
X154742400Y-77694800D02*
X154267800Y-78169400D01*
X155377400Y-77539537D02*
X155857137Y-77059800D01*
D19*
X156616400Y-77059800D02*
X155377400Y-77059800D01*
D18*
X155377400Y-77694800D02*
X155377400Y-77539537D01*
D19*
X159060400Y-77059800D02*
X156616400Y-77059800D01*
D18*
X155857137Y-77059800D02*
X156616400Y-77059800D01*
X158648400Y-60532800D02*
X158648400Y-61772800D01*
X158557200Y-60441600D02*
X158648400Y-60532800D01*
X157504400Y-59388800D02*
X158557200Y-60441600D01*
X157504400Y-58753800D02*
X157504400Y-59388800D01*
X157349137Y-58753800D02*
X156945600Y-58350263D01*
X157504400Y-58753800D02*
X157349137Y-58753800D01*
X156945600Y-58350263D02*
X156945600Y-58115200D01*
D19*
%TO.N,GNDA*%
X154025600Y-61000600D02*
X155504400Y-59521800D01*
X154025600Y-61421697D02*
X154025600Y-61000600D01*
X154457803Y-61853900D02*
X154025600Y-61421697D01*
X140272985Y-57685215D02*
X139331400Y-58626800D01*
X143435615Y-57685215D02*
X140272985Y-57685215D01*
X146440600Y-59521800D02*
X145272200Y-59521800D01*
X156267300Y-62687200D02*
X149606000Y-62687200D01*
X149606000Y-62687200D02*
X146440600Y-59521800D01*
X145272200Y-59521800D02*
X143435615Y-57685215D01*
X138855500Y-76539700D02*
X138855500Y-74888300D01*
X138855500Y-74888300D02*
X138944000Y-74799800D01*
X138698400Y-76696800D02*
X138855500Y-76539700D01*
X138115500Y-58207700D02*
X137434400Y-58888800D01*
X138912300Y-58207700D02*
X138115500Y-58207700D01*
X139331400Y-58626800D02*
X138912300Y-58207700D01*
X156308400Y-75234800D02*
X156506400Y-75432800D01*
X154609400Y-75694800D02*
X155069400Y-75234800D01*
X155069400Y-75234800D02*
X156308400Y-75234800D01*
D18*
X147427600Y-68075200D02*
X147427600Y-68684800D01*
X147478400Y-68024400D02*
X147427600Y-68075200D01*
X147173600Y-68024400D02*
X146716400Y-67567200D01*
X147478400Y-68024400D02*
X147173600Y-68024400D01*
X146665600Y-66500400D02*
X146665600Y-67516400D01*
X146665600Y-67516400D02*
X146716400Y-67567200D01*
X146767200Y-66602000D02*
X146665600Y-66500400D01*
X147681600Y-66602000D02*
X146767200Y-66602000D01*
%TO.N,+1V1*%
X151186800Y-66144800D02*
X151186800Y-66703600D01*
X145998495Y-64705399D02*
X146344892Y-64359002D01*
X146344892Y-64359002D02*
X149401002Y-64359002D01*
X145998495Y-65172895D02*
X145998495Y-64705399D01*
X149401002Y-64359002D02*
X151186800Y-66144800D01*
X146030600Y-65205000D02*
X145998495Y-65172895D01*
%TO.N,VCC*%
X152247600Y-66433063D02*
X152247600Y-65258937D01*
X154104937Y-63401600D02*
X155848200Y-63401600D01*
X151418263Y-67262400D02*
X152247600Y-66433063D01*
X152247600Y-65258937D02*
X154104937Y-63401600D01*
X150018400Y-67262400D02*
X151418263Y-67262400D01*
X149510400Y-66754400D02*
X150018400Y-67262400D01*
X144964541Y-65763800D02*
X144342943Y-65142202D01*
X147112610Y-65763800D02*
X144964541Y-65763800D01*
X147749600Y-65126810D02*
X147112610Y-65763800D01*
X147749600Y-64971200D02*
X147749600Y-65126810D01*
X149510400Y-66732000D02*
X147749600Y-64971200D01*
X149510400Y-66754400D02*
X149510400Y-66732000D01*
X147112610Y-65763800D02*
X148519800Y-65763800D01*
X148519800Y-65763800D02*
X149510400Y-66754400D01*
D19*
X148309960Y-65624798D02*
X147935600Y-65624798D01*
D18*
X147986400Y-69826600D02*
X147951200Y-69861800D01*
X148345379Y-65589379D02*
X148240400Y-65694358D01*
X148345379Y-65589379D02*
X148309960Y-65624798D01*
X148240400Y-65694358D02*
X148240400Y-68158000D01*
X148240400Y-68158000D02*
X147986400Y-68412000D01*
X148309960Y-65624798D02*
X148031200Y-65624798D01*
X147986400Y-68412000D02*
X147986400Y-69826600D01*
X147749600Y-65343198D02*
X148031200Y-65624798D01*
X147749600Y-64971200D02*
X147749600Y-65343198D01*
D19*
X148031200Y-65624798D02*
X148380798Y-65624798D01*
X147935600Y-65624798D02*
X148031200Y-65624798D01*
D18*
X148345379Y-65589379D02*
X149510400Y-66754400D01*
X147275779Y-65589379D02*
X148345379Y-65589379D01*
D19*
X147275779Y-65589379D02*
X147749600Y-65115559D01*
X147240361Y-65624798D02*
X147275779Y-65589379D01*
D18*
X144481200Y-62427200D02*
X143510000Y-63398400D01*
X143520900Y-58407300D02*
X144481200Y-59367600D01*
X144481200Y-59367600D02*
X144481200Y-62427200D01*
X143510000Y-64309259D02*
X144342943Y-65142202D01*
X143510000Y-63398400D02*
X143510000Y-64309259D01*
X142843973Y-66641172D02*
X144342943Y-65142202D01*
X142843973Y-66641173D02*
X142843973Y-66641172D01*
X142843973Y-67868800D02*
X142843973Y-66641173D01*
X142634346Y-66850800D02*
X142843973Y-66641173D01*
X141907600Y-66850800D02*
X142634346Y-66850800D01*
X143584000Y-68608827D02*
X142843973Y-67868800D01*
X143584000Y-70581600D02*
X143584000Y-68608827D01*
X144125600Y-71123200D02*
X143584000Y-70581600D01*
X142858600Y-71123200D02*
X141947400Y-72034400D01*
D19*
%TO.N,+BATT*%
X140919200Y-79080319D02*
X143779281Y-79080319D01*
X137241881Y-79080319D02*
X140919200Y-79080319D01*
X140919200Y-79080319D02*
X140919200Y-79110306D01*
X143779281Y-79080319D02*
X144475200Y-78384400D01*
X144475200Y-78384400D02*
X146984104Y-78384400D01*
X136944400Y-79377800D02*
X137241881Y-79080319D01*
%TO.N,Earth*%
X144983200Y-80060800D02*
X144983200Y-80622800D01*
X144983200Y-80622800D02*
X147370800Y-80622800D01*
X137420000Y-80622800D02*
X144983200Y-80622800D01*
X147370800Y-80622800D02*
X147370800Y-80213200D01*
X147370800Y-80622800D02*
X153084400Y-80622800D01*
X147370800Y-80213200D02*
X147320000Y-80162400D01*
%TO.N,/Motor Controller 1/AVDD*%
X153452300Y-55472734D02*
X153451008Y-55471442D01*
%TO.N,GNDA*%
X156267300Y-64773200D02*
X156267300Y-62687200D01*
X153873200Y-65885800D02*
X153873200Y-65430400D01*
X152969700Y-66789300D02*
X153873200Y-65885800D01*
%TO.N,Earth*%
X147741300Y-54391900D02*
X147878800Y-54254400D01*
X147741300Y-56491200D02*
X147741300Y-54391900D01*
X147878800Y-54254400D02*
X149354800Y-54254400D01*
X140300800Y-54254400D02*
X147878800Y-54254400D01*
X149354800Y-54254400D02*
X149561200Y-54460800D01*
X138563400Y-55991800D02*
X140300800Y-54254400D01*
%TO.N,+BATT*%
X134753400Y-73249800D02*
X136436400Y-74932800D01*
X134753400Y-57134800D02*
X134753400Y-73249800D01*
X138436400Y-57134800D02*
X138563400Y-57261800D01*
%TO.N,Earth*%
X134653503Y-56642000D02*
X136093200Y-56642000D01*
X133610000Y-73376400D02*
X133610000Y-57685503D01*
X133610000Y-57685503D02*
X134653503Y-56642000D01*
X136093200Y-56642000D02*
X136108400Y-56626800D01*
X136108400Y-56626800D02*
X137293400Y-56626800D01*
X135801400Y-75567800D02*
X133610000Y-73376400D01*
%TO.N,+BATT*%
X138563400Y-56626800D02*
X138563400Y-57261800D01*
X159187400Y-77186800D02*
X159060400Y-77059800D01*
X155377400Y-77694800D02*
X155377400Y-77059800D01*
X158800800Y-76800200D02*
X159187400Y-77186800D01*
%TO.N,Earth*%
X160610200Y-77032200D02*
X159947600Y-77694800D01*
X160610200Y-73993400D02*
X160610200Y-77032200D01*
X159947600Y-77694800D02*
X156647400Y-77694800D01*
%TO.N,+BATT*%
X156869400Y-58753800D02*
X157504400Y-58753800D01*
X156996400Y-58626800D02*
X156869400Y-58753800D01*
X156996400Y-54943800D02*
X156996400Y-58626800D01*
%TO.N,Earth*%
X149561200Y-54460800D02*
X149954900Y-54460800D01*
X149954900Y-54460800D02*
X151034400Y-53381300D01*
X157494100Y-53381300D02*
X151034400Y-53381300D01*
X158151300Y-54038500D02*
X157494100Y-53381300D01*
X157504400Y-57033200D02*
X158197200Y-56340400D01*
X158197200Y-56340400D02*
X158151300Y-56294500D01*
X158151300Y-56294500D02*
X158151300Y-54038500D01*
X157504400Y-57483800D02*
X157504400Y-57033200D01*
X160648300Y-61262700D02*
X158139400Y-58753800D01*
X157504400Y-58118800D02*
X157504400Y-57483800D01*
X157504400Y-58118800D02*
X158139400Y-58118800D01*
X158139400Y-58753800D02*
X158139400Y-58118800D01*
X156012400Y-78329800D02*
X156012400Y-77694800D01*
X135801400Y-76202800D02*
X136436400Y-76202800D01*
X135801400Y-75567800D02*
X135801400Y-76202800D01*
X156012400Y-77694800D02*
X156647400Y-77694800D01*
X137928400Y-55991800D02*
X137928400Y-56626800D01*
X137928400Y-56626800D02*
X137293400Y-56626800D01*
X138563400Y-55991800D02*
X137928400Y-55991800D01*
X160610200Y-73993400D02*
X160648300Y-73955300D01*
X160686400Y-73917200D02*
X160610200Y-73993400D01*
X160648300Y-73955300D02*
X160648300Y-61262700D01*
X136436400Y-79639200D02*
X137420000Y-80622800D01*
X153084400Y-80622800D02*
X155377400Y-78329800D01*
X136436400Y-76837800D02*
X136436400Y-79639200D01*
X136436400Y-76202800D02*
X136436400Y-76837800D01*
X155377400Y-78329800D02*
X156012400Y-78329800D01*
%TO.N,GNDA*%
X148462200Y-71296800D02*
X152969700Y-66789300D01*
X147308706Y-71699294D02*
X147711200Y-71296800D01*
X147711200Y-71296800D02*
X148462200Y-71296800D01*
X146771000Y-71161588D02*
X147308706Y-71699294D01*
X146771000Y-69222603D02*
X146771000Y-71161588D01*
X147308803Y-68684800D02*
X146771000Y-69222603D01*
X147427600Y-68684800D02*
X147308803Y-68684800D01*
X156267300Y-66879700D02*
X156267300Y-64773200D01*
X140846000Y-72921400D02*
X140846000Y-74257700D01*
X139685400Y-71760800D02*
X140846000Y-72921400D01*
X139685400Y-70335800D02*
X139485400Y-70135800D01*
X139685400Y-71760800D02*
X139685400Y-70335800D01*
X140025900Y-64726300D02*
X140025900Y-70120700D01*
X139485400Y-64185800D02*
X140025900Y-64726300D01*
X140010800Y-70135800D02*
X140835400Y-70135800D01*
X140025900Y-70120700D02*
X140010800Y-70135800D01*
X139485400Y-70135800D02*
X140010800Y-70135800D01*
X139877100Y-59172500D02*
X139331400Y-58626800D01*
X139877100Y-62369100D02*
X139877100Y-59172500D01*
X139685400Y-62560800D02*
X139877100Y-62369100D01*
X139485400Y-64185800D02*
X140835400Y-64185800D01*
X140835400Y-64185800D02*
X139685400Y-63035800D01*
X139685400Y-63035800D02*
X139685400Y-62560800D01*
X155966900Y-67180100D02*
X156267300Y-66879700D01*
X157649400Y-74924800D02*
X157522400Y-74797800D01*
X153223700Y-74309100D02*
X154609400Y-75694800D01*
X153223700Y-73022100D02*
X153223700Y-74309100D01*
X148217200Y-74257700D02*
X148542200Y-73932700D01*
X140846000Y-74257700D02*
X148217200Y-74257700D01*
X138944000Y-74799800D02*
X140303900Y-74799800D01*
X138436400Y-74799800D02*
X138944000Y-74799800D01*
X140303900Y-74799800D02*
X140846000Y-74257700D01*
X148542200Y-75498300D02*
X148542200Y-73932700D01*
X146978900Y-77061600D02*
X148542200Y-75498300D01*
%TO.N,+BATT*%
X137071400Y-79250800D02*
X136944400Y-79377800D01*
X137071400Y-75567800D02*
X137071400Y-79250800D01*
X136436400Y-75567800D02*
X136436400Y-74932800D01*
X136436400Y-75567800D02*
X137071400Y-75567800D01*
%TO.N,GNDA*%
X155282300Y-67180100D02*
X154321400Y-68141000D01*
X154321400Y-68141000D02*
X152969700Y-66789300D01*
X154366900Y-68186500D02*
X154321400Y-68141000D01*
X155966900Y-67180100D02*
X155282300Y-67180100D01*
X154366900Y-71310500D02*
X154366900Y-68186500D01*
X154366900Y-72171497D02*
X153516297Y-73022100D01*
X154366900Y-71310500D02*
X154366900Y-72171497D01*
X153516297Y-73022100D02*
X153223700Y-73022100D01*
X149452800Y-73022100D02*
X153223700Y-73022100D01*
X148542200Y-73932700D02*
X149452800Y-73022100D01*
X147308706Y-72699206D02*
X148542200Y-73932700D01*
X147308706Y-71699294D02*
X147308706Y-72699206D01*
%TO.N,VCC*%
X147173600Y-65624798D02*
X147935600Y-65624798D01*
X148380798Y-65624798D02*
X149510400Y-66754400D01*
X147173600Y-65624798D02*
X147240361Y-65624798D01*
X144825539Y-65624798D02*
X147173600Y-65624798D01*
X147749600Y-65115559D02*
X147749600Y-64971200D01*
%TD*%
%TA.AperFunction,Conductor*%
%TO.N,GNDA*%
G36*
X141175635Y-57676306D02*
G01*
X141193941Y-57720500D01*
X141175635Y-57764694D01*
X141155359Y-57778242D01*
X140971853Y-57854252D01*
X140971852Y-57854253D01*
X140858960Y-58126799D01*
X140858960Y-58126800D01*
X140971852Y-58399346D01*
X140971853Y-58399347D01*
X141244399Y-58512240D01*
X141244400Y-58512240D01*
X141244401Y-58512240D01*
X141528433Y-58394590D01*
X141530147Y-58398729D01*
X141552801Y-58389320D01*
X141576780Y-58394078D01*
X141827931Y-58498109D01*
X141827931Y-58498108D01*
X141827932Y-58498109D01*
X141866831Y-58481995D01*
X141914666Y-58481995D01*
X141948491Y-58515819D01*
X141948491Y-58515820D01*
X142033240Y-58720420D01*
X142033240Y-58720421D01*
X142305787Y-58833314D01*
X142305788Y-58833314D01*
X142305789Y-58833314D01*
X142497751Y-58753800D01*
X142578335Y-58720421D01*
X142691228Y-58447874D01*
X142680966Y-58423100D01*
X142578335Y-58175327D01*
X142578334Y-58175326D01*
X142305789Y-58062434D01*
X142305788Y-58062434D01*
X142266886Y-58078547D01*
X142219050Y-58078546D01*
X142185228Y-58044724D01*
X142100479Y-57840122D01*
X142080311Y-57831768D01*
X141951089Y-57778242D01*
X141917264Y-57744418D01*
X141917265Y-57696582D01*
X141951089Y-57662757D01*
X141975007Y-57658000D01*
X143382512Y-57658000D01*
X143426706Y-57676306D01*
X143727820Y-57977420D01*
X143746126Y-58021614D01*
X143727820Y-58065808D01*
X143683626Y-58084114D01*
X143659708Y-58079356D01*
X143520901Y-58021860D01*
X143520899Y-58021860D01*
X143248353Y-58134752D01*
X143248352Y-58134753D01*
X143135460Y-58407299D01*
X143135460Y-58407300D01*
X143248352Y-58679846D01*
X143248353Y-58679847D01*
X143369021Y-58729829D01*
X143389295Y-58743376D01*
X143762008Y-59116089D01*
X144132194Y-59486274D01*
X144150500Y-59530468D01*
X144150500Y-59816704D01*
X144132194Y-59860898D01*
X144088000Y-59879204D01*
X144064084Y-59874447D01*
X143922400Y-59815760D01*
X143922399Y-59815760D01*
X143922398Y-59815760D01*
X143649853Y-59928652D01*
X143649852Y-59928653D01*
X143536960Y-60201199D01*
X143536960Y-60201200D01*
X143649852Y-60473746D01*
X143649853Y-60473747D01*
X143922399Y-60586640D01*
X143922400Y-60586640D01*
X143922401Y-60586640D01*
X143982426Y-60561776D01*
X144064084Y-60527951D01*
X144111917Y-60527951D01*
X144145742Y-60561776D01*
X144150500Y-60585694D01*
X144150500Y-61561813D01*
X144132194Y-61606007D01*
X144088000Y-61624313D01*
X144064082Y-61619555D01*
X143833001Y-61523838D01*
X143832999Y-61523838D01*
X143560453Y-61636730D01*
X143560452Y-61636731D01*
X143447560Y-61909277D01*
X143447560Y-61909278D01*
X143560452Y-62181824D01*
X143560453Y-62181825D01*
X143832999Y-62294718D01*
X143833000Y-62294718D01*
X143833001Y-62294718D01*
X143982425Y-62232824D01*
X144064083Y-62198999D01*
X144111918Y-62198999D01*
X144145742Y-62232824D01*
X144150500Y-62256742D01*
X144150500Y-62264329D01*
X144132194Y-62308523D01*
X143378395Y-63062322D01*
X143358119Y-63075870D01*
X143237453Y-63125852D01*
X143237452Y-63125852D01*
X143124560Y-63398399D01*
X143124560Y-63398400D01*
X143174542Y-63519066D01*
X143179300Y-63542984D01*
X143179300Y-64231045D01*
X143174543Y-64254962D01*
X143156943Y-64297453D01*
X143152053Y-64309259D01*
X143179300Y-64375039D01*
X143256893Y-64562366D01*
X143311187Y-64584855D01*
X143331463Y-64598403D01*
X143831067Y-65098007D01*
X143849373Y-65142201D01*
X143831067Y-65186395D01*
X142665435Y-66352027D01*
X142645159Y-66365575D01*
X142590865Y-66388064D01*
X142568375Y-66442360D01*
X142554828Y-66462636D01*
X142515671Y-66501794D01*
X142471477Y-66520100D01*
X142324682Y-66520100D01*
X142280488Y-66501794D01*
X142262182Y-66457600D01*
X142280488Y-66413406D01*
X142281745Y-66412147D01*
X142281747Y-66412147D01*
X142394640Y-66139600D01*
X142366685Y-66072112D01*
X142319200Y-65957472D01*
X142281747Y-65867053D01*
X142281746Y-65867052D01*
X142243426Y-65851179D01*
X142209601Y-65817354D01*
X142209602Y-65769519D01*
X142243425Y-65735695D01*
X142264399Y-65727007D01*
X142312230Y-65727007D01*
X142454217Y-65785820D01*
X142583538Y-65839387D01*
X142583539Y-65839387D01*
X142583540Y-65839387D01*
X142719812Y-65782940D01*
X142856086Y-65726494D01*
X142968979Y-65453947D01*
X142966766Y-65448605D01*
X142856086Y-65181400D01*
X142856085Y-65181399D01*
X142583540Y-65068507D01*
X142583539Y-65068507D01*
X142452281Y-65122876D01*
X142311141Y-65181338D01*
X142263305Y-65181338D01*
X142111836Y-65118598D01*
X141992000Y-65068960D01*
X141991999Y-65068960D01*
X141991998Y-65068960D01*
X141719453Y-65181852D01*
X141719452Y-65181853D01*
X141606560Y-65454399D01*
X141606560Y-65454400D01*
X141719452Y-65726946D01*
X141719453Y-65726947D01*
X141757773Y-65742820D01*
X141791598Y-65776644D01*
X141791597Y-65824480D01*
X141757773Y-65858304D01*
X141736653Y-65867052D01*
X141736652Y-65867052D01*
X141623760Y-66139599D01*
X141623760Y-66139600D01*
X141736651Y-66412146D01*
X141736652Y-66412146D01*
X141736653Y-66412147D01*
X141746957Y-66416415D01*
X141780781Y-66450239D01*
X141780782Y-66498074D01*
X141746957Y-66531899D01*
X141635053Y-66578252D01*
X141635052Y-66578252D01*
X141522160Y-66850799D01*
X141522160Y-66850800D01*
X141635052Y-67123346D01*
X141635053Y-67123347D01*
X141907599Y-67236240D01*
X141907600Y-67236240D01*
X141907601Y-67236240D01*
X142028267Y-67186258D01*
X142052185Y-67181500D01*
X142450773Y-67181500D01*
X142494967Y-67199806D01*
X142513273Y-67244000D01*
X142513273Y-67705161D01*
X142494967Y-67749355D01*
X142450773Y-67767661D01*
X142406579Y-67749355D01*
X142393031Y-67729079D01*
X142297046Y-67497353D01*
X142297045Y-67497352D01*
X142024500Y-67384460D01*
X142024498Y-67384460D01*
X141751952Y-67497352D01*
X141751951Y-67497353D01*
X141639059Y-67769899D01*
X141639059Y-67769900D01*
X141751951Y-68042446D01*
X141751952Y-68042447D01*
X142024498Y-68155340D01*
X142024499Y-68155340D01*
X142024500Y-68155340D01*
X142130111Y-68111594D01*
X142297046Y-68042447D01*
X142369758Y-67866904D01*
X142403581Y-67833083D01*
X142451417Y-67833082D01*
X142485241Y-67866907D01*
X142555114Y-68035595D01*
X142590865Y-68121906D01*
X142590866Y-68121907D01*
X142645160Y-68144396D01*
X142665436Y-68157944D01*
X143234994Y-68727502D01*
X143253300Y-68771696D01*
X143253300Y-70380197D01*
X143234994Y-70424391D01*
X143227892Y-70431492D01*
X143205403Y-70485786D01*
X143191855Y-70506062D01*
X142940501Y-70757416D01*
X142896307Y-70775722D01*
X142872390Y-70770965D01*
X142858600Y-70765253D01*
X142858599Y-70765253D01*
X142792820Y-70792500D01*
X142605491Y-70870094D01*
X142583002Y-70924388D01*
X142569454Y-70944664D01*
X141815795Y-71698322D01*
X141795519Y-71711870D01*
X141674853Y-71761852D01*
X141674852Y-71761852D01*
X141561960Y-72034399D01*
X141561960Y-72034400D01*
X141674852Y-72306946D01*
X141674853Y-72306947D01*
X141947399Y-72419840D01*
X141947400Y-72419840D01*
X141947401Y-72419840D01*
X142219945Y-72306948D01*
X142219945Y-72306947D01*
X142219947Y-72306947D01*
X142269930Y-72186274D01*
X142283476Y-72166003D01*
X142488183Y-71961296D01*
X144000504Y-71961296D01*
X144113396Y-72233842D01*
X144113397Y-72233843D01*
X144385943Y-72346736D01*
X144398377Y-72346736D01*
X144398377Y-72348543D01*
X144429413Y-72348542D01*
X144463239Y-72382366D01*
X144463240Y-72382368D01*
X144558252Y-72611746D01*
X144558253Y-72611747D01*
X144760054Y-72695336D01*
X144793878Y-72729160D01*
X144793878Y-72776996D01*
X144760054Y-72810820D01*
X144643150Y-72859243D01*
X144643149Y-72859244D01*
X144530257Y-73131790D01*
X144530257Y-73131791D01*
X144643149Y-73404337D01*
X144643150Y-73404338D01*
X144915696Y-73517231D01*
X144915697Y-73517231D01*
X144915698Y-73517231D01*
X145051970Y-73460784D01*
X145188244Y-73404338D01*
X145301137Y-73131791D01*
X145294545Y-73115877D01*
X145188244Y-72859244D01*
X145188243Y-72859243D01*
X144986442Y-72775654D01*
X144952617Y-72741830D01*
X144952618Y-72693994D01*
X144986438Y-72660172D01*
X145103347Y-72611747D01*
X145188736Y-72405600D01*
X153154660Y-72405600D01*
X153267552Y-72678146D01*
X153267553Y-72678147D01*
X153540099Y-72791040D01*
X153540100Y-72791040D01*
X153540101Y-72791040D01*
X153771149Y-72695336D01*
X153812647Y-72678147D01*
X153925540Y-72405600D01*
X153915916Y-72382366D01*
X153812647Y-72133053D01*
X153812646Y-72133052D01*
X153540101Y-72020160D01*
X153540099Y-72020160D01*
X153267553Y-72133052D01*
X153267552Y-72133053D01*
X153154660Y-72405599D01*
X153154660Y-72405600D01*
X145188736Y-72405600D01*
X145216240Y-72339200D01*
X145207702Y-72318588D01*
X145103347Y-72066653D01*
X145103346Y-72066652D01*
X144830801Y-71953760D01*
X144818368Y-71953760D01*
X144818368Y-71951952D01*
X144787324Y-71951951D01*
X144753503Y-71918128D01*
X144705544Y-71802346D01*
X144669737Y-71715900D01*
X148124560Y-71715900D01*
X148237452Y-71988446D01*
X148237453Y-71988447D01*
X148509999Y-72101340D01*
X148510000Y-72101340D01*
X148510001Y-72101340D01*
X148600849Y-72063709D01*
X148782547Y-71988447D01*
X148895440Y-71715900D01*
X148895439Y-71715898D01*
X148899214Y-71706785D01*
X148933039Y-71672961D01*
X148980873Y-71672960D01*
X148980875Y-71672960D01*
X148980875Y-71672961D01*
X149230171Y-71776223D01*
X149230172Y-71776223D01*
X149230173Y-71776223D01*
X149397018Y-71707113D01*
X149502719Y-71663330D01*
X149558029Y-71529800D01*
X152697460Y-71529800D01*
X152810352Y-71802346D01*
X152810353Y-71802347D01*
X153082899Y-71915240D01*
X153082900Y-71915240D01*
X153082901Y-71915240D01*
X153219173Y-71858793D01*
X153355447Y-71802347D01*
X153468340Y-71529800D01*
X153459575Y-71508640D01*
X153398708Y-71361695D01*
X153398707Y-71313860D01*
X153432532Y-71280035D01*
X153432532Y-71280034D01*
X153643747Y-71192547D01*
X153756640Y-70920000D01*
X153749639Y-70903099D01*
X153643747Y-70647453D01*
X153643746Y-70647452D01*
X153371201Y-70534560D01*
X153371199Y-70534560D01*
X153098653Y-70647452D01*
X153098652Y-70647453D01*
X152985760Y-70919999D01*
X152985760Y-70920000D01*
X153055391Y-71088104D01*
X153055392Y-71135940D01*
X153021567Y-71169764D01*
X152810353Y-71257252D01*
X152810352Y-71257253D01*
X152697460Y-71529799D01*
X152697460Y-71529800D01*
X149558029Y-71529800D01*
X149615612Y-71390783D01*
X149603563Y-71361695D01*
X149502719Y-71118236D01*
X149502718Y-71118235D01*
X149230173Y-71005343D01*
X149230171Y-71005343D01*
X148957625Y-71118235D01*
X148957624Y-71118236D01*
X148840956Y-71399897D01*
X148807132Y-71433722D01*
X148759296Y-71433722D01*
X148510000Y-71330460D01*
X148509999Y-71330460D01*
X148509998Y-71330460D01*
X148237453Y-71443352D01*
X148237452Y-71443353D01*
X148124560Y-71715899D01*
X148124560Y-71715900D01*
X144669737Y-71715900D01*
X144658491Y-71688749D01*
X144658490Y-71688748D01*
X144385945Y-71575856D01*
X144385943Y-71575856D01*
X144113397Y-71688748D01*
X144113396Y-71688749D01*
X144000504Y-71961295D01*
X144000504Y-71961296D01*
X142488183Y-71961296D01*
X142960497Y-71488981D01*
X143004690Y-71470676D01*
X143028606Y-71475433D01*
X143042400Y-71481147D01*
X143096693Y-71458657D01*
X143120611Y-71453900D01*
X143482589Y-71453900D01*
X143506507Y-71458658D01*
X143560799Y-71481147D01*
X143560800Y-71481147D01*
X143560801Y-71481147D01*
X143615093Y-71458658D01*
X143639011Y-71453900D01*
X143981015Y-71453900D01*
X144004933Y-71458658D01*
X144125599Y-71508640D01*
X144125600Y-71508640D01*
X144125601Y-71508640D01*
X144283219Y-71443352D01*
X144398147Y-71395747D01*
X144511040Y-71123200D01*
X144508983Y-71118235D01*
X144419871Y-70903100D01*
X149597760Y-70903100D01*
X149710652Y-71175646D01*
X149710653Y-71175647D01*
X149983199Y-71288540D01*
X149983200Y-71288540D01*
X149983201Y-71288540D01*
X150119473Y-71232093D01*
X150255747Y-71175647D01*
X150368640Y-70903100D01*
X150354968Y-70870094D01*
X150295655Y-70726900D01*
X151325860Y-70726900D01*
X151438752Y-70999446D01*
X151438753Y-70999447D01*
X151711299Y-71112340D01*
X151711300Y-71112340D01*
X151711301Y-71112340D01*
X151847573Y-71055893D01*
X151983847Y-70999447D01*
X152096740Y-70726900D01*
X152063831Y-70647452D01*
X151983847Y-70454353D01*
X151983846Y-70454352D01*
X151711301Y-70341460D01*
X151711299Y-70341460D01*
X151438753Y-70454352D01*
X151438752Y-70454353D01*
X151325860Y-70726899D01*
X151325860Y-70726900D01*
X150295655Y-70726900D01*
X150255747Y-70630553D01*
X150255746Y-70630552D01*
X149983201Y-70517660D01*
X149983199Y-70517660D01*
X149710653Y-70630552D01*
X149710652Y-70630553D01*
X149597760Y-70903099D01*
X149597760Y-70903100D01*
X144419871Y-70903100D01*
X144398147Y-70850653D01*
X144398146Y-70850652D01*
X144277479Y-70800670D01*
X144257203Y-70787122D01*
X143933006Y-70462925D01*
X143914700Y-70418731D01*
X143914700Y-69599200D01*
X144806960Y-69599200D01*
X144919852Y-69871746D01*
X144919853Y-69871747D01*
X145192399Y-69984640D01*
X145192400Y-69984640D01*
X145192401Y-69984640D01*
X145394020Y-69901126D01*
X145464947Y-69871747D01*
X145577840Y-69599200D01*
X145571585Y-69584100D01*
X145464947Y-69326653D01*
X145464946Y-69326652D01*
X145192401Y-69213760D01*
X145192399Y-69213760D01*
X144919853Y-69326652D01*
X144919852Y-69326653D01*
X144806960Y-69599199D01*
X144806960Y-69599200D01*
X143914700Y-69599200D01*
X143914700Y-69345294D01*
X143933006Y-69301100D01*
X143977200Y-69282794D01*
X144001114Y-69287551D01*
X144078749Y-69319709D01*
X144142799Y-69346240D01*
X144142800Y-69346240D01*
X144142801Y-69346240D01*
X144295972Y-69282794D01*
X144415347Y-69233347D01*
X144528240Y-68960800D01*
X144526213Y-68955907D01*
X144415347Y-68688253D01*
X144415346Y-68688252D01*
X144142801Y-68575360D01*
X144142800Y-68575360D01*
X144017270Y-68627355D01*
X143969435Y-68627354D01*
X143935610Y-68593529D01*
X143933182Y-68587668D01*
X143864354Y-68421500D01*
X143861998Y-68415812D01*
X143861997Y-68415812D01*
X143861996Y-68415809D01*
X143860418Y-68412000D01*
X143837107Y-68355720D01*
X143837106Y-68355719D01*
X143802657Y-68341450D01*
X143782811Y-68333230D01*
X143762536Y-68319682D01*
X143503406Y-68060552D01*
X143485100Y-68016358D01*
X143485100Y-67872000D01*
X143994160Y-67872000D01*
X144107052Y-68144546D01*
X144107053Y-68144547D01*
X144379600Y-68257440D01*
X144419059Y-68241094D01*
X144466892Y-68241094D01*
X144500718Y-68274918D01*
X144500718Y-68274919D01*
X144615052Y-68550946D01*
X144615053Y-68550947D01*
X144887599Y-68663840D01*
X144887600Y-68663840D01*
X144887601Y-68663840D01*
X145075237Y-68586118D01*
X145160147Y-68550947D01*
X145273040Y-68278400D01*
X145271598Y-68274919D01*
X145160147Y-68005853D01*
X145160146Y-68005852D01*
X144887601Y-67892960D01*
X144887600Y-67892960D01*
X144848140Y-67909304D01*
X144800304Y-67909303D01*
X144766481Y-67875479D01*
X144763714Y-67868800D01*
X144652147Y-67599453D01*
X144652146Y-67599452D01*
X144379601Y-67486560D01*
X144379599Y-67486560D01*
X144107053Y-67599452D01*
X144107052Y-67599453D01*
X143994160Y-67871999D01*
X143994160Y-67872000D01*
X143485100Y-67872000D01*
X143485100Y-67015667D01*
X143503405Y-66971474D01*
X143618879Y-66856000D01*
X143994160Y-66856000D01*
X144107052Y-67128546D01*
X144107053Y-67128547D01*
X144379599Y-67241440D01*
X144379600Y-67241440D01*
X144379601Y-67241440D01*
X144515873Y-67184993D01*
X144652147Y-67128547D01*
X144765040Y-66856000D01*
X144760600Y-66845282D01*
X144652147Y-66583453D01*
X144652146Y-66583452D01*
X144379601Y-66470560D01*
X144379599Y-66470560D01*
X144107053Y-66583452D01*
X144107052Y-66583453D01*
X143994160Y-66855999D01*
X143994160Y-66856000D01*
X143618879Y-66856000D01*
X144559776Y-65915102D01*
X144603970Y-65896797D01*
X144648164Y-65915103D01*
X144675395Y-65942334D01*
X144688942Y-65962607D01*
X144711434Y-66016907D01*
X144844714Y-66072113D01*
X144898761Y-66094500D01*
X144964540Y-66121747D01*
X144964541Y-66121747D01*
X144964542Y-66121747D01*
X145018834Y-66099258D01*
X145042752Y-66094500D01*
X147034399Y-66094500D01*
X147058317Y-66099258D01*
X147112609Y-66121747D01*
X147112610Y-66121747D01*
X147112611Y-66121747D01*
X147166903Y-66099258D01*
X147190821Y-66094500D01*
X147847200Y-66094500D01*
X147891394Y-66112806D01*
X147909700Y-66157000D01*
X147909700Y-67995130D01*
X147891394Y-68039324D01*
X147807862Y-68122855D01*
X147787586Y-68136403D01*
X147733292Y-68158892D01*
X147706045Y-68224673D01*
X147628452Y-68412000D01*
X147643010Y-68447144D01*
X147650608Y-68465488D01*
X147650942Y-68466293D01*
X147655700Y-68490211D01*
X147655700Y-69275515D01*
X147637394Y-69319709D01*
X147593200Y-69338015D01*
X147549006Y-69319709D01*
X147535458Y-69299433D01*
X147462647Y-69123653D01*
X147462646Y-69123652D01*
X147190101Y-69010760D01*
X147190099Y-69010760D01*
X146917553Y-69123652D01*
X146917552Y-69123653D01*
X146804660Y-69396199D01*
X146804660Y-69396200D01*
X146917552Y-69668746D01*
X146917553Y-69668747D01*
X147190099Y-69781640D01*
X147190100Y-69781640D01*
X147190101Y-69781640D01*
X147364031Y-69709595D01*
X147462647Y-69668747D01*
X147535458Y-69492965D01*
X147569282Y-69459142D01*
X147617118Y-69459142D01*
X147650942Y-69492966D01*
X147655700Y-69516884D01*
X147655700Y-69632234D01*
X147650942Y-69656152D01*
X147565760Y-69861799D01*
X147565760Y-69861800D01*
X147678652Y-70134346D01*
X147678653Y-70134347D01*
X147951199Y-70247240D01*
X147951200Y-70247240D01*
X147951201Y-70247240D01*
X148087473Y-70190793D01*
X148223747Y-70134347D01*
X148336640Y-69861800D01*
X148336640Y-69861799D01*
X148336640Y-69857637D01*
X148341399Y-69833717D01*
X148344347Y-69826600D01*
X148321857Y-69772303D01*
X148317100Y-69748386D01*
X148317100Y-69733513D01*
X148335406Y-69689319D01*
X148379600Y-69671013D01*
X148423794Y-69689319D01*
X148437342Y-69709595D01*
X148498252Y-69856646D01*
X148498253Y-69856647D01*
X148770799Y-69969540D01*
X148770800Y-69969540D01*
X148770801Y-69969540D01*
X148907073Y-69913093D01*
X149043347Y-69856647D01*
X149156240Y-69584100D01*
X149156240Y-69584099D01*
X149153228Y-69576827D01*
X151060183Y-69576827D01*
X151173075Y-69849373D01*
X151173076Y-69849374D01*
X151445622Y-69962267D01*
X151445623Y-69962267D01*
X151535485Y-69925043D01*
X151583320Y-69925043D01*
X151617145Y-69958868D01*
X151686452Y-70126190D01*
X151686453Y-70126191D01*
X151958999Y-70239084D01*
X151959000Y-70239084D01*
X151959001Y-70239084D01*
X152095273Y-70182637D01*
X152231547Y-70126191D01*
X152344440Y-69853644D01*
X152342671Y-69849374D01*
X152231547Y-69581097D01*
X152231546Y-69581096D01*
X151959001Y-69468204D01*
X151959000Y-69468204D01*
X151869136Y-69505426D01*
X151821301Y-69505425D01*
X151787477Y-69471601D01*
X151718170Y-69304280D01*
X151718169Y-69304279D01*
X151445624Y-69191387D01*
X151445622Y-69191387D01*
X151173076Y-69304279D01*
X151173075Y-69304280D01*
X151060183Y-69576826D01*
X151060183Y-69576827D01*
X149153228Y-69576827D01*
X149119482Y-69495358D01*
X149119481Y-69447522D01*
X149153306Y-69413698D01*
X149164095Y-69411551D01*
X149170399Y-69408939D01*
X149170400Y-69408940D01*
X149442947Y-69296047D01*
X149555840Y-69023500D01*
X149534324Y-68971557D01*
X149467666Y-68810630D01*
X149467665Y-68762794D01*
X149501489Y-68728970D01*
X149698547Y-68647347D01*
X149811440Y-68374800D01*
X149803536Y-68355719D01*
X149698547Y-68102253D01*
X149698546Y-68102252D01*
X149426001Y-67989360D01*
X149425999Y-67989360D01*
X149153453Y-68102252D01*
X149153452Y-68102253D01*
X149040560Y-68374799D01*
X149040560Y-68374800D01*
X149128733Y-68587668D01*
X149128734Y-68635504D01*
X149094909Y-68669328D01*
X148897853Y-68750952D01*
X148897852Y-68750952D01*
X148784960Y-69023499D01*
X148784960Y-69023500D01*
X148821718Y-69112242D01*
X148821719Y-69160078D01*
X148787894Y-69193902D01*
X148777104Y-69196048D01*
X148498253Y-69311552D01*
X148498252Y-69311553D01*
X148437342Y-69458604D01*
X148403518Y-69492429D01*
X148355682Y-69492428D01*
X148321857Y-69458604D01*
X148317100Y-69434686D01*
X148317100Y-68574868D01*
X148335405Y-68530675D01*
X148418938Y-68447141D01*
X148439208Y-68433597D01*
X148493507Y-68411107D01*
X148571100Y-68223780D01*
X148598347Y-68158000D01*
X148575857Y-68103703D01*
X148571100Y-68079786D01*
X148571100Y-66433668D01*
X148589406Y-66389474D01*
X148633600Y-66371168D01*
X148677793Y-66389473D01*
X148947472Y-66659153D01*
X149174322Y-66886003D01*
X149187870Y-66906279D01*
X149237852Y-67026946D01*
X149237853Y-67026947D01*
X149358521Y-67076929D01*
X149378795Y-67090476D01*
X149729254Y-67440934D01*
X149742801Y-67461207D01*
X149765293Y-67515507D01*
X149934994Y-67585799D01*
X149952620Y-67593100D01*
X150018399Y-67620347D01*
X150018400Y-67620347D01*
X150072692Y-67597857D01*
X150096610Y-67593100D01*
X151340052Y-67593100D01*
X151363969Y-67597857D01*
X151418263Y-67620347D01*
X151605590Y-67542754D01*
X151605590Y-67542753D01*
X151623106Y-67535498D01*
X151623106Y-67535497D01*
X151671370Y-67515507D01*
X151693860Y-67461208D01*
X151707405Y-67440937D01*
X152426136Y-66722205D01*
X152446406Y-66708661D01*
X152500707Y-66686170D01*
X152544253Y-66581040D01*
X152605548Y-66433063D01*
X152597406Y-66413406D01*
X152583057Y-66378763D01*
X152578300Y-66354846D01*
X152578300Y-65430400D01*
X152904057Y-65430400D01*
X153016949Y-65702946D01*
X153016950Y-65702947D01*
X153289496Y-65815840D01*
X153289497Y-65815840D01*
X153289498Y-65815840D01*
X153465782Y-65742820D01*
X153562044Y-65702947D01*
X153674937Y-65430400D01*
X153666003Y-65408832D01*
X153592094Y-65230400D01*
X155373360Y-65230400D01*
X155486252Y-65502946D01*
X155486253Y-65502947D01*
X155758799Y-65615840D01*
X155758800Y-65615840D01*
X155758801Y-65615840D01*
X155946864Y-65537941D01*
X156031347Y-65502947D01*
X156144240Y-65230400D01*
X156140807Y-65222113D01*
X156031347Y-64957853D01*
X156031346Y-64957852D01*
X155758801Y-64844960D01*
X155758799Y-64844960D01*
X155486253Y-64957852D01*
X155486252Y-64957853D01*
X155373360Y-65230399D01*
X155373360Y-65230400D01*
X153592094Y-65230400D01*
X153562044Y-65157853D01*
X153562043Y-65157852D01*
X153289498Y-65044960D01*
X153289496Y-65044960D01*
X153016950Y-65157852D01*
X153016949Y-65157853D01*
X152904057Y-65430399D01*
X152904057Y-65430400D01*
X152578300Y-65430400D01*
X152578300Y-65421805D01*
X152596606Y-65377611D01*
X153222015Y-64752202D01*
X153852430Y-64121786D01*
X153896623Y-64103481D01*
X153940817Y-64121787D01*
X153954365Y-64142063D01*
X154013052Y-64283746D01*
X154013052Y-64283747D01*
X154285599Y-64396640D01*
X154285600Y-64396640D01*
X154380820Y-64357197D01*
X154428654Y-64357197D01*
X154462479Y-64391022D01*
X154462480Y-64438857D01*
X154408160Y-64570000D01*
X154521052Y-64842546D01*
X154521053Y-64842547D01*
X154793599Y-64955440D01*
X154793600Y-64955440D01*
X154793601Y-64955440D01*
X154929873Y-64898993D01*
X155066147Y-64842547D01*
X155179040Y-64570000D01*
X155175877Y-64562365D01*
X155066147Y-64297453D01*
X155066146Y-64297452D01*
X154793601Y-64184560D01*
X154793600Y-64184560D01*
X154698378Y-64224001D01*
X154650543Y-64224000D01*
X154616718Y-64190175D01*
X154616718Y-64142341D01*
X154671040Y-64011200D01*
X154657680Y-63978947D01*
X154591311Y-63818718D01*
X154591310Y-63770882D01*
X154625135Y-63737058D01*
X154649053Y-63732300D01*
X155703615Y-63732300D01*
X155727532Y-63737057D01*
X155745613Y-63744547D01*
X155848199Y-63787040D01*
X155848200Y-63787040D01*
X155848201Y-63787040D01*
X156022008Y-63715046D01*
X156120747Y-63674147D01*
X156233640Y-63401600D01*
X156232314Y-63398399D01*
X156120747Y-63129053D01*
X156120746Y-63129052D01*
X155848201Y-63016160D01*
X155848199Y-63016160D01*
X155781826Y-63043653D01*
X155731384Y-63064547D01*
X155727533Y-63066142D01*
X155703615Y-63070900D01*
X154183148Y-63070900D01*
X154159230Y-63066142D01*
X154155379Y-63064547D01*
X154150008Y-63062322D01*
X154104938Y-63043653D01*
X154104936Y-63043653D01*
X154059866Y-63062322D01*
X154039157Y-63070900D01*
X153906491Y-63125852D01*
X153851828Y-63148494D01*
X153829340Y-63202786D01*
X153815792Y-63223062D01*
X152069062Y-64969792D01*
X152048786Y-64983340D01*
X151994492Y-65005829D01*
X151967245Y-65071610D01*
X151889652Y-65258937D01*
X151912142Y-65313230D01*
X151916900Y-65337148D01*
X151916900Y-66270194D01*
X151898594Y-66314388D01*
X151624194Y-66588788D01*
X151580000Y-66607094D01*
X151535806Y-66588788D01*
X151517500Y-66544594D01*
X151517500Y-66223013D01*
X151522258Y-66199095D01*
X151544748Y-66144800D01*
X151544748Y-66144799D01*
X151464801Y-65951793D01*
X151464796Y-65951782D01*
X151449763Y-65915488D01*
X151439907Y-65891693D01*
X151439906Y-65891692D01*
X151405457Y-65877423D01*
X151385611Y-65869203D01*
X151365336Y-65855655D01*
X149690146Y-64180465D01*
X149676597Y-64160188D01*
X149654109Y-64105895D01*
X149534019Y-64056152D01*
X149439962Y-64017192D01*
X149401003Y-64001055D01*
X149401001Y-64001055D01*
X149355196Y-64020028D01*
X149347057Y-64023400D01*
X149346709Y-64023544D01*
X149322791Y-64028302D01*
X146423103Y-64028302D01*
X146399185Y-64023544D01*
X146398837Y-64023400D01*
X146390697Y-64020028D01*
X146344893Y-64001055D01*
X146344891Y-64001055D01*
X146291299Y-64023254D01*
X146279112Y-64028302D01*
X146211874Y-64056153D01*
X146091783Y-64105896D01*
X146069294Y-64160190D01*
X146055746Y-64180466D01*
X145819958Y-64416254D01*
X145799682Y-64429802D01*
X145745387Y-64452291D01*
X145745387Y-64452292D01*
X145718140Y-64518072D01*
X145653254Y-64674723D01*
X145640548Y-64705399D01*
X145659934Y-64752202D01*
X145663037Y-64759692D01*
X145667795Y-64783610D01*
X145667795Y-65094681D01*
X145663038Y-65118598D01*
X145640548Y-65172895D01*
X145640548Y-65173278D01*
X145645160Y-65196460D01*
X145645160Y-65205001D01*
X145703846Y-65346682D01*
X145703846Y-65394518D01*
X145670022Y-65428342D01*
X145646104Y-65433100D01*
X145127409Y-65433100D01*
X145083215Y-65414794D01*
X144893114Y-65224693D01*
X144879565Y-65204416D01*
X144874669Y-65192595D01*
X144857077Y-65150123D01*
X144857076Y-65150122D01*
X144822627Y-65135853D01*
X144802781Y-65127633D01*
X144782506Y-65114085D01*
X144679019Y-65010597D01*
X144665472Y-64990323D01*
X144615490Y-64869655D01*
X144615489Y-64869654D01*
X144615489Y-64869653D01*
X144494821Y-64819671D01*
X144474545Y-64806123D01*
X143859006Y-64190583D01*
X143840700Y-64146389D01*
X143840700Y-63561268D01*
X143859006Y-63517074D01*
X143933580Y-63442500D01*
X149909360Y-63442500D01*
X150022252Y-63715046D01*
X150022253Y-63715047D01*
X150294799Y-63827940D01*
X150294800Y-63827940D01*
X150294801Y-63827940D01*
X150510357Y-63738653D01*
X150567347Y-63715047D01*
X150570929Y-63706400D01*
X151766560Y-63706400D01*
X151879452Y-63978946D01*
X151879453Y-63978947D01*
X152151999Y-64091840D01*
X152152000Y-64091840D01*
X152152001Y-64091840D01*
X152305394Y-64028302D01*
X152424547Y-63978947D01*
X152537440Y-63706400D01*
X152524080Y-63674147D01*
X152424547Y-63433853D01*
X152424546Y-63433852D01*
X152152001Y-63320960D01*
X152151999Y-63320960D01*
X151879453Y-63433852D01*
X151879452Y-63433853D01*
X151766560Y-63706399D01*
X151766560Y-63706400D01*
X150570929Y-63706400D01*
X150680240Y-63442500D01*
X150676658Y-63433853D01*
X150567347Y-63169953D01*
X150567346Y-63169952D01*
X150294801Y-63057060D01*
X150294799Y-63057060D01*
X150022253Y-63169952D01*
X150022252Y-63169953D01*
X149909360Y-63442499D01*
X149909360Y-63442500D01*
X143933580Y-63442500D01*
X144250228Y-63125852D01*
X144634879Y-62741200D01*
X145721360Y-62741200D01*
X145834252Y-63013746D01*
X145834253Y-63013747D01*
X146106799Y-63126640D01*
X146106800Y-63126640D01*
X146106801Y-63126640D01*
X146274780Y-63057060D01*
X146379347Y-63013747D01*
X146471198Y-62792000D01*
X147448560Y-62792000D01*
X147561452Y-63064546D01*
X147561453Y-63064547D01*
X147833999Y-63177440D01*
X147834000Y-63177440D01*
X147834001Y-63177440D01*
X147970273Y-63120993D01*
X148106547Y-63064547D01*
X148163917Y-62926040D01*
X148197742Y-62892216D01*
X148245575Y-62892215D01*
X148245578Y-62892216D01*
X148443599Y-62974240D01*
X148443600Y-62974240D01*
X148443601Y-62974240D01*
X148579873Y-62917793D01*
X148716147Y-62861347D01*
X148829040Y-62588800D01*
X148827085Y-62584081D01*
X148716147Y-62316253D01*
X148716146Y-62316252D01*
X148443601Y-62203360D01*
X148443599Y-62203360D01*
X148171053Y-62316252D01*
X148171052Y-62316253D01*
X148113681Y-62454759D01*
X148079856Y-62488584D01*
X148032021Y-62488583D01*
X147834001Y-62406560D01*
X147833999Y-62406560D01*
X147561453Y-62519452D01*
X147561452Y-62519453D01*
X147448560Y-62791999D01*
X147448560Y-62792000D01*
X146471198Y-62792000D01*
X146492240Y-62741200D01*
X146481944Y-62716344D01*
X146379347Y-62468653D01*
X146379346Y-62468652D01*
X146106801Y-62355760D01*
X146106799Y-62355760D01*
X145834253Y-62468652D01*
X145834252Y-62468653D01*
X145721360Y-62741199D01*
X145721360Y-62741200D01*
X144634879Y-62741200D01*
X144659738Y-62716341D01*
X144680008Y-62702797D01*
X144734307Y-62680307D01*
X144811900Y-62492980D01*
X144839147Y-62427200D01*
X144830598Y-62406560D01*
X144816657Y-62372903D01*
X144811900Y-62348986D01*
X144811900Y-59445811D01*
X144816658Y-59421893D01*
X144839147Y-59367600D01*
X144839147Y-59367599D01*
X144811900Y-59301820D01*
X144762210Y-59181858D01*
X144762210Y-59134022D01*
X144796034Y-59100198D01*
X144843870Y-59100198D01*
X144864146Y-59113746D01*
X145288000Y-59537600D01*
X146380005Y-59537600D01*
X146423843Y-59555553D01*
X149606000Y-62687200D01*
X153162000Y-62534800D01*
X153370458Y-61816774D01*
X153400360Y-61779439D01*
X153447906Y-61774180D01*
X153454379Y-61776453D01*
X153517600Y-61802640D01*
X153790147Y-61689747D01*
X153903040Y-61417200D01*
X153885457Y-61374752D01*
X153790147Y-61144653D01*
X153790146Y-61144652D01*
X153641404Y-61083041D01*
X153607579Y-61049217D01*
X153605301Y-61007873D01*
X153615511Y-60972707D01*
X153627722Y-60949879D01*
X154423687Y-60004670D01*
X154443539Y-59989030D01*
X155337994Y-59541802D01*
X155355670Y-59536055D01*
X155593573Y-59496404D01*
X155640173Y-59507196D01*
X155664664Y-59543650D01*
X156007507Y-60991210D01*
X155999879Y-61038433D01*
X155970607Y-61063356D01*
X155731852Y-61162252D01*
X155731852Y-61162253D01*
X155701574Y-61235349D01*
X155667749Y-61269174D01*
X155619914Y-61269173D01*
X155586090Y-61235349D01*
X155545747Y-61137953D01*
X155545746Y-61137952D01*
X155273201Y-61025060D01*
X155273199Y-61025060D01*
X155000653Y-61137952D01*
X155000652Y-61137953D01*
X154967811Y-61217237D01*
X154933986Y-61251062D01*
X154886151Y-61251061D01*
X154852328Y-61217239D01*
X154776947Y-61035253D01*
X154776945Y-61035252D01*
X154504401Y-60922360D01*
X154504399Y-60922360D01*
X154231853Y-61035252D01*
X154231852Y-61035253D01*
X154118960Y-61307799D01*
X154118960Y-61307800D01*
X154231852Y-61580346D01*
X154231853Y-61580347D01*
X154504399Y-61693240D01*
X154504400Y-61693240D01*
X154504401Y-61693240D01*
X154640824Y-61636731D01*
X154776947Y-61580347D01*
X154809788Y-61501060D01*
X154843612Y-61467238D01*
X154891448Y-61467237D01*
X154925272Y-61501062D01*
X155000652Y-61683046D01*
X155000653Y-61683047D01*
X155273199Y-61795940D01*
X155273200Y-61795940D01*
X155273201Y-61795940D01*
X155411759Y-61738547D01*
X155545747Y-61683047D01*
X155576025Y-61609948D01*
X155609849Y-61576125D01*
X155657684Y-61576124D01*
X155691509Y-61609949D01*
X155731852Y-61707346D01*
X155731853Y-61707347D01*
X156004399Y-61820240D01*
X156004400Y-61820240D01*
X156108539Y-61777103D01*
X156156372Y-61777103D01*
X156190197Y-61810928D01*
X156193614Y-61821970D01*
X156311598Y-62382398D01*
X156311600Y-62382400D01*
X156474595Y-62581617D01*
X156488413Y-62627413D01*
X156477672Y-62650079D01*
X156478610Y-62650468D01*
X156360960Y-62934499D01*
X156360960Y-62934500D01*
X156473852Y-63207046D01*
X156473853Y-63207047D01*
X156681897Y-63293222D01*
X156715721Y-63327046D01*
X156720056Y-63358220D01*
X156314121Y-66831223D01*
X156296238Y-66868161D01*
X155974306Y-67190094D01*
X155930112Y-67208400D01*
X155295600Y-67208400D01*
X154330400Y-68173599D01*
X154330399Y-68173601D01*
X154431999Y-71272396D01*
X154432000Y-71272400D01*
X155351799Y-73068198D01*
X155355653Y-73115877D01*
X155353914Y-73120606D01*
X155311044Y-73224106D01*
X155412543Y-73469146D01*
X155412544Y-73516982D01*
X155403398Y-73530670D01*
X155290998Y-73802026D01*
X155257174Y-73835851D01*
X155233256Y-73840608D01*
X155221716Y-73840608D01*
X154949170Y-73953500D01*
X154949169Y-73953501D01*
X154836277Y-74226047D01*
X154836277Y-74226048D01*
X154928455Y-74448587D01*
X154928455Y-74496423D01*
X154894633Y-74530247D01*
X154886092Y-74533784D01*
X154773200Y-74806331D01*
X154773200Y-74806332D01*
X154886092Y-75078878D01*
X154886093Y-75078879D01*
X155158639Y-75191772D01*
X155158640Y-75191772D01*
X155158641Y-75191772D01*
X155294913Y-75135325D01*
X155431187Y-75078879D01*
X155544080Y-74806332D01*
X155451899Y-74583790D01*
X155451899Y-74535957D01*
X155485723Y-74502132D01*
X155494264Y-74498595D01*
X155572648Y-74309360D01*
X155605119Y-74230970D01*
X155638943Y-74197145D01*
X155662861Y-74192388D01*
X155674401Y-74192388D01*
X155717977Y-74174337D01*
X155830024Y-74127925D01*
X155877857Y-74127925D01*
X155909568Y-74157176D01*
X156201327Y-74726800D01*
X156381659Y-75078878D01*
X156527354Y-75363329D01*
X156531208Y-75411009D01*
X156500218Y-75447449D01*
X156483107Y-75453276D01*
X155625180Y-75612151D01*
X155578391Y-75602199D01*
X155556058Y-75574616D01*
X155492947Y-75422253D01*
X155491407Y-75421615D01*
X155220401Y-75309360D01*
X155220399Y-75309360D01*
X154947853Y-75422252D01*
X154947852Y-75422253D01*
X154852101Y-75653418D01*
X154818277Y-75687242D01*
X154794359Y-75692000D01*
X154661088Y-75692000D01*
X154616894Y-75673694D01*
X153212800Y-74269600D01*
X148996400Y-74269600D01*
X148996400Y-75411089D01*
X148978094Y-75455283D01*
X148976850Y-75456493D01*
X147165153Y-77170259D01*
X147120468Y-77187331D01*
X147076799Y-77167805D01*
X147074189Y-77164866D01*
X146877286Y-76928582D01*
X146862800Y-76888571D01*
X146862800Y-74269600D01*
X140919200Y-74269600D01*
X140919198Y-74269600D01*
X140757201Y-74530596D01*
X140728017Y-74555378D01*
X140568253Y-74621555D01*
X140568252Y-74621555D01*
X140455360Y-74894102D01*
X140455360Y-74894103D01*
X140463687Y-74914206D01*
X140473592Y-74938120D01*
X140473591Y-74985955D01*
X140468952Y-74994997D01*
X140187273Y-75448813D01*
X140148413Y-75476709D01*
X140110253Y-75473596D01*
X139960000Y-75411360D01*
X139809750Y-75473596D01*
X139766837Y-75491371D01*
X139719001Y-75491370D01*
X139685176Y-75457546D01*
X139685176Y-75409711D01*
X139710308Y-75349040D01*
X139706816Y-75340610D01*
X139597415Y-75076493D01*
X139597414Y-75076492D01*
X139324869Y-74963600D01*
X139324867Y-74963600D01*
X139052321Y-75076492D01*
X139052320Y-75076493D01*
X138939428Y-75349039D01*
X138939428Y-75349040D01*
X139052320Y-75621586D01*
X139052321Y-75621587D01*
X139324867Y-75734480D01*
X139324868Y-75734480D01*
X139324869Y-75734480D01*
X139438910Y-75687242D01*
X139518031Y-75654468D01*
X139565865Y-75654468D01*
X139599690Y-75688293D01*
X139599691Y-75736128D01*
X139574560Y-75796800D01*
X139638558Y-75951305D01*
X139638559Y-75999141D01*
X139617692Y-76025685D01*
X138760476Y-76652113D01*
X138713993Y-76663408D01*
X138673138Y-76638527D01*
X138662701Y-76615705D01*
X138482244Y-75833725D01*
X138490143Y-75786549D01*
X138519221Y-75761934D01*
X138708947Y-75683347D01*
X138821840Y-75410800D01*
X138792766Y-75340610D01*
X138708947Y-75138253D01*
X138708946Y-75138252D01*
X138424914Y-75020602D01*
X138425690Y-75018728D01*
X138397506Y-75007054D01*
X138379200Y-74962860D01*
X138379200Y-74742323D01*
X138386462Y-74713081D01*
X138656062Y-74203837D01*
X139622860Y-74203837D01*
X139735752Y-74476383D01*
X139735753Y-74476384D01*
X140008299Y-74589277D01*
X140008300Y-74589277D01*
X140008301Y-74589277D01*
X140153210Y-74529253D01*
X140280847Y-74476384D01*
X140393740Y-74203837D01*
X140374412Y-74157176D01*
X140280847Y-73931290D01*
X140280846Y-73931289D01*
X140008301Y-73818397D01*
X140008299Y-73818397D01*
X139735753Y-73931289D01*
X139735752Y-73931290D01*
X139622860Y-74203836D01*
X139622860Y-74203837D01*
X138656062Y-74203837D01*
X139130828Y-73307056D01*
X139167682Y-73276567D01*
X139209979Y-73278560D01*
X139260208Y-73299366D01*
X139344399Y-73334240D01*
X139344400Y-73334240D01*
X139344401Y-73334240D01*
X139483635Y-73276567D01*
X139616947Y-73221347D01*
X139729840Y-72948800D01*
X139693976Y-72862218D01*
X139616947Y-72676253D01*
X139616946Y-72676252D01*
X139332914Y-72558602D01*
X139334627Y-72554465D01*
X139311906Y-72545054D01*
X139293600Y-72500860D01*
X139293600Y-71729600D01*
X139293524Y-71715899D01*
X139288330Y-70780995D01*
X141257160Y-70780995D01*
X141370052Y-71053541D01*
X141370053Y-71053542D01*
X141642599Y-71166435D01*
X141642600Y-71166435D01*
X141642601Y-71166435D01*
X141831707Y-71088104D01*
X141915147Y-71053542D01*
X142028040Y-70780995D01*
X142023885Y-70770965D01*
X141915147Y-70508448D01*
X141915146Y-70508447D01*
X141642601Y-70395555D01*
X141642599Y-70395555D01*
X141370053Y-70508447D01*
X141370052Y-70508448D01*
X141257160Y-70780994D01*
X141257160Y-70780995D01*
X139288330Y-70780995D01*
X139282929Y-69808879D01*
X139300988Y-69764588D01*
X139345080Y-69746037D01*
X139357612Y-69747236D01*
X139485400Y-69772655D01*
X139485401Y-69772655D01*
X139619216Y-69746037D01*
X139671711Y-69735595D01*
X139804493Y-69646871D01*
X139815288Y-69641102D01*
X139833259Y-69633659D01*
X139840702Y-69615688D01*
X139846471Y-69604893D01*
X139935195Y-69472111D01*
X139966350Y-69315481D01*
X139969905Y-69303764D01*
X139977347Y-69285800D01*
X140343453Y-69285800D01*
X140350893Y-69303761D01*
X140350894Y-69303764D01*
X140354450Y-69315488D01*
X140385604Y-69472110D01*
X140385605Y-69472112D01*
X140474324Y-69604888D01*
X140480097Y-69615689D01*
X140486951Y-69632234D01*
X140487541Y-69633659D01*
X140505507Y-69641101D01*
X140516312Y-69646876D01*
X140649087Y-69735594D01*
X140649089Y-69735595D01*
X140835399Y-69772655D01*
X140835400Y-69772655D01*
X140835401Y-69772655D01*
X140969216Y-69746037D01*
X141021711Y-69735595D01*
X141154493Y-69646871D01*
X141165288Y-69641102D01*
X141183259Y-69633659D01*
X141190702Y-69615688D01*
X141196471Y-69604893D01*
X141285195Y-69472111D01*
X141316350Y-69315481D01*
X141319905Y-69303764D01*
X141327347Y-69285800D01*
X141319902Y-69267829D01*
X141316350Y-69256117D01*
X141286666Y-69106882D01*
X141516698Y-69106882D01*
X141629590Y-69379428D01*
X141629591Y-69379429D01*
X141902137Y-69492322D01*
X141902138Y-69492322D01*
X141902139Y-69492322D01*
X142041283Y-69434686D01*
X142174685Y-69379429D01*
X142213997Y-69284519D01*
X142247821Y-69250697D01*
X142295653Y-69250696D01*
X142425016Y-69304280D01*
X142552287Y-69356998D01*
X142552288Y-69356998D01*
X142552289Y-69356998D01*
X142719945Y-69287552D01*
X142824835Y-69244105D01*
X142937728Y-68971558D01*
X142935720Y-68966711D01*
X142824835Y-68699011D01*
X142824834Y-68699010D01*
X142552289Y-68586118D01*
X142552287Y-68586118D01*
X142279740Y-68699010D01*
X142279740Y-68699011D01*
X142240428Y-68793917D01*
X142206603Y-68827742D01*
X142158768Y-68827741D01*
X141902139Y-68721442D01*
X141902137Y-68721442D01*
X141629591Y-68834334D01*
X141629590Y-68834335D01*
X141516698Y-69106881D01*
X141516698Y-69106882D01*
X141286666Y-69106882D01*
X141285195Y-69099489D01*
X141285194Y-69099487D01*
X141196476Y-68966712D01*
X141190701Y-68955907D01*
X141183259Y-68937941D01*
X141183257Y-68937940D01*
X141165289Y-68930497D01*
X141154487Y-68924723D01*
X141136591Y-68912765D01*
X141110016Y-68872991D01*
X141119349Y-68826075D01*
X141136588Y-68808835D01*
X141154493Y-68796871D01*
X141165288Y-68791102D01*
X141183259Y-68783659D01*
X141190702Y-68765688D01*
X141196471Y-68754893D01*
X141285195Y-68622111D01*
X141316350Y-68465481D01*
X141319905Y-68453764D01*
X141327347Y-68435800D01*
X141319902Y-68417829D01*
X141316350Y-68406117D01*
X141285195Y-68249489D01*
X141285194Y-68249487D01*
X141196476Y-68116712D01*
X141190701Y-68105907D01*
X141183259Y-68087941D01*
X141183257Y-68087940D01*
X141165289Y-68080497D01*
X141154487Y-68074723D01*
X141136591Y-68062765D01*
X141110016Y-68022991D01*
X141119349Y-67976075D01*
X141136588Y-67958835D01*
X141154493Y-67946871D01*
X141165288Y-67941102D01*
X141183259Y-67933659D01*
X141190702Y-67915688D01*
X141196471Y-67904893D01*
X141285195Y-67772111D01*
X141316350Y-67615481D01*
X141319905Y-67603764D01*
X141327347Y-67585800D01*
X141319902Y-67567829D01*
X141316350Y-67556117D01*
X141285195Y-67399489D01*
X141285194Y-67399487D01*
X141196476Y-67266712D01*
X141190701Y-67255907D01*
X141183259Y-67237941D01*
X141183257Y-67237940D01*
X141165289Y-67230497D01*
X141154487Y-67224723D01*
X141136591Y-67212765D01*
X141110016Y-67172991D01*
X141119349Y-67126075D01*
X141136588Y-67108835D01*
X141154493Y-67096871D01*
X141165288Y-67091102D01*
X141183259Y-67083659D01*
X141190702Y-67065688D01*
X141196471Y-67054893D01*
X141285195Y-66922111D01*
X141316350Y-66765481D01*
X141319905Y-66753764D01*
X141327347Y-66735800D01*
X141319902Y-66717829D01*
X141316350Y-66706117D01*
X141285195Y-66549489D01*
X141285194Y-66549487D01*
X141196476Y-66416712D01*
X141190701Y-66405907D01*
X141183259Y-66387941D01*
X141183257Y-66387940D01*
X141165289Y-66380497D01*
X141154487Y-66374723D01*
X141136591Y-66362765D01*
X141110016Y-66322991D01*
X141119349Y-66276075D01*
X141136588Y-66258835D01*
X141154493Y-66246871D01*
X141165288Y-66241102D01*
X141183259Y-66233659D01*
X141190702Y-66215688D01*
X141196471Y-66204893D01*
X141285195Y-66072111D01*
X141316350Y-65915481D01*
X141319905Y-65903764D01*
X141327347Y-65885800D01*
X141319902Y-65867829D01*
X141316350Y-65856117D01*
X141285195Y-65699489D01*
X141285194Y-65699487D01*
X141196476Y-65566712D01*
X141190701Y-65555907D01*
X141183259Y-65537941D01*
X141183257Y-65537940D01*
X141165289Y-65530497D01*
X141154487Y-65524723D01*
X141136591Y-65512765D01*
X141110016Y-65472991D01*
X141119349Y-65426075D01*
X141136588Y-65408835D01*
X141154493Y-65396871D01*
X141165288Y-65391102D01*
X141183259Y-65383659D01*
X141190702Y-65365688D01*
X141196471Y-65354893D01*
X141285195Y-65222111D01*
X141316350Y-65065481D01*
X141319905Y-65053764D01*
X141327347Y-65035800D01*
X141319902Y-65017829D01*
X141316350Y-65006117D01*
X141285195Y-64849489D01*
X141285194Y-64849487D01*
X141196476Y-64716712D01*
X141190701Y-64705907D01*
X141183259Y-64687941D01*
X141183257Y-64687940D01*
X141165289Y-64680497D01*
X141154488Y-64674724D01*
X141021712Y-64586005D01*
X141021710Y-64586004D01*
X140835401Y-64548945D01*
X140835399Y-64548945D01*
X140649089Y-64586004D01*
X140649087Y-64586005D01*
X140516311Y-64674723D01*
X140505509Y-64680497D01*
X140487541Y-64687940D01*
X140487540Y-64687941D01*
X140480097Y-64705909D01*
X140474323Y-64716711D01*
X140385605Y-64849487D01*
X140385605Y-64849488D01*
X140354450Y-65006111D01*
X140350894Y-65017832D01*
X140343453Y-65035798D01*
X140343453Y-65035799D01*
X140343453Y-65035800D01*
X140350893Y-65053761D01*
X140350894Y-65053764D01*
X140354450Y-65065488D01*
X140385604Y-65222110D01*
X140385605Y-65222112D01*
X140474324Y-65354888D01*
X140480097Y-65365689D01*
X140485036Y-65377611D01*
X140487541Y-65383659D01*
X140505507Y-65391101D01*
X140516311Y-65396876D01*
X140534205Y-65408832D01*
X140560782Y-65448605D01*
X140551450Y-65495521D01*
X140534206Y-65512766D01*
X140516311Y-65524723D01*
X140505509Y-65530497D01*
X140487541Y-65537940D01*
X140487540Y-65537941D01*
X140480097Y-65555909D01*
X140474323Y-65566711D01*
X140385605Y-65699487D01*
X140385605Y-65699488D01*
X140354450Y-65856111D01*
X140350894Y-65867832D01*
X140343453Y-65885798D01*
X140343453Y-65885799D01*
X140350894Y-65903764D01*
X140354450Y-65915488D01*
X140385604Y-66072110D01*
X140385605Y-66072112D01*
X140474324Y-66204888D01*
X140480097Y-66215689D01*
X140483131Y-66223013D01*
X140487541Y-66233659D01*
X140505507Y-66241101D01*
X140516311Y-66246876D01*
X140534205Y-66258832D01*
X140560782Y-66298605D01*
X140551450Y-66345521D01*
X140534206Y-66362766D01*
X140516311Y-66374723D01*
X140505509Y-66380497D01*
X140487541Y-66387940D01*
X140487540Y-66387941D01*
X140480097Y-66405909D01*
X140474323Y-66416711D01*
X140385605Y-66549487D01*
X140385605Y-66549488D01*
X140354450Y-66706111D01*
X140350894Y-66717832D01*
X140343453Y-66735798D01*
X140343453Y-66735799D01*
X140350894Y-66753764D01*
X140354450Y-66765488D01*
X140385604Y-66922110D01*
X140385605Y-66922112D01*
X140474324Y-67054888D01*
X140480097Y-67065689D01*
X140486724Y-67081686D01*
X140487541Y-67083659D01*
X140505507Y-67091101D01*
X140516311Y-67096876D01*
X140534205Y-67108832D01*
X140560782Y-67148605D01*
X140551450Y-67195521D01*
X140534206Y-67212766D01*
X140516311Y-67224723D01*
X140505509Y-67230497D01*
X140487541Y-67237940D01*
X140487540Y-67237941D01*
X140480097Y-67255909D01*
X140474323Y-67266711D01*
X140385605Y-67399487D01*
X140385605Y-67399488D01*
X140354450Y-67556111D01*
X140350894Y-67567832D01*
X140343453Y-67585798D01*
X140343453Y-67585799D01*
X140350894Y-67603764D01*
X140354450Y-67615488D01*
X140385604Y-67772110D01*
X140385605Y-67772112D01*
X140474324Y-67904888D01*
X140480097Y-67915689D01*
X140487541Y-67933658D01*
X140487541Y-67933659D01*
X140505507Y-67941101D01*
X140516311Y-67946876D01*
X140534205Y-67958832D01*
X140560782Y-67998605D01*
X140551450Y-68045521D01*
X140534206Y-68062766D01*
X140516311Y-68074723D01*
X140505509Y-68080497D01*
X140487541Y-68087940D01*
X140487540Y-68087941D01*
X140480097Y-68105909D01*
X140474323Y-68116711D01*
X140385605Y-68249487D01*
X140385605Y-68249488D01*
X140354450Y-68406111D01*
X140350894Y-68417832D01*
X140343453Y-68435798D01*
X140343453Y-68435799D01*
X140343453Y-68435800D01*
X140348152Y-68447144D01*
X140350894Y-68453764D01*
X140354450Y-68465488D01*
X140385604Y-68622110D01*
X140385605Y-68622112D01*
X140474324Y-68754888D01*
X140480097Y-68765689D01*
X140482586Y-68771696D01*
X140487541Y-68783659D01*
X140505507Y-68791101D01*
X140516311Y-68796876D01*
X140534205Y-68808832D01*
X140560782Y-68848605D01*
X140551450Y-68895521D01*
X140534206Y-68912766D01*
X140516311Y-68924723D01*
X140505509Y-68930497D01*
X140487541Y-68937940D01*
X140487540Y-68937941D01*
X140480097Y-68955909D01*
X140474323Y-68966711D01*
X140385605Y-69099487D01*
X140385605Y-69099488D01*
X140354450Y-69256111D01*
X140350894Y-69267832D01*
X140343453Y-69285798D01*
X140343453Y-69285799D01*
X140343453Y-69285800D01*
X139977347Y-69285800D01*
X139969902Y-69267829D01*
X139966350Y-69256117D01*
X139935195Y-69099489D01*
X139935194Y-69099487D01*
X139846476Y-68966712D01*
X139840701Y-68955907D01*
X139833259Y-68937941D01*
X139833257Y-68937940D01*
X139815289Y-68930497D01*
X139804487Y-68924723D01*
X139786591Y-68912765D01*
X139760016Y-68872991D01*
X139769349Y-68826075D01*
X139786588Y-68808835D01*
X139804493Y-68796871D01*
X139815288Y-68791102D01*
X139833259Y-68783659D01*
X139840702Y-68765688D01*
X139846471Y-68754893D01*
X139935195Y-68622111D01*
X139966350Y-68465481D01*
X139969905Y-68453764D01*
X139977347Y-68435800D01*
X139969902Y-68417829D01*
X139966350Y-68406117D01*
X139935195Y-68249489D01*
X139935194Y-68249487D01*
X139846476Y-68116712D01*
X139840701Y-68105907D01*
X139833259Y-68087941D01*
X139833257Y-68087940D01*
X139815289Y-68080497D01*
X139804487Y-68074723D01*
X139786591Y-68062765D01*
X139760016Y-68022991D01*
X139769349Y-67976075D01*
X139786588Y-67958835D01*
X139804493Y-67946871D01*
X139815288Y-67941102D01*
X139833259Y-67933659D01*
X139840702Y-67915688D01*
X139846471Y-67904893D01*
X139935195Y-67772111D01*
X139966350Y-67615481D01*
X139969905Y-67603764D01*
X139977347Y-67585800D01*
X139969902Y-67567829D01*
X139966350Y-67556117D01*
X139935195Y-67399489D01*
X139935194Y-67399487D01*
X139846476Y-67266712D01*
X139840701Y-67255907D01*
X139833259Y-67237941D01*
X139833257Y-67237940D01*
X139815289Y-67230497D01*
X139804487Y-67224723D01*
X139786591Y-67212765D01*
X139760016Y-67172991D01*
X139769349Y-67126075D01*
X139786593Y-67108832D01*
X139804487Y-67096876D01*
X139815287Y-67091102D01*
X139833259Y-67083659D01*
X139840702Y-67065688D01*
X139846471Y-67054893D01*
X139935195Y-66922111D01*
X139966350Y-66765481D01*
X139969905Y-66753764D01*
X139977347Y-66735800D01*
X139969902Y-66717829D01*
X139966350Y-66706117D01*
X139935195Y-66549489D01*
X139935194Y-66549487D01*
X139846476Y-66416712D01*
X139840701Y-66405907D01*
X139833259Y-66387941D01*
X139833257Y-66387940D01*
X139815289Y-66380497D01*
X139804487Y-66374723D01*
X139786591Y-66362765D01*
X139760016Y-66322991D01*
X139769349Y-66276075D01*
X139786588Y-66258835D01*
X139804493Y-66246871D01*
X139815288Y-66241102D01*
X139833259Y-66233659D01*
X139840702Y-66215688D01*
X139846471Y-66204893D01*
X139935195Y-66072111D01*
X139966350Y-65915481D01*
X139969905Y-65903764D01*
X139977347Y-65885800D01*
X139969902Y-65867829D01*
X139966350Y-65856117D01*
X139935195Y-65699489D01*
X139935194Y-65699487D01*
X139846476Y-65566712D01*
X139840701Y-65555907D01*
X139833259Y-65537941D01*
X139833257Y-65537940D01*
X139815289Y-65530497D01*
X139804487Y-65524723D01*
X139786591Y-65512765D01*
X139760016Y-65472991D01*
X139769349Y-65426075D01*
X139786588Y-65408835D01*
X139804493Y-65396871D01*
X139815288Y-65391102D01*
X139833259Y-65383659D01*
X139840702Y-65365688D01*
X139846471Y-65354893D01*
X139935195Y-65222111D01*
X139966350Y-65065481D01*
X139969905Y-65053764D01*
X139977347Y-65035800D01*
X139969902Y-65017829D01*
X139966350Y-65006117D01*
X139935195Y-64849489D01*
X139935194Y-64849487D01*
X139846476Y-64716712D01*
X139840701Y-64705907D01*
X139833259Y-64687941D01*
X139833257Y-64687940D01*
X139815289Y-64680497D01*
X139804488Y-64674724D01*
X139671712Y-64586005D01*
X139671710Y-64586004D01*
X139485401Y-64548945D01*
X139485399Y-64548945D01*
X139328234Y-64580207D01*
X139281318Y-64570875D01*
X139254742Y-64531101D01*
X139253542Y-64519260D01*
X139250787Y-64023400D01*
X141290790Y-64023400D01*
X141403682Y-64295946D01*
X141403683Y-64295947D01*
X141676229Y-64408840D01*
X141676230Y-64408840D01*
X141676231Y-64408840D01*
X141812503Y-64352393D01*
X141948777Y-64295947D01*
X142061670Y-64023400D01*
X142061669Y-64023399D01*
X142061730Y-64023254D01*
X142095552Y-63989431D01*
X142366147Y-63877347D01*
X142479040Y-63604800D01*
X142461008Y-63561268D01*
X142366147Y-63332253D01*
X142366146Y-63332252D01*
X142093601Y-63219360D01*
X142093599Y-63219360D01*
X141821053Y-63332252D01*
X141821052Y-63332253D01*
X141708099Y-63604945D01*
X141674275Y-63638769D01*
X141403683Y-63750852D01*
X141403682Y-63750853D01*
X141290790Y-64023399D01*
X141290790Y-64023400D01*
X139250787Y-64023400D01*
X139242808Y-62587124D01*
X139242941Y-62584081D01*
X139399288Y-60903350D01*
X139421608Y-60861042D01*
X139446750Y-60851969D01*
X139446514Y-60851398D01*
X139572215Y-60799330D01*
X139730547Y-60733747D01*
X139843440Y-60461200D01*
X139769146Y-60281840D01*
X139730547Y-60188653D01*
X139730546Y-60188652D01*
X139458001Y-60075760D01*
X139458000Y-60075760D01*
X139246873Y-60163212D01*
X139199037Y-60163211D01*
X139165212Y-60129387D01*
X139165213Y-60081551D01*
X139171040Y-60067484D01*
X139132489Y-59974415D01*
X139100174Y-59896399D01*
X139058147Y-59794937D01*
X139058146Y-59794936D01*
X139054144Y-59785274D01*
X139054143Y-59737438D01*
X139054144Y-59737438D01*
X139099972Y-59626800D01*
X140731960Y-59626800D01*
X140844852Y-59899346D01*
X140844853Y-59899347D01*
X141117399Y-60012240D01*
X141117400Y-60012240D01*
X141117401Y-60012240D01*
X141319196Y-59928653D01*
X141389947Y-59899347D01*
X141391168Y-59896400D01*
X142470160Y-59896400D01*
X142583052Y-60168946D01*
X142583053Y-60168947D01*
X142855599Y-60281840D01*
X142855600Y-60281840D01*
X142855601Y-60281840D01*
X142991873Y-60225393D01*
X143128147Y-60168947D01*
X143241040Y-59896400D01*
X143233917Y-59879204D01*
X143128147Y-59623853D01*
X143128146Y-59623852D01*
X142855601Y-59510960D01*
X142855599Y-59510960D01*
X142583053Y-59623852D01*
X142583052Y-59623853D01*
X142470160Y-59896399D01*
X142470160Y-59896400D01*
X141391168Y-59896400D01*
X141502840Y-59626800D01*
X141501619Y-59623853D01*
X141389947Y-59354253D01*
X141389946Y-59354252D01*
X141117401Y-59241360D01*
X141117399Y-59241360D01*
X140844853Y-59354252D01*
X140844852Y-59354253D01*
X140731960Y-59626799D01*
X140731960Y-59626800D01*
X139099972Y-59626800D01*
X139167209Y-59464476D01*
X139167209Y-59464475D01*
X139054316Y-59191929D01*
X139054315Y-59191928D01*
X138809856Y-59090670D01*
X138776032Y-59056846D01*
X138776032Y-59009010D01*
X138809856Y-58975186D01*
X138928601Y-58926000D01*
X138992947Y-58899347D01*
X139105840Y-58626800D01*
X139096666Y-58604653D01*
X138992947Y-58354253D01*
X138992946Y-58354252D01*
X138720401Y-58241360D01*
X138720399Y-58241360D01*
X138447853Y-58354252D01*
X138447852Y-58354253D01*
X138334960Y-58626799D01*
X138334960Y-58626800D01*
X138434702Y-58867599D01*
X138447853Y-58899347D01*
X138692314Y-59000606D01*
X138726136Y-59034429D01*
X138726137Y-59082265D01*
X138692312Y-59116089D01*
X138509222Y-59191928D01*
X138509221Y-59191929D01*
X138396329Y-59464474D01*
X138396329Y-59464475D01*
X138396329Y-59464476D01*
X138462345Y-59623852D01*
X138475915Y-59656613D01*
X138475914Y-59704449D01*
X138442090Y-59738274D01*
X138394254Y-59738273D01*
X138376650Y-59727245D01*
X137409549Y-58867599D01*
X137388680Y-58824556D01*
X137404035Y-58779731D01*
X138055724Y-58034943D01*
X138098604Y-58013738D01*
X138102761Y-58013600D01*
X138599049Y-58013600D01*
X138643243Y-58031906D01*
X138656791Y-58052182D01*
X138670213Y-58084585D01*
X138670214Y-58084586D01*
X138715149Y-58103198D01*
X138715155Y-58103202D01*
X138720837Y-58105555D01*
X138720838Y-58105556D01*
X138865000Y-58165269D01*
X138904139Y-58149057D01*
X138928057Y-58144300D01*
X139284043Y-58144300D01*
X139307960Y-58149057D01*
X139347100Y-58165269D01*
X139347101Y-58165269D01*
X139439973Y-58126800D01*
X139439975Y-58126799D01*
X139541886Y-58084586D01*
X139555307Y-58052182D01*
X139589132Y-58018358D01*
X139613050Y-58013600D01*
X139954000Y-58013600D01*
X140291294Y-57676306D01*
X140335488Y-57658000D01*
X141131441Y-57658000D01*
X141175635Y-57676306D01*
G37*
%TD.AperFunction*%
%TA.AperFunction,Conductor*%
G36*
X141725051Y-57676306D02*
G01*
X141743357Y-57720500D01*
X141725051Y-57764694D01*
X141704775Y-57778242D01*
X141543900Y-57844879D01*
X141542185Y-57840739D01*
X141519409Y-57850148D01*
X141495552Y-57845390D01*
X141333442Y-57778242D01*
X141299618Y-57744418D01*
X141299618Y-57696582D01*
X141333442Y-57662758D01*
X141357360Y-57658000D01*
X141680857Y-57658000D01*
X141725051Y-57676306D01*
G37*
%TD.AperFunction*%
%TD*%
%TA.AperFunction,NonConductor*%
G36*
X146901220Y-65192595D02*
G01*
X147002276Y-65234454D01*
X147036101Y-65268278D01*
X147036100Y-65316114D01*
X147022734Y-65336119D01*
X146998545Y-65394518D01*
X146964721Y-65428342D01*
X146940803Y-65433100D01*
X146604014Y-65433100D01*
X146559820Y-65414794D01*
X146556370Y-65406466D01*
X146534495Y-65428342D01*
X146510577Y-65433100D01*
X146415096Y-65433100D01*
X146370902Y-65414794D01*
X146352596Y-65370600D01*
X146357353Y-65346684D01*
X146371335Y-65312926D01*
X146405159Y-65279100D01*
X146452994Y-65279099D01*
X146452996Y-65279100D01*
X146534495Y-65312858D01*
X146556370Y-65334733D01*
X146559820Y-65326406D01*
X146580096Y-65312858D01*
X146719337Y-65255182D01*
X146829842Y-65209409D01*
X146829842Y-65209407D01*
X146833106Y-65206145D01*
X146877299Y-65187837D01*
X146901220Y-65192595D01*
G37*
%TD.AperFunction*%
%TA.AperFunction,NonConductor*%
G36*
X148824059Y-64708008D02*
G01*
X148842365Y-64752202D01*
X148837607Y-64776120D01*
X148735760Y-65021999D01*
X148735760Y-65022000D01*
X148848652Y-65294546D01*
X148848653Y-65294547D01*
X149121199Y-65407440D01*
X149121200Y-65407440D01*
X149121201Y-65407440D01*
X149257473Y-65350993D01*
X149393747Y-65294547D01*
X149497111Y-65045003D01*
X149530935Y-65011180D01*
X149578771Y-65011180D01*
X149599047Y-65024728D01*
X150837794Y-66263475D01*
X150856100Y-66307669D01*
X150856100Y-66559014D01*
X150851342Y-66582932D01*
X150801360Y-66703598D01*
X150801360Y-66703599D01*
X150801360Y-66703600D01*
X150860047Y-66845282D01*
X150860046Y-66893118D01*
X150826222Y-66926943D01*
X150802304Y-66931700D01*
X150181268Y-66931700D01*
X150137074Y-66913394D01*
X149846476Y-66622795D01*
X149832929Y-66602521D01*
X149782947Y-66481853D01*
X149782946Y-66481852D01*
X149782946Y-66481851D01*
X149700518Y-66447709D01*
X149680242Y-66434161D01*
X148793105Y-65547024D01*
X148779557Y-65526749D01*
X148772907Y-65510693D01*
X148772906Y-65510692D01*
X148762079Y-65506208D01*
X148756850Y-65504042D01*
X148736575Y-65490494D01*
X148618684Y-65372603D01*
X148605136Y-65352328D01*
X148598486Y-65336272D01*
X148598485Y-65336271D01*
X148587658Y-65331787D01*
X148582429Y-65329621D01*
X148562154Y-65316073D01*
X148085676Y-64839595D01*
X148072129Y-64819321D01*
X148054234Y-64776118D01*
X148054235Y-64728284D01*
X148088060Y-64694459D01*
X148111977Y-64689702D01*
X148779865Y-64689702D01*
X148824059Y-64708008D01*
G37*
%TD.AperFunction*%
%TA.AperFunction,Conductor*%
%TO.N,+BATT*%
G36*
X153447206Y-54973773D02*
G01*
X153450623Y-54970357D01*
X153474541Y-54965600D01*
X156909500Y-54965600D01*
X156953694Y-54983906D01*
X156972000Y-55028099D01*
X156972000Y-58724800D01*
X157468300Y-58724800D01*
X157512494Y-58743106D01*
X157530800Y-58787300D01*
X157530800Y-59385200D01*
X157530801Y-59385202D01*
X158884709Y-60789254D01*
X158902217Y-60833083D01*
X158895142Y-61823546D01*
X158895143Y-61823546D01*
X158895143Y-61823548D01*
X159079766Y-61957286D01*
X159104817Y-61998035D01*
X159105600Y-62007900D01*
X159105600Y-63629771D01*
X159091114Y-63669782D01*
X158851600Y-63957199D01*
X158851600Y-64479842D01*
X158833294Y-64524036D01*
X158813018Y-64537584D01*
X158534253Y-64653052D01*
X158534252Y-64653053D01*
X158421360Y-64925599D01*
X158421360Y-64925600D01*
X158517562Y-65157853D01*
X158534253Y-65198147D01*
X158806800Y-65311040D01*
X158806801Y-65311039D01*
X158813018Y-65313614D01*
X158846842Y-65347439D01*
X158851600Y-65371357D01*
X158851600Y-67919601D01*
X158851580Y-67923165D01*
X158833027Y-67967256D01*
X158801274Y-67984114D01*
X158493099Y-68045414D01*
X158493097Y-68045415D01*
X158169762Y-68261462D01*
X157953715Y-68584797D01*
X157953714Y-68584799D01*
X157877849Y-68966199D01*
X157877849Y-68966200D01*
X157953714Y-69347600D01*
X157953715Y-69347602D01*
X158061738Y-69509269D01*
X158169762Y-69670938D01*
X158493099Y-69886985D01*
X158789694Y-69945981D01*
X158829467Y-69972556D01*
X158839999Y-70007626D01*
X158837450Y-70466547D01*
X158818899Y-70510639D01*
X158774951Y-70528700D01*
X158011942Y-70528700D01*
X157993346Y-70532399D01*
X157974751Y-70536098D01*
X157974750Y-70536098D01*
X157932577Y-70564277D01*
X157904398Y-70606450D01*
X157904398Y-70606451D01*
X157897000Y-70643642D01*
X157897000Y-72368757D01*
X157904398Y-72405948D01*
X157904398Y-72405949D01*
X157932577Y-72448122D01*
X157941671Y-72454198D01*
X157974752Y-72476302D01*
X158011942Y-72483700D01*
X158011943Y-72483700D01*
X158763396Y-72483700D01*
X158807590Y-72502006D01*
X158825896Y-72546200D01*
X158825895Y-72546449D01*
X158814980Y-74511200D01*
X158801140Y-77002367D01*
X158782589Y-77046459D01*
X158739574Y-77064513D01*
X155397200Y-77114399D01*
X155397200Y-77610700D01*
X155378894Y-77654894D01*
X155334700Y-77673200D01*
X154736800Y-77673200D01*
X154043906Y-78366094D01*
X153999712Y-78384400D01*
X152645765Y-78384400D01*
X152601571Y-78366094D01*
X152584466Y-78334093D01*
X152572235Y-78272605D01*
X152498974Y-77904300D01*
X152508306Y-77857387D01*
X152548080Y-77830811D01*
X152584191Y-77834368D01*
X152718099Y-77889835D01*
X152718100Y-77889835D01*
X152718101Y-77889835D01*
X152885861Y-77820346D01*
X152990647Y-77776942D01*
X153103540Y-77504395D01*
X153076971Y-77440253D01*
X152990647Y-77231848D01*
X152990646Y-77231847D01*
X152718101Y-77118955D01*
X152718099Y-77118955D01*
X152445553Y-77231847D01*
X152445552Y-77231848D01*
X152379069Y-77392351D01*
X152345244Y-77426176D01*
X152297409Y-77426175D01*
X152269361Y-77403157D01*
X152039402Y-77058998D01*
X151756468Y-76869948D01*
X154345170Y-76869948D01*
X154458062Y-77142494D01*
X154458063Y-77142495D01*
X154730609Y-77255388D01*
X154730610Y-77255388D01*
X154730611Y-77255388D01*
X154895971Y-77186893D01*
X155003157Y-77142495D01*
X155116050Y-76869948D01*
X155109152Y-76853296D01*
X155003157Y-76597401D01*
X155003156Y-76597400D01*
X154730611Y-76484508D01*
X154730609Y-76484508D01*
X154458063Y-76597400D01*
X154458062Y-76597401D01*
X154345170Y-76869947D01*
X154345170Y-76869948D01*
X151756468Y-76869948D01*
X151557107Y-76736739D01*
X151418365Y-76644034D01*
X151418363Y-76644033D01*
X150685801Y-76498318D01*
X150685799Y-76498318D01*
X149953236Y-76644033D01*
X149953234Y-76644034D01*
X149332198Y-77058998D01*
X148917234Y-77680034D01*
X148917233Y-77680036D01*
X148787134Y-78334093D01*
X148760558Y-78373867D01*
X148725835Y-78384400D01*
X148084187Y-78384400D01*
X148060269Y-78379642D01*
X147884801Y-78306960D01*
X147884799Y-78306960D01*
X147709331Y-78379642D01*
X147685413Y-78384400D01*
X144475200Y-78384400D01*
X143782306Y-79077294D01*
X143738112Y-79095600D01*
X137170800Y-79095600D01*
X137126606Y-79077294D01*
X137108307Y-79034006D01*
X137102858Y-78658046D01*
X137091000Y-77839800D01*
X137677960Y-77839800D01*
X137790852Y-78112346D01*
X137790853Y-78112347D01*
X138063399Y-78225240D01*
X138063400Y-78225240D01*
X138063401Y-78225240D01*
X138199673Y-78168793D01*
X138335947Y-78112347D01*
X138448840Y-77839800D01*
X138432080Y-77799339D01*
X138396234Y-77712800D01*
X138947960Y-77712800D01*
X139060852Y-77985346D01*
X139060853Y-77985347D01*
X139333399Y-78098240D01*
X139333400Y-78098240D01*
X139333401Y-78098240D01*
X139513898Y-78023475D01*
X139605947Y-77985347D01*
X139718840Y-77712800D01*
X139716625Y-77707453D01*
X139605947Y-77440253D01*
X139605946Y-77440252D01*
X139333401Y-77327360D01*
X139333399Y-77327360D01*
X139060853Y-77440252D01*
X139060852Y-77440253D01*
X138947960Y-77712799D01*
X138947960Y-77712800D01*
X138396234Y-77712800D01*
X138335947Y-77567253D01*
X138335946Y-77567252D01*
X138063401Y-77454360D01*
X138063399Y-77454360D01*
X137790853Y-77567252D01*
X137790852Y-77567253D01*
X137677960Y-77839799D01*
X137677960Y-77839800D01*
X137091000Y-77839800D01*
X137058400Y-75590400D01*
X136511300Y-75590400D01*
X136467106Y-75572094D01*
X136448800Y-75527900D01*
X136448800Y-75192446D01*
X137132360Y-75192446D01*
X137245252Y-75464992D01*
X137245253Y-75464993D01*
X137517799Y-75577886D01*
X137517800Y-75577886D01*
X137517801Y-75577886D01*
X137692924Y-75505347D01*
X137790347Y-75464993D01*
X137903240Y-75192446D01*
X137900225Y-75185168D01*
X137790347Y-74919899D01*
X137790346Y-74919898D01*
X137517801Y-74807006D01*
X137517799Y-74807006D01*
X137245253Y-74919898D01*
X137245252Y-74919899D01*
X137132360Y-75192445D01*
X137132360Y-75192446D01*
X136448800Y-75192446D01*
X136448800Y-74930000D01*
X134790706Y-73271906D01*
X134772400Y-73227712D01*
X134772400Y-71760800D01*
X135494627Y-71760800D01*
X135547208Y-72025146D01*
X135547209Y-72025148D01*
X135622079Y-72137198D01*
X135696950Y-72249250D01*
X135789481Y-72311077D01*
X135921051Y-72398990D01*
X135921053Y-72398991D01*
X135927860Y-72400345D01*
X135967634Y-72426920D01*
X135976967Y-72473836D01*
X135973411Y-72485562D01*
X135878078Y-72715717D01*
X135990970Y-72988262D01*
X135990971Y-72988263D01*
X136263517Y-73101156D01*
X136263518Y-73101156D01*
X136263519Y-73101156D01*
X136402923Y-73043412D01*
X136517919Y-72995778D01*
X136565755Y-72995778D01*
X136579217Y-73004773D01*
X136583075Y-73006371D01*
X136583076Y-73006372D01*
X136734143Y-73068946D01*
X136855622Y-73119265D01*
X136855623Y-73119265D01*
X136855624Y-73119265D01*
X136977103Y-73068946D01*
X137128170Y-73006372D01*
X137128172Y-73006366D01*
X137135632Y-72998908D01*
X137179826Y-72980601D01*
X137203746Y-72985359D01*
X137486215Y-73102362D01*
X137486216Y-73102362D01*
X137486217Y-73102362D01*
X137717953Y-73006373D01*
X137758763Y-72989469D01*
X137838735Y-72796400D01*
X137993760Y-72796400D01*
X138106652Y-73068946D01*
X138106653Y-73068947D01*
X138379199Y-73181840D01*
X138379200Y-73181840D01*
X138379201Y-73181840D01*
X138530269Y-73119265D01*
X138651747Y-73068947D01*
X138764640Y-72796400D01*
X138751451Y-72764560D01*
X138651747Y-72523853D01*
X138651746Y-72523852D01*
X138379201Y-72410960D01*
X138379199Y-72410960D01*
X138106653Y-72523852D01*
X138106652Y-72523853D01*
X137993760Y-72796399D01*
X137993760Y-72796400D01*
X137838735Y-72796400D01*
X137871656Y-72716922D01*
X137871156Y-72715716D01*
X137758763Y-72444375D01*
X137758762Y-72444374D01*
X137634100Y-72392737D01*
X137600275Y-72358912D01*
X137600276Y-72311077D01*
X137623292Y-72283031D01*
X137673850Y-72249250D01*
X137823591Y-72025147D01*
X137876173Y-71760800D01*
X137823591Y-71496453D01*
X137673850Y-71272350D01*
X137561798Y-71197479D01*
X137449748Y-71122609D01*
X137449746Y-71122608D01*
X137252128Y-71083300D01*
X136118672Y-71083300D01*
X135921053Y-71122608D01*
X135921051Y-71122609D01*
X135696950Y-71272350D01*
X135547209Y-71496451D01*
X135547208Y-71496453D01*
X135494627Y-71760799D01*
X135494627Y-71760800D01*
X134772400Y-71760800D01*
X134772400Y-63757200D01*
X135764560Y-63757200D01*
X135877452Y-64029746D01*
X135877453Y-64029747D01*
X136149999Y-64142640D01*
X136150000Y-64142640D01*
X136150001Y-64142640D01*
X136286273Y-64086193D01*
X136422547Y-64029747D01*
X136441695Y-63983518D01*
X136475517Y-63949696D01*
X136523353Y-63949695D01*
X136557178Y-63983519D01*
X136557178Y-63983520D01*
X136639452Y-64182146D01*
X136639453Y-64182147D01*
X136911999Y-64295040D01*
X136912000Y-64295040D01*
X136912001Y-64295040D01*
X137104055Y-64215488D01*
X137184547Y-64182147D01*
X137297440Y-63909600D01*
X137203694Y-63683279D01*
X137184547Y-63637053D01*
X137184546Y-63637052D01*
X136912001Y-63524160D01*
X136911999Y-63524160D01*
X136639453Y-63637052D01*
X136639452Y-63637053D01*
X136620305Y-63683279D01*
X136586480Y-63717104D01*
X136538645Y-63717103D01*
X136504821Y-63683279D01*
X136422547Y-63484653D01*
X136422546Y-63484652D01*
X136150001Y-63371760D01*
X136149999Y-63371760D01*
X135877453Y-63484652D01*
X135877452Y-63484653D01*
X135764560Y-63757199D01*
X135764560Y-63757200D01*
X134772400Y-63757200D01*
X134772400Y-60957490D01*
X135168621Y-60957490D01*
X135281513Y-61230036D01*
X135281514Y-61230037D01*
X135510729Y-61324981D01*
X135544553Y-61358805D01*
X135544554Y-61389269D01*
X135546600Y-61389269D01*
X135546600Y-61401700D01*
X135659492Y-61674246D01*
X135659493Y-61674247D01*
X135932039Y-61787140D01*
X135932040Y-61787140D01*
X135932041Y-61787140D01*
X136201061Y-61675708D01*
X136248897Y-61675708D01*
X136459778Y-61763058D01*
X136493602Y-61796882D01*
X136493602Y-61844718D01*
X136459778Y-61878542D01*
X136435860Y-61883300D01*
X136118672Y-61883300D01*
X135921053Y-61922608D01*
X135921051Y-61922609D01*
X135696950Y-62072350D01*
X135547209Y-62296451D01*
X135547208Y-62296453D01*
X135494627Y-62560799D01*
X135494627Y-62560800D01*
X135547208Y-62825146D01*
X135547209Y-62825148D01*
X135620276Y-62934499D01*
X135696950Y-63049250D01*
X135816575Y-63129181D01*
X135921051Y-63198990D01*
X135921053Y-63198991D01*
X136118672Y-63238300D01*
X137252128Y-63238300D01*
X137449747Y-63198991D01*
X137673850Y-63049250D01*
X137823591Y-62825147D01*
X137876173Y-62560800D01*
X137875662Y-62558233D01*
X137823591Y-62296453D01*
X137823590Y-62296451D01*
X137785900Y-62240045D01*
X137673850Y-62072350D01*
X137501645Y-61957286D01*
X137449748Y-61922609D01*
X137449746Y-61922608D01*
X137252128Y-61883300D01*
X136595624Y-61883300D01*
X136551430Y-61864994D01*
X136533124Y-61820800D01*
X136551430Y-61776606D01*
X136571706Y-61763058D01*
X136701020Y-61709494D01*
X136788289Y-61673346D01*
X136889692Y-61428537D01*
X136923516Y-61394714D01*
X136956568Y-61394714D01*
X136956568Y-61393740D01*
X136969001Y-61393740D01*
X137112045Y-61334488D01*
X137152897Y-61317565D01*
X137200732Y-61317565D01*
X137234557Y-61351390D01*
X137263195Y-61420528D01*
X137263196Y-61420529D01*
X137535742Y-61533422D01*
X137535743Y-61533422D01*
X137535744Y-61533422D01*
X137690216Y-61469437D01*
X137808290Y-61420529D01*
X137921183Y-61147982D01*
X137916200Y-61135953D01*
X137843318Y-60960000D01*
X137988003Y-60960000D01*
X138100895Y-61232546D01*
X138100896Y-61232547D01*
X138373442Y-61345440D01*
X138373443Y-61345440D01*
X138373444Y-61345440D01*
X138509716Y-61288993D01*
X138645990Y-61232547D01*
X138758883Y-60960000D01*
X138758120Y-60958159D01*
X138645990Y-60687453D01*
X138645989Y-60687452D01*
X138373444Y-60574560D01*
X138373442Y-60574560D01*
X138100896Y-60687452D01*
X138100895Y-60687453D01*
X137988003Y-60959999D01*
X137988003Y-60960000D01*
X137843318Y-60960000D01*
X137808290Y-60875435D01*
X137808289Y-60875434D01*
X137535744Y-60762542D01*
X137535743Y-60762542D01*
X137471255Y-60789254D01*
X137351848Y-60838714D01*
X137351845Y-60838715D01*
X137304009Y-60838714D01*
X137270185Y-60804890D01*
X137241547Y-60735753D01*
X137241546Y-60735752D01*
X136969001Y-60622860D01*
X136968999Y-60622860D01*
X136696453Y-60735752D01*
X136696452Y-60735753D01*
X136595049Y-60980560D01*
X136561224Y-61014385D01*
X136528174Y-61014384D01*
X136528174Y-61015359D01*
X136515744Y-61015359D01*
X136515742Y-61015359D01*
X136358333Y-61080560D01*
X136246721Y-61126791D01*
X136198885Y-61126790D01*
X135975372Y-61034208D01*
X135941548Y-61000384D01*
X135941548Y-60969922D01*
X135939501Y-60969922D01*
X135939501Y-60957489D01*
X135826608Y-60684943D01*
X135826607Y-60684942D01*
X135554062Y-60572050D01*
X135554060Y-60572050D01*
X135281514Y-60684942D01*
X135281513Y-60684943D01*
X135168621Y-60957489D01*
X135168621Y-60957490D01*
X134772400Y-60957490D01*
X134772400Y-59523800D01*
X136032960Y-59523800D01*
X136145852Y-59796346D01*
X136145853Y-59796347D01*
X136418399Y-59909240D01*
X136418400Y-59909240D01*
X136418401Y-59909240D01*
X136563885Y-59848978D01*
X136690947Y-59796347D01*
X136803840Y-59523800D01*
X136803011Y-59521799D01*
X136690947Y-59251253D01*
X136690946Y-59251252D01*
X136418401Y-59138360D01*
X136418399Y-59138360D01*
X136145853Y-59251252D01*
X136145852Y-59251253D01*
X136032960Y-59523799D01*
X136032960Y-59523800D01*
X134772400Y-59523800D01*
X134772400Y-58888800D01*
X137048960Y-58888800D01*
X137161852Y-59161346D01*
X137161853Y-59161347D01*
X137434399Y-59274240D01*
X137434399Y-59274239D01*
X137434400Y-59274240D01*
X137510260Y-59242816D01*
X137558094Y-59242816D01*
X137575698Y-59253845D01*
X137712689Y-59375614D01*
X138258195Y-59860510D01*
X138281996Y-59878347D01*
X138299596Y-59889372D01*
X138299598Y-59889373D01*
X138388129Y-59914814D01*
X138425547Y-59944613D01*
X138430935Y-59992144D01*
X138428609Y-59998799D01*
X138400160Y-60067484D01*
X138513052Y-60340030D01*
X138513053Y-60340031D01*
X138785599Y-60452924D01*
X138785600Y-60452924D01*
X138785601Y-60452924D01*
X138915069Y-60399296D01*
X138996727Y-60365471D01*
X139044561Y-60365471D01*
X139078386Y-60399296D01*
X139078387Y-60447130D01*
X139072560Y-60461198D01*
X139072560Y-60461200D01*
X139185452Y-60733746D01*
X139185453Y-60733747D01*
X139206260Y-60742365D01*
X139240085Y-60776190D01*
X139242249Y-60817926D01*
X139221754Y-60886830D01*
X139221753Y-60886834D01*
X139133573Y-61834779D01*
X139111253Y-61877088D01*
X139083535Y-61890289D01*
X138921053Y-61922608D01*
X138921051Y-61922609D01*
X138696950Y-62072350D01*
X138547209Y-62296451D01*
X138547208Y-62296453D01*
X138494627Y-62560799D01*
X138494627Y-62560800D01*
X138547208Y-62825146D01*
X138547209Y-62825148D01*
X138620276Y-62934499D01*
X138696950Y-63049250D01*
X138921053Y-63198991D01*
X139018043Y-63218283D01*
X139057817Y-63244859D01*
X139068349Y-63279235D01*
X139071941Y-63925798D01*
X139061410Y-63960866D01*
X139035605Y-63999488D01*
X139004450Y-64156111D01*
X139000894Y-64167832D01*
X138993453Y-64185798D01*
X138993453Y-64185799D01*
X139000894Y-64203764D01*
X139004450Y-64215488D01*
X139035604Y-64372110D01*
X139035605Y-64372112D01*
X139064318Y-64415084D01*
X139074850Y-64449459D01*
X139075268Y-64524506D01*
X139075268Y-64524505D01*
X139075723Y-64533018D01*
X139075723Y-64533020D01*
X139077349Y-64549069D01*
X139077351Y-64549079D01*
X139106490Y-64630158D01*
X139121122Y-64652056D01*
X139130454Y-64698972D01*
X139121122Y-64721502D01*
X139035605Y-64849487D01*
X139035605Y-64849488D01*
X139004450Y-65006111D01*
X139000894Y-65017834D01*
X138995101Y-65031820D01*
X138961276Y-65065645D01*
X138913441Y-65065646D01*
X138863500Y-65044960D01*
X138863499Y-65044960D01*
X138590953Y-65157852D01*
X138590952Y-65157853D01*
X138478060Y-65430399D01*
X138478060Y-65430400D01*
X138590952Y-65702946D01*
X138590953Y-65702947D01*
X138863499Y-65815840D01*
X138863499Y-65815839D01*
X138863500Y-65815840D01*
X138915945Y-65794115D01*
X138963779Y-65794115D01*
X138997604Y-65827939D01*
X138997606Y-65875773D01*
X138993453Y-65885800D01*
X139000894Y-65903764D01*
X139004450Y-65915488D01*
X139035604Y-66072110D01*
X139035605Y-66072112D01*
X139124324Y-66204888D01*
X139130100Y-66215694D01*
X139137541Y-66233659D01*
X139155507Y-66241101D01*
X139166311Y-66246876D01*
X139184205Y-66258832D01*
X139210782Y-66298605D01*
X139201450Y-66345521D01*
X139184206Y-66362766D01*
X139166311Y-66374723D01*
X139155509Y-66380497D01*
X139137541Y-66387940D01*
X139137540Y-66387941D01*
X139130097Y-66405909D01*
X139124323Y-66416711D01*
X139035605Y-66549487D01*
X139035605Y-66549488D01*
X139004450Y-66706111D01*
X139000894Y-66717832D01*
X138993453Y-66735798D01*
X138993453Y-66735799D01*
X139000894Y-66753764D01*
X139004450Y-66765488D01*
X139035604Y-66922110D01*
X139035605Y-66922112D01*
X139124324Y-67054888D01*
X139130100Y-67065694D01*
X139137541Y-67083659D01*
X139155507Y-67091101D01*
X139166311Y-67096876D01*
X139184205Y-67108832D01*
X139210782Y-67148605D01*
X139201450Y-67195521D01*
X139184206Y-67212766D01*
X139166311Y-67224723D01*
X139155509Y-67230497D01*
X139137541Y-67237940D01*
X139137540Y-67237941D01*
X139130097Y-67255909D01*
X139124323Y-67266711D01*
X139035605Y-67399487D01*
X139035605Y-67399488D01*
X139004450Y-67556111D01*
X139000894Y-67567832D01*
X138993453Y-67585798D01*
X138993453Y-67585799D01*
X139000894Y-67603764D01*
X139004450Y-67615488D01*
X139035604Y-67772110D01*
X139035605Y-67772112D01*
X139124324Y-67904888D01*
X139130100Y-67915694D01*
X139137541Y-67933659D01*
X139155507Y-67941101D01*
X139166311Y-67946876D01*
X139184205Y-67958832D01*
X139210782Y-67998605D01*
X139201450Y-68045521D01*
X139184206Y-68062766D01*
X139166311Y-68074723D01*
X139155509Y-68080497D01*
X139137541Y-68087940D01*
X139137540Y-68087941D01*
X139130097Y-68105909D01*
X139124323Y-68116711D01*
X139035605Y-68249487D01*
X139035605Y-68249488D01*
X139004450Y-68406111D01*
X139000894Y-68417832D01*
X138993453Y-68435798D01*
X138993453Y-68435799D01*
X139000894Y-68453764D01*
X139004450Y-68465488D01*
X139035604Y-68622110D01*
X139035605Y-68622112D01*
X139124324Y-68754888D01*
X139130100Y-68765694D01*
X139137541Y-68783659D01*
X139155507Y-68791101D01*
X139166311Y-68796876D01*
X139184205Y-68808832D01*
X139210782Y-68848605D01*
X139201450Y-68895521D01*
X139184206Y-68912766D01*
X139166311Y-68924723D01*
X139155509Y-68930497D01*
X139137541Y-68937940D01*
X139137540Y-68937941D01*
X139130097Y-68955909D01*
X139124323Y-68966711D01*
X139035605Y-69099487D01*
X139035605Y-69099488D01*
X139004450Y-69256111D01*
X139000894Y-69267832D01*
X138993453Y-69285798D01*
X138993453Y-69285799D01*
X139000894Y-69303764D01*
X139004450Y-69315488D01*
X139035604Y-69472110D01*
X139035605Y-69472112D01*
X139124324Y-69604888D01*
X139130100Y-69615694D01*
X139140394Y-69640547D01*
X139140393Y-69688383D01*
X139136579Y-69695565D01*
X139117827Y-69741558D01*
X139104631Y-69809872D01*
X139104725Y-69826736D01*
X139094193Y-69861804D01*
X139035605Y-69949487D01*
X139035605Y-69949488D01*
X139004450Y-70106111D01*
X139000894Y-70117832D01*
X138993453Y-70135798D01*
X138993453Y-70135799D01*
X139000894Y-70153764D01*
X139004450Y-70165488D01*
X139035604Y-70322110D01*
X139035605Y-70322112D01*
X139097652Y-70414970D01*
X139108184Y-70449346D01*
X139110027Y-70780994D01*
X139110033Y-70781987D01*
X139111427Y-71033100D01*
X139093367Y-71077395D01*
X139061122Y-71094746D01*
X138921052Y-71122609D01*
X138921051Y-71122609D01*
X138696950Y-71272350D01*
X138547209Y-71496451D01*
X138547208Y-71496453D01*
X138494627Y-71760799D01*
X138494627Y-71760800D01*
X138547208Y-72025146D01*
X138547209Y-72025148D01*
X138622079Y-72137198D01*
X138696950Y-72249250D01*
X138789481Y-72311077D01*
X138921051Y-72398990D01*
X138921053Y-72398991D01*
X139064993Y-72427622D01*
X139104767Y-72454198D01*
X139115300Y-72488921D01*
X139115300Y-72500859D01*
X139115299Y-72500859D01*
X139128872Y-72569090D01*
X139128873Y-72569093D01*
X139134491Y-72582658D01*
X139134491Y-72630492D01*
X139100668Y-72664316D01*
X139071853Y-72676252D01*
X139071852Y-72676252D01*
X138958960Y-72948799D01*
X138958960Y-72948800D01*
X139024956Y-73108129D01*
X139024956Y-73155965D01*
X139015684Y-73171505D01*
X138973248Y-73223632D01*
X138498483Y-74120413D01*
X138454318Y-74203836D01*
X138327118Y-74444098D01*
X138295799Y-74472597D01*
X138163853Y-74527252D01*
X138163852Y-74527252D01*
X138050960Y-74799799D01*
X138050960Y-74799800D01*
X138167595Y-75081382D01*
X138167595Y-75129218D01*
X138050960Y-75410799D01*
X138050960Y-75410800D01*
X138163852Y-75683346D01*
X138163853Y-75683347D01*
X138270149Y-75727376D01*
X138303972Y-75761199D01*
X138307872Y-75795435D01*
X138306391Y-75804280D01*
X138308509Y-75873817D01*
X138427571Y-76389751D01*
X138424415Y-76427723D01*
X138367449Y-76565253D01*
X138334817Y-76644034D01*
X138312960Y-76696801D01*
X138425852Y-76969346D01*
X138425853Y-76969347D01*
X138698399Y-77082240D01*
X138698400Y-77082240D01*
X138698401Y-77082240D01*
X138834673Y-77025793D01*
X138970947Y-76969347D01*
X139019763Y-76851495D01*
X140499255Y-76851495D01*
X140616905Y-77135528D01*
X140614274Y-77136617D01*
X140625192Y-77162975D01*
X140620434Y-77186893D01*
X140517704Y-77434905D01*
X140517704Y-77434906D01*
X140630596Y-77707452D01*
X140630597Y-77707453D01*
X140852428Y-77799339D01*
X140886253Y-77833163D01*
X140886252Y-77880999D01*
X140852428Y-77914823D01*
X140646653Y-78000058D01*
X140646652Y-78000059D01*
X140533760Y-78272605D01*
X140533760Y-78272606D01*
X140646652Y-78545152D01*
X140646653Y-78545153D01*
X140919199Y-78658046D01*
X140919200Y-78658046D01*
X140919201Y-78658046D01*
X141055473Y-78601599D01*
X141191747Y-78545153D01*
X141304640Y-78272606D01*
X141285020Y-78225240D01*
X141191747Y-78000059D01*
X141191746Y-78000058D01*
X140969915Y-77908172D01*
X140936090Y-77874348D01*
X140936091Y-77826512D01*
X140969912Y-77792689D01*
X141175691Y-77707453D01*
X141211750Y-77620400D01*
X147414960Y-77620400D01*
X147527852Y-77892946D01*
X147527853Y-77892947D01*
X147800399Y-78005840D01*
X147800400Y-78005840D01*
X147800401Y-78005840D01*
X147948825Y-77944360D01*
X148072947Y-77892947D01*
X148185840Y-77620400D01*
X148181822Y-77610700D01*
X148072947Y-77347853D01*
X148072946Y-77347852D01*
X147800401Y-77234960D01*
X147800399Y-77234960D01*
X147527853Y-77347852D01*
X147527852Y-77347853D01*
X147414960Y-77620399D01*
X147414960Y-77620400D01*
X141211750Y-77620400D01*
X141288584Y-77434906D01*
X141284967Y-77426175D01*
X141170934Y-77150874D01*
X141173564Y-77149784D01*
X141162646Y-77123426D01*
X141167404Y-77099508D01*
X141181900Y-77064513D01*
X141270135Y-76851495D01*
X141266123Y-76841810D01*
X141157242Y-76578948D01*
X141157241Y-76578947D01*
X140884696Y-76466055D01*
X140884694Y-76466055D01*
X140612148Y-76578947D01*
X140612147Y-76578948D01*
X140499255Y-76851494D01*
X140499255Y-76851495D01*
X139019763Y-76851495D01*
X139083840Y-76696800D01*
X139083513Y-76696010D01*
X139083514Y-76648176D01*
X139104378Y-76621633D01*
X139722892Y-76169643D01*
X139722893Y-76169641D01*
X139722896Y-76169640D01*
X139755470Y-76138189D01*
X139799978Y-76120661D01*
X139822798Y-76125408D01*
X139848074Y-76135878D01*
X139959999Y-76182240D01*
X139960000Y-76182240D01*
X139960001Y-76182240D01*
X140136010Y-76109334D01*
X140232547Y-76069347D01*
X140345440Y-75796800D01*
X140344799Y-75795253D01*
X140285898Y-75653054D01*
X140285897Y-75605219D01*
X140297989Y-75586449D01*
X140326324Y-75556146D01*
X140338764Y-75542842D01*
X140499672Y-75283600D01*
X143350960Y-75283600D01*
X143463852Y-75556146D01*
X143463853Y-75556147D01*
X143736399Y-75669040D01*
X143736400Y-75669040D01*
X143736401Y-75669040D01*
X143890477Y-75605219D01*
X144008947Y-75556147D01*
X144121840Y-75283600D01*
X144100797Y-75232800D01*
X144620960Y-75232800D01*
X144733852Y-75505346D01*
X144733853Y-75505347D01*
X145006399Y-75618240D01*
X145006400Y-75618240D01*
X145006401Y-75618240D01*
X145235083Y-75523516D01*
X145278947Y-75505347D01*
X145391840Y-75232800D01*
X145388541Y-75224836D01*
X145278947Y-74960253D01*
X145278946Y-74960252D01*
X145006401Y-74847360D01*
X145006399Y-74847360D01*
X144733853Y-74960252D01*
X144733852Y-74960253D01*
X144620960Y-75232799D01*
X144620960Y-75232800D01*
X144100797Y-75232800D01*
X144100797Y-75232799D01*
X144008947Y-75011053D01*
X144008946Y-75011052D01*
X143736401Y-74898160D01*
X143736399Y-74898160D01*
X143463853Y-75011052D01*
X143463852Y-75011053D01*
X143350960Y-75283599D01*
X143350960Y-75283600D01*
X140499672Y-75283600D01*
X140543454Y-75213061D01*
X140582313Y-75185168D01*
X140620474Y-75188281D01*
X140840799Y-75279543D01*
X140840800Y-75279543D01*
X140840801Y-75279543D01*
X141051070Y-75192446D01*
X141113347Y-75166650D01*
X141226240Y-74894103D01*
X141206878Y-74847360D01*
X141108590Y-74610071D01*
X141109159Y-74609835D01*
X141096180Y-74578501D01*
X141114486Y-74534307D01*
X141114489Y-74534303D01*
X141118541Y-74530249D01*
X141118547Y-74530247D01*
X141136343Y-74487282D01*
X141170168Y-74453458D01*
X141194086Y-74448700D01*
X146622000Y-74448700D01*
X146666194Y-74467006D01*
X146684500Y-74511200D01*
X146684500Y-75095939D01*
X146666194Y-75140133D01*
X146622000Y-75158439D01*
X146577806Y-75140133D01*
X146564258Y-75119857D01*
X146498147Y-74960253D01*
X146498146Y-74960252D01*
X146225601Y-74847360D01*
X146225599Y-74847360D01*
X145953053Y-74960252D01*
X145953052Y-74960253D01*
X145840160Y-75232799D01*
X145840160Y-75232800D01*
X145953052Y-75505346D01*
X145953053Y-75505347D01*
X146225599Y-75618240D01*
X146225600Y-75618240D01*
X146225601Y-75618240D01*
X146454283Y-75523516D01*
X146498147Y-75505347D01*
X146564257Y-75345742D01*
X146598082Y-75311918D01*
X146645918Y-75311918D01*
X146679742Y-75345742D01*
X146684500Y-75369660D01*
X146684500Y-76829378D01*
X146679742Y-76853296D01*
X146593460Y-77061599D01*
X146593460Y-77061600D01*
X146706352Y-77334146D01*
X146706353Y-77334147D01*
X146978899Y-77447040D01*
X146978900Y-77447040D01*
X146978901Y-77447040D01*
X147115173Y-77390593D01*
X147251447Y-77334147D01*
X147251447Y-77334145D01*
X147259013Y-77326580D01*
X147274788Y-77307894D01*
X147276036Y-77307108D01*
X147287681Y-77299788D01*
X148449983Y-76200314D01*
X151727283Y-76200314D01*
X151840175Y-76472860D01*
X151840176Y-76472861D01*
X152112722Y-76585754D01*
X152112723Y-76585754D01*
X152112724Y-76585754D01*
X152243764Y-76531475D01*
X152385270Y-76472861D01*
X152385270Y-76472860D01*
X152387299Y-76472020D01*
X152435132Y-76472019D01*
X152435135Y-76472020D01*
X152696399Y-76580240D01*
X152696400Y-76580240D01*
X152696401Y-76580240D01*
X152832673Y-76523793D01*
X152968947Y-76467347D01*
X153081840Y-76194800D01*
X153076637Y-76182240D01*
X152968947Y-75922253D01*
X152968946Y-75922252D01*
X152696401Y-75809360D01*
X152696399Y-75809360D01*
X152421823Y-75923093D01*
X152373987Y-75923093D01*
X152112724Y-75814874D01*
X152112722Y-75814874D01*
X151840176Y-75927766D01*
X151840175Y-75927767D01*
X151727283Y-76200313D01*
X151727283Y-76200314D01*
X148449983Y-76200314D01*
X149100279Y-75585170D01*
X149102412Y-75583095D01*
X149142821Y-75523516D01*
X149161127Y-75479322D01*
X149174700Y-75411089D01*
X149174700Y-75340610D01*
X151347960Y-75340610D01*
X151460852Y-75613156D01*
X151460853Y-75613157D01*
X151733399Y-75726050D01*
X151733400Y-75726050D01*
X151733401Y-75726050D01*
X151909627Y-75653054D01*
X152005947Y-75613157D01*
X152118840Y-75340610D01*
X152106955Y-75311918D01*
X152005947Y-75068063D01*
X152005946Y-75068062D01*
X151733401Y-74955170D01*
X151733399Y-74955170D01*
X151460853Y-75068062D01*
X151460852Y-75068063D01*
X151347960Y-75340609D01*
X151347960Y-75340610D01*
X149174700Y-75340610D01*
X149174700Y-74952289D01*
X150212111Y-74952289D01*
X150325003Y-75224835D01*
X150325004Y-75224836D01*
X150597550Y-75337729D01*
X150597551Y-75337729D01*
X150597552Y-75337729D01*
X150738024Y-75279543D01*
X150870098Y-75224836D01*
X150982991Y-74952289D01*
X150971153Y-74923710D01*
X150870098Y-74679742D01*
X150870097Y-74679741D01*
X150600673Y-74568142D01*
X150598172Y-74565641D01*
X150594429Y-74568142D01*
X150325004Y-74679741D01*
X150325003Y-74679742D01*
X150212111Y-74952288D01*
X150212111Y-74952289D01*
X149174700Y-74952289D01*
X149174700Y-74510400D01*
X149193006Y-74466206D01*
X149237200Y-74447900D01*
X150570511Y-74447900D01*
X150595203Y-74458127D01*
X150600673Y-74452658D01*
X150624591Y-74447900D01*
X152446692Y-74447900D01*
X152490886Y-74466206D01*
X152509192Y-74510400D01*
X152504434Y-74534318D01*
X152437960Y-74694799D01*
X152437960Y-74694800D01*
X152550852Y-74967346D01*
X152550853Y-74967347D01*
X152823399Y-75080240D01*
X152823400Y-75080240D01*
X152823401Y-75080240D01*
X152914249Y-75042608D01*
X153095947Y-74967347D01*
X153208840Y-74694800D01*
X153208839Y-74694798D01*
X153211250Y-74688978D01*
X153245075Y-74655154D01*
X153292911Y-74655153D01*
X153313187Y-74668702D01*
X154228207Y-75583722D01*
X154246513Y-75627916D01*
X154241756Y-75651832D01*
X154223960Y-75694799D01*
X154223960Y-75694800D01*
X154336852Y-75967346D01*
X154336853Y-75967347D01*
X154609399Y-76080240D01*
X154609400Y-76080240D01*
X154609401Y-76080240D01*
X154774628Y-76011800D01*
X154881947Y-75967347D01*
X154881947Y-75967346D01*
X154890982Y-75963604D01*
X154938818Y-75963603D01*
X154938818Y-75963604D01*
X154947852Y-75967346D01*
X154947853Y-75967347D01*
X155055172Y-76011800D01*
X155220399Y-76080240D01*
X155220400Y-76080240D01*
X155220401Y-76080240D01*
X155250432Y-76067800D01*
X157263960Y-76067800D01*
X157376852Y-76340346D01*
X157376853Y-76340347D01*
X157649399Y-76453240D01*
X157649400Y-76453240D01*
X157649401Y-76453240D01*
X157792900Y-76393800D01*
X157921947Y-76340347D01*
X158034840Y-76067800D01*
X157998803Y-75980800D01*
X157921947Y-75795253D01*
X157921946Y-75795252D01*
X157649401Y-75682360D01*
X157649399Y-75682360D01*
X157376853Y-75795252D01*
X157376852Y-75795253D01*
X157263960Y-76067799D01*
X157263960Y-76067800D01*
X155250432Y-76067800D01*
X155311248Y-76042608D01*
X155492947Y-75967347D01*
X155551735Y-75825418D01*
X155585559Y-75791596D01*
X155610299Y-75786843D01*
X155657646Y-75787470D01*
X156180784Y-75690592D01*
X156227572Y-75700544D01*
X156232845Y-75704929D01*
X156233852Y-75705346D01*
X156233853Y-75705347D01*
X156368691Y-75761199D01*
X156506399Y-75818240D01*
X156506400Y-75818240D01*
X156506401Y-75818240D01*
X156644109Y-75761199D01*
X156778947Y-75705347D01*
X156891840Y-75432800D01*
X156882727Y-75410800D01*
X156778947Y-75160253D01*
X156778946Y-75160252D01*
X156603084Y-75087408D01*
X156571374Y-75058158D01*
X156518624Y-74955170D01*
X156438020Y-74797800D01*
X157136960Y-74797800D01*
X157249852Y-75070346D01*
X157249853Y-75070347D01*
X157522399Y-75183240D01*
X157522399Y-75183239D01*
X157522400Y-75183240D01*
X157635732Y-75136294D01*
X157639923Y-75135462D01*
X157649399Y-75131536D01*
X157649400Y-75131537D01*
X157795585Y-75070985D01*
X157856137Y-74924800D01*
X157856136Y-74924799D01*
X157860062Y-74915323D01*
X157860894Y-74911132D01*
X157907840Y-74797800D01*
X157865175Y-74694799D01*
X157794947Y-74525253D01*
X157794946Y-74525252D01*
X157522401Y-74412360D01*
X157522399Y-74412360D01*
X157249853Y-74525252D01*
X157249852Y-74525253D01*
X157136960Y-74797799D01*
X157136960Y-74797800D01*
X156438020Y-74797800D01*
X156068263Y-74075893D01*
X156030459Y-74026118D01*
X156030456Y-74026115D01*
X156030453Y-74026112D01*
X156018086Y-74014704D01*
X155998013Y-73971284D01*
X156002720Y-73944846D01*
X156059840Y-73806948D01*
X156059840Y-73806947D01*
X155958340Y-73561907D01*
X155958339Y-73514071D01*
X155967486Y-73500383D01*
X156081924Y-73224106D01*
X156081924Y-73224105D01*
X156044918Y-73134765D01*
X156363915Y-73134765D01*
X156476807Y-73407311D01*
X156476808Y-73407312D01*
X156749354Y-73520205D01*
X156749355Y-73520205D01*
X156749356Y-73520205D01*
X156980510Y-73424457D01*
X157012392Y-73411250D01*
X157060228Y-73411250D01*
X157075315Y-73421330D01*
X157350799Y-73535440D01*
X157350800Y-73535440D01*
X157350801Y-73535440D01*
X157618733Y-73424458D01*
X157666567Y-73424457D01*
X157666569Y-73424457D01*
X157666569Y-73424458D01*
X157934502Y-73535440D01*
X157934503Y-73535440D01*
X157934504Y-73535440D01*
X158070776Y-73478993D01*
X158207050Y-73422547D01*
X158319943Y-73150000D01*
X158313632Y-73134765D01*
X158207050Y-72877453D01*
X158207049Y-72877452D01*
X157934504Y-72764560D01*
X157934503Y-72764560D01*
X157857635Y-72796400D01*
X157666569Y-72875542D01*
X157618733Y-72875541D01*
X157350801Y-72764560D01*
X157350800Y-72764560D01*
X157273934Y-72796399D01*
X157087761Y-72873514D01*
X157039925Y-72873513D01*
X157024844Y-72863436D01*
X156749356Y-72749325D01*
X156749354Y-72749325D01*
X156476808Y-72862217D01*
X156476807Y-72862218D01*
X156363915Y-73134764D01*
X156363915Y-73134765D01*
X156044918Y-73134765D01*
X155969031Y-72951559D01*
X155969030Y-72951558D01*
X155696485Y-72838666D01*
X155696484Y-72838666D01*
X155533667Y-72906107D01*
X155485831Y-72906106D01*
X155454122Y-72876857D01*
X154720575Y-71444695D01*
X154716722Y-71397016D01*
X154718457Y-71392299D01*
X154752340Y-71310500D01*
X154655784Y-71077395D01*
X154639447Y-71037953D01*
X154639430Y-71037946D01*
X154605605Y-71004121D01*
X154600881Y-70982253D01*
X154557900Y-69671311D01*
X154557900Y-68236923D01*
X154562657Y-68213007D01*
X154571698Y-68191179D01*
X154585241Y-68170910D01*
X155351147Y-67405006D01*
X155395342Y-67386700D01*
X155625275Y-67386700D01*
X155669469Y-67405006D01*
X155683017Y-67425281D01*
X155694352Y-67452646D01*
X155694353Y-67452647D01*
X155966899Y-67565540D01*
X155966900Y-67565540D01*
X155966901Y-67565540D01*
X156103173Y-67509093D01*
X156239447Y-67452647D01*
X156352340Y-67180100D01*
X156339294Y-67148605D01*
X156334543Y-67137134D01*
X156334542Y-67089299D01*
X156348088Y-67069025D01*
X156366703Y-67050410D01*
X156386978Y-67036864D01*
X156387004Y-67036852D01*
X156413485Y-67025885D01*
X156429410Y-66987440D01*
X156429848Y-66986381D01*
X156436658Y-66974066D01*
X156456720Y-66945856D01*
X156456722Y-66945849D01*
X156456725Y-66945847D01*
X156474601Y-66908922D01*
X156474605Y-66908913D01*
X156482908Y-66880420D01*
X156491215Y-66851922D01*
X156534279Y-66483473D01*
X156557592Y-66441703D01*
X156603613Y-66428652D01*
X156645383Y-66451964D01*
X156654100Y-66466811D01*
X156654653Y-66468147D01*
X156927199Y-66581040D01*
X156927200Y-66581040D01*
X156927201Y-66581040D01*
X157083636Y-66516242D01*
X157199747Y-66468147D01*
X157312640Y-66195600D01*
X157261489Y-66072112D01*
X157199747Y-65923053D01*
X157190956Y-65914262D01*
X157191018Y-65914199D01*
X157166138Y-65889319D01*
X157166137Y-65841483D01*
X157191018Y-65816600D01*
X157190956Y-65816538D01*
X157199745Y-65807747D01*
X157199747Y-65807747D01*
X157312640Y-65535200D01*
X157291631Y-65484481D01*
X157199747Y-65262653D01*
X157199746Y-65262652D01*
X156927201Y-65149760D01*
X156927200Y-65149760D01*
X156776462Y-65212198D01*
X156728626Y-65212197D01*
X156694801Y-65178373D01*
X156690467Y-65147202D01*
X156897150Y-63378919D01*
X156896657Y-63333662D01*
X156893324Y-63309697D01*
X156905367Y-63263404D01*
X156931309Y-63243347D01*
X157018947Y-63207047D01*
X157131840Y-62934500D01*
X157275360Y-62934500D01*
X157388252Y-63207046D01*
X157388253Y-63207047D01*
X157660799Y-63319940D01*
X157660800Y-63319940D01*
X157660801Y-63319940D01*
X157788985Y-63266844D01*
X157933347Y-63207047D01*
X157933347Y-63207046D01*
X157941682Y-63203594D01*
X157989518Y-63203593D01*
X157989518Y-63203594D01*
X157997852Y-63207046D01*
X157997853Y-63207047D01*
X158142215Y-63266844D01*
X158270399Y-63319940D01*
X158270400Y-63319940D01*
X158270401Y-63319940D01*
X158451661Y-63244859D01*
X158542947Y-63207047D01*
X158655840Y-62934500D01*
X158610544Y-62825147D01*
X158542947Y-62661953D01*
X158542946Y-62661952D01*
X158270401Y-62549060D01*
X158270399Y-62549060D01*
X157989518Y-62665405D01*
X157941682Y-62665405D01*
X157660801Y-62549060D01*
X157660799Y-62549060D01*
X157388253Y-62661952D01*
X157388252Y-62661953D01*
X157275360Y-62934499D01*
X157275360Y-62934500D01*
X157131840Y-62934500D01*
X157086544Y-62825147D01*
X157018947Y-62661953D01*
X157018946Y-62661952D01*
X156746401Y-62549060D01*
X156746400Y-62549060D01*
X156737550Y-62552725D01*
X156724245Y-62558236D01*
X156676410Y-62558233D01*
X156645166Y-62529872D01*
X156612592Y-62468710D01*
X156612589Y-62468706D01*
X156486768Y-62314925D01*
X156473981Y-62288224D01*
X156428534Y-62072350D01*
X156367239Y-61781198D01*
X156367237Y-61781190D01*
X156367238Y-61781192D01*
X156366047Y-61776606D01*
X156365165Y-61773205D01*
X156363264Y-61767062D01*
X156360528Y-61758218D01*
X156314787Y-61682386D01*
X156307636Y-61635089D01*
X156310559Y-61626198D01*
X156389840Y-61434800D01*
X156387246Y-61428538D01*
X156331373Y-61293648D01*
X156276947Y-61162253D01*
X156276946Y-61162252D01*
X156213456Y-61135953D01*
X156179631Y-61102128D01*
X156175674Y-61068244D01*
X156175897Y-61066866D01*
X156183525Y-61019643D01*
X156181007Y-60950118D01*
X155864517Y-59613826D01*
X155867592Y-59575508D01*
X155889840Y-59521800D01*
X155889840Y-59521799D01*
X155773205Y-59240218D01*
X155773205Y-59192382D01*
X155799395Y-59129154D01*
X156037560Y-59129154D01*
X156150452Y-59401700D01*
X156150453Y-59401701D01*
X156422999Y-59514594D01*
X156423000Y-59514594D01*
X156423001Y-59514594D01*
X156559273Y-59458147D01*
X156695547Y-59401701D01*
X156808440Y-59129154D01*
X156798626Y-59105462D01*
X156695547Y-58856607D01*
X156695546Y-58856606D01*
X156423001Y-58743714D01*
X156422999Y-58743714D01*
X156150453Y-58856606D01*
X156150452Y-58856607D01*
X156037560Y-59129153D01*
X156037560Y-59129154D01*
X155799395Y-59129154D01*
X155889840Y-58910800D01*
X155889840Y-58910799D01*
X155776947Y-58638253D01*
X155776946Y-58638252D01*
X155504401Y-58525360D01*
X155504399Y-58525360D01*
X155231853Y-58638252D01*
X155231852Y-58638253D01*
X155118960Y-58910798D01*
X155118960Y-58910799D01*
X155118960Y-58910800D01*
X155195699Y-59096065D01*
X155235595Y-59192382D01*
X155235594Y-59240218D01*
X155164364Y-59412182D01*
X155134573Y-59444166D01*
X154363803Y-59829553D01*
X154333192Y-59848978D01*
X154313350Y-59864609D01*
X154287296Y-59889827D01*
X154287295Y-59889828D01*
X153491345Y-60835020D01*
X153491341Y-60835025D01*
X153470500Y-60865782D01*
X153458289Y-60888611D01*
X153444283Y-60922988D01*
X153444282Y-60922993D01*
X153434267Y-60957490D01*
X153434072Y-60958160D01*
X153427270Y-61017684D01*
X153427270Y-61017686D01*
X153427607Y-61023797D01*
X153411760Y-61068931D01*
X153389120Y-61084977D01*
X153245053Y-61144652D01*
X153245052Y-61144653D01*
X153132160Y-61417198D01*
X153132160Y-61417199D01*
X153132160Y-61417200D01*
X153231395Y-61656774D01*
X153231394Y-61704610D01*
X153229120Y-61709494D01*
X153199229Y-61767058D01*
X153038973Y-62319049D01*
X153009071Y-62356387D01*
X152981627Y-62364066D01*
X149898508Y-62496200D01*
X149711003Y-62496200D01*
X149666809Y-62477894D01*
X148654915Y-61466000D01*
X150767760Y-61466000D01*
X150880652Y-61738546D01*
X150880653Y-61738547D01*
X151153199Y-61851440D01*
X151153200Y-61851440D01*
X151153201Y-61851440D01*
X151310609Y-61786239D01*
X151425747Y-61738547D01*
X151538640Y-61466000D01*
X151525716Y-61434800D01*
X151425747Y-61193453D01*
X151425746Y-61193452D01*
X151153201Y-61080560D01*
X151153199Y-61080560D01*
X150880653Y-61193452D01*
X150880652Y-61193453D01*
X150767760Y-61465999D01*
X150767760Y-61466000D01*
X148654915Y-61466000D01*
X147435877Y-60246962D01*
X150780893Y-60246962D01*
X150893785Y-60519508D01*
X150893786Y-60519509D01*
X151166332Y-60632402D01*
X151166333Y-60632402D01*
X151166334Y-60632402D01*
X151312035Y-60572050D01*
X151438880Y-60519509D01*
X151551773Y-60246962D01*
X151438880Y-59974415D01*
X151438879Y-59974414D01*
X151166334Y-59861522D01*
X151166332Y-59861522D01*
X150893786Y-59974414D01*
X150893785Y-59974415D01*
X150780893Y-60246961D01*
X150780893Y-60246962D01*
X147435877Y-60246962D01*
X146611312Y-59422397D01*
X146597763Y-59402120D01*
X146586785Y-59375615D01*
X146586784Y-59375614D01*
X146572235Y-59369588D01*
X146547398Y-59359300D01*
X146467106Y-59326042D01*
X146440601Y-59315063D01*
X146440600Y-59315063D01*
X146414093Y-59326042D01*
X146390177Y-59330800D01*
X145377203Y-59330800D01*
X145333009Y-59312494D01*
X144897715Y-58877200D01*
X150236560Y-58877200D01*
X150349452Y-59149746D01*
X150349453Y-59149747D01*
X150621999Y-59262640D01*
X150622000Y-59262640D01*
X150622001Y-59262640D01*
X150791617Y-59192382D01*
X150894547Y-59149747D01*
X150987226Y-58926000D01*
X151906760Y-58926000D01*
X152019652Y-59198546D01*
X152019653Y-59198547D01*
X152292199Y-59311440D01*
X152292200Y-59311440D01*
X152292201Y-59311440D01*
X152442332Y-59249253D01*
X152564747Y-59198547D01*
X152677640Y-58926000D01*
X153612560Y-58926000D01*
X153725452Y-59198546D01*
X153725453Y-59198547D01*
X153997999Y-59311440D01*
X153998000Y-59311440D01*
X153998001Y-59311440D01*
X154115813Y-59262640D01*
X154258514Y-59203530D01*
X154306348Y-59203530D01*
X154340173Y-59237353D01*
X154343385Y-59245107D01*
X154615931Y-59358000D01*
X154615932Y-59358000D01*
X154615933Y-59358000D01*
X154752205Y-59301553D01*
X154888479Y-59245107D01*
X155001372Y-58972560D01*
X154982086Y-58926000D01*
X154888479Y-58700013D01*
X154888478Y-58700012D01*
X154615933Y-58587120D01*
X154615931Y-58587120D01*
X154355418Y-58695028D01*
X154307582Y-58695028D01*
X154273758Y-58661204D01*
X154270547Y-58653453D01*
X154270546Y-58653452D01*
X153998001Y-58540560D01*
X153997999Y-58540560D01*
X153725453Y-58653452D01*
X153725452Y-58653453D01*
X153612560Y-58925999D01*
X153612560Y-58926000D01*
X152677640Y-58926000D01*
X152662231Y-58888800D01*
X152615188Y-58775228D01*
X152615187Y-58727392D01*
X152649010Y-58693569D01*
X152876251Y-58599443D01*
X152989144Y-58326896D01*
X152937892Y-58203164D01*
X152876251Y-58054349D01*
X152876250Y-58054348D01*
X152603705Y-57941456D01*
X152603703Y-57941456D01*
X152331157Y-58054348D01*
X152331156Y-58054349D01*
X152218264Y-58326895D01*
X152218264Y-58326896D01*
X152280715Y-58477667D01*
X152280715Y-58525503D01*
X152246891Y-58559327D01*
X152019653Y-58653452D01*
X152019652Y-58653453D01*
X151906760Y-58925999D01*
X151906760Y-58926000D01*
X150987226Y-58926000D01*
X151007440Y-58877200D01*
X150931376Y-58693567D01*
X150894547Y-58604653D01*
X150894546Y-58604652D01*
X150622001Y-58491760D01*
X150621999Y-58491760D01*
X150349453Y-58604652D01*
X150349452Y-58604653D01*
X150236560Y-58877199D01*
X150236560Y-58877200D01*
X144897715Y-58877200D01*
X144605086Y-58584571D01*
X144586780Y-58540377D01*
X144605086Y-58496183D01*
X144649280Y-58477877D01*
X144673197Y-58482634D01*
X144690387Y-58489755D01*
X144690388Y-58489755D01*
X144826660Y-58433308D01*
X144962934Y-58376862D01*
X145075827Y-58104315D01*
X145055130Y-58054349D01*
X144962934Y-57831768D01*
X144962933Y-57831767D01*
X144690388Y-57718875D01*
X144690386Y-57718875D01*
X144417840Y-57831767D01*
X144417839Y-57831768D01*
X144304947Y-58104314D01*
X144312067Y-58121504D01*
X144312066Y-58169339D01*
X144278241Y-58203164D01*
X144230406Y-58203163D01*
X144210130Y-58189615D01*
X143606327Y-57585812D01*
X143592778Y-57565535D01*
X143581800Y-57539030D01*
X143581799Y-57539029D01*
X143542082Y-57522578D01*
X143435617Y-57478478D01*
X143435613Y-57478478D01*
X143433903Y-57479186D01*
X143397802Y-57482741D01*
X143392482Y-57481683D01*
X143382512Y-57479700D01*
X141975007Y-57479700D01*
X141968772Y-57480313D01*
X141940228Y-57483124D01*
X141940221Y-57483125D01*
X141916311Y-57487881D01*
X141911972Y-57489434D01*
X141911636Y-57488496D01*
X141888806Y-57494215D01*
X141759982Y-57494215D01*
X141747788Y-57493014D01*
X141729791Y-57489434D01*
X141680857Y-57479700D01*
X141357360Y-57479700D01*
X141350543Y-57480371D01*
X141322580Y-57483125D01*
X141298654Y-57487885D01*
X141294309Y-57489440D01*
X141293972Y-57488499D01*
X141271155Y-57494215D01*
X141210566Y-57494215D01*
X141198372Y-57493014D01*
X141180375Y-57489434D01*
X141131441Y-57479700D01*
X140335488Y-57479700D01*
X140326066Y-57481573D01*
X140313846Y-57484004D01*
X140277742Y-57480448D01*
X140272985Y-57478478D01*
X140272983Y-57478478D01*
X140190228Y-57512757D01*
X140142393Y-57512758D01*
X140108568Y-57478933D01*
X140108567Y-57453355D01*
X140104498Y-57453355D01*
X140104498Y-57453351D01*
X140108567Y-57432895D01*
X140108567Y-57431098D01*
X140108573Y-57431085D01*
X140109254Y-57429441D01*
X140109254Y-57429438D01*
X140127869Y-57384500D01*
X140116230Y-57356400D01*
X140111657Y-57345359D01*
X140106900Y-57321442D01*
X140106900Y-57200976D01*
X140106899Y-57200973D01*
X140047186Y-57056814D01*
X140047185Y-57056813D01*
X139852401Y-56976131D01*
X139852399Y-56976131D01*
X139657614Y-57056813D01*
X139657613Y-57056814D01*
X139597900Y-57200973D01*
X139597900Y-57250544D01*
X139579594Y-57294738D01*
X139535400Y-57313044D01*
X139491206Y-57294738D01*
X139477658Y-57274462D01*
X139419747Y-57134653D01*
X139419746Y-57134652D01*
X139147201Y-57021760D01*
X139147199Y-57021760D01*
X138874653Y-57134652D01*
X138874652Y-57134653D01*
X138761760Y-57407199D01*
X138761760Y-57419632D01*
X138761093Y-57419632D01*
X138761091Y-57453430D01*
X138727268Y-57487250D01*
X138540014Y-57564813D01*
X138540013Y-57564814D01*
X138459331Y-57759599D01*
X138459331Y-57772032D01*
X138454892Y-57772032D01*
X138454888Y-57796725D01*
X138421059Y-57830546D01*
X138397149Y-57835300D01*
X138099802Y-57835300D01*
X138096245Y-57835418D01*
X138092687Y-57835536D01*
X138019568Y-57853912D01*
X138019566Y-57853913D01*
X137976690Y-57875116D01*
X137976683Y-57875120D01*
X137921545Y-57917528D01*
X137921540Y-57917532D01*
X137738432Y-58126799D01*
X137404087Y-58508906D01*
X137380969Y-58525491D01*
X137161853Y-58616252D01*
X137161852Y-58616253D01*
X137048960Y-58888799D01*
X137048960Y-58888800D01*
X134772400Y-58888800D01*
X134772400Y-58253800D01*
X135905960Y-58253800D01*
X136018852Y-58526346D01*
X136018853Y-58526347D01*
X136291399Y-58639240D01*
X136291400Y-58639240D01*
X136291401Y-58639240D01*
X136512051Y-58547843D01*
X136563947Y-58526347D01*
X136676840Y-58253800D01*
X136655865Y-58203163D01*
X136563947Y-57981253D01*
X136563946Y-57981252D01*
X136291401Y-57868360D01*
X136291399Y-57868360D01*
X136018853Y-57981252D01*
X136018852Y-57981253D01*
X135905960Y-58253799D01*
X135905960Y-58253800D01*
X134772400Y-58253800D01*
X134772400Y-57212500D01*
X134790706Y-57168306D01*
X134834900Y-57150000D01*
X138531600Y-57150000D01*
X138531600Y-56696000D01*
X144654560Y-56696000D01*
X144767452Y-56968546D01*
X144767453Y-56968547D01*
X145039999Y-57081440D01*
X145040000Y-57081440D01*
X145040001Y-57081440D01*
X145207063Y-57012240D01*
X145312547Y-56968547D01*
X145425440Y-56696000D01*
X145406793Y-56650983D01*
X145312547Y-56423453D01*
X145312546Y-56423452D01*
X145040001Y-56310560D01*
X145039999Y-56310560D01*
X144767453Y-56423452D01*
X144767452Y-56423453D01*
X144654560Y-56695999D01*
X144654560Y-56696000D01*
X138531600Y-56696000D01*
X138531600Y-56653700D01*
X138549906Y-56609506D01*
X138594100Y-56591200D01*
X141732000Y-56591200D01*
X143287995Y-55035204D01*
X143332188Y-55016899D01*
X143333352Y-55016910D01*
X145887102Y-55066021D01*
X145930936Y-55085173D01*
X145948400Y-55128509D01*
X145948400Y-57607200D01*
X146253200Y-57962800D01*
X148082000Y-57962800D01*
X148658080Y-57356400D01*
X149277360Y-57356400D01*
X149390252Y-57628946D01*
X149390253Y-57628947D01*
X149662799Y-57741840D01*
X149662800Y-57741840D01*
X149662801Y-57741840D01*
X149799073Y-57685393D01*
X149935347Y-57628947D01*
X150048240Y-57356400D01*
X150046522Y-57352253D01*
X149935347Y-57083853D01*
X149935346Y-57083852D01*
X149662801Y-56970960D01*
X149662799Y-56970960D01*
X149390253Y-57083852D01*
X149390252Y-57083853D01*
X149277360Y-57356399D01*
X149277360Y-57356400D01*
X148658080Y-57356400D01*
X149047200Y-56946800D01*
X149047200Y-56897829D01*
X151973177Y-56897829D01*
X152088125Y-57175338D01*
X152088125Y-57223174D01*
X151976359Y-57493000D01*
X151976359Y-57493001D01*
X152089251Y-57765547D01*
X152089252Y-57765548D01*
X152361798Y-57878441D01*
X152361799Y-57878441D01*
X152361800Y-57878441D01*
X152498072Y-57821994D01*
X152634346Y-57765548D01*
X152692646Y-57624800D01*
X154856960Y-57624800D01*
X154969852Y-57897346D01*
X154969853Y-57897347D01*
X155242399Y-58010240D01*
X155242400Y-58010240D01*
X155242401Y-58010240D01*
X155466216Y-57917532D01*
X155514947Y-57897347D01*
X155627840Y-57624800D01*
X155608987Y-57579286D01*
X155514947Y-57352253D01*
X155514946Y-57352252D01*
X155242401Y-57239360D01*
X155242399Y-57239360D01*
X154969853Y-57352252D01*
X154969852Y-57352253D01*
X154856960Y-57624799D01*
X154856960Y-57624800D01*
X152692646Y-57624800D01*
X152747239Y-57493001D01*
X152745761Y-57489434D01*
X152632291Y-57215492D01*
X152632290Y-57167657D01*
X152723379Y-56947748D01*
X152757202Y-56913927D01*
X152805035Y-56913926D01*
X152805038Y-56913926D01*
X152805038Y-56913927D01*
X152927748Y-56964756D01*
X152927749Y-56964756D01*
X152927750Y-56964756D01*
X153085660Y-56899347D01*
X153200296Y-56851863D01*
X153300976Y-56608800D01*
X154221960Y-56608800D01*
X154334852Y-56881346D01*
X154334853Y-56881347D01*
X154607399Y-56994240D01*
X154607400Y-56994240D01*
X154607401Y-56994240D01*
X154774545Y-56925006D01*
X154879947Y-56881347D01*
X154992840Y-56608800D01*
X154980627Y-56579316D01*
X154940235Y-56481800D01*
X155491960Y-56481800D01*
X155604852Y-56754346D01*
X155604853Y-56754347D01*
X155877399Y-56867240D01*
X155877400Y-56867240D01*
X155877401Y-56867240D01*
X156013673Y-56810793D01*
X156149947Y-56754347D01*
X156262840Y-56481800D01*
X156250082Y-56451000D01*
X156149947Y-56209253D01*
X156149946Y-56209252D01*
X155877401Y-56096360D01*
X155877399Y-56096360D01*
X155604853Y-56209252D01*
X155604852Y-56209253D01*
X155491960Y-56481799D01*
X155491960Y-56481800D01*
X154940235Y-56481800D01*
X154879947Y-56336253D01*
X154879946Y-56336252D01*
X154607401Y-56223360D01*
X154607399Y-56223360D01*
X154334853Y-56336252D01*
X154334852Y-56336253D01*
X154221960Y-56608799D01*
X154221960Y-56608800D01*
X153300976Y-56608800D01*
X153313189Y-56579316D01*
X153292510Y-56529393D01*
X153221052Y-56356878D01*
X153221051Y-56309042D01*
X153254876Y-56275218D01*
X153254875Y-56275218D01*
X153305747Y-56254147D01*
X153305747Y-56254146D01*
X153305748Y-56254146D01*
X153418640Y-55981600D01*
X153418640Y-55981599D01*
X153402776Y-55943300D01*
X153402776Y-55895464D01*
X153436600Y-55861640D01*
X153442222Y-55860521D01*
X153451007Y-55856881D01*
X153451008Y-55856882D01*
X153723555Y-55743989D01*
X153836448Y-55471442D01*
X153823777Y-55440852D01*
X153723555Y-55198895D01*
X153723554Y-55198894D01*
X153451008Y-55086001D01*
X153178461Y-55198894D01*
X153178460Y-55198895D01*
X153065568Y-55471441D01*
X153065568Y-55471442D01*
X153081432Y-55509742D01*
X153081432Y-55557578D01*
X153047608Y-55591402D01*
X153041985Y-55592520D01*
X152760653Y-55709052D01*
X152760652Y-55709053D01*
X152647760Y-55981599D01*
X152647760Y-55981600D01*
X152739896Y-56204037D01*
X152739896Y-56251873D01*
X152706072Y-56285697D01*
X152655202Y-56306768D01*
X152655201Y-56306768D01*
X152562987Y-56529393D01*
X152529163Y-56563218D01*
X152481327Y-56563217D01*
X152358618Y-56512389D01*
X152358616Y-56512389D01*
X152086070Y-56625281D01*
X152086069Y-56625282D01*
X151973177Y-56897828D01*
X151973177Y-56897829D01*
X149047200Y-56897829D01*
X149047200Y-55713400D01*
X149378960Y-55713400D01*
X149491852Y-55985946D01*
X149491853Y-55985947D01*
X149764399Y-56098840D01*
X149764400Y-56098840D01*
X149764401Y-56098840D01*
X149936195Y-56027680D01*
X150036947Y-55985947D01*
X150149840Y-55713400D01*
X150148039Y-55709053D01*
X150036947Y-55440853D01*
X150036946Y-55440852D01*
X149764401Y-55327960D01*
X149764399Y-55327960D01*
X149491853Y-55440852D01*
X149491852Y-55440853D01*
X149378960Y-55713399D01*
X149378960Y-55713400D01*
X149047200Y-55713400D01*
X149047200Y-55397888D01*
X149065506Y-55353694D01*
X149435294Y-54983906D01*
X149479488Y-54965600D01*
X153427475Y-54965600D01*
X153447206Y-54973773D01*
G37*
%TD.AperFunction*%
%TD*%
%TA.AperFunction,Conductor*%
%TO.N,Earth*%
G36*
X145108039Y-56531733D02*
G01*
X145152162Y-56550010D01*
X145185986Y-56583834D01*
X145222540Y-56672082D01*
X145222541Y-56719917D01*
X145222540Y-56719918D01*
X145185987Y-56808164D01*
X145152163Y-56841988D01*
X145063917Y-56878541D01*
X145016082Y-56878541D01*
X145016081Y-56878541D01*
X144927835Y-56841988D01*
X144894011Y-56808164D01*
X144857457Y-56719916D01*
X144857456Y-56672083D01*
X144894010Y-56583834D01*
X144927834Y-56550011D01*
X145016081Y-56513456D01*
X145063914Y-56513456D01*
X145108039Y-56531733D01*
G37*
%TD.AperFunction*%
%TA.AperFunction,Conductor*%
G36*
X141396012Y-53336606D02*
G01*
X141414318Y-53380800D01*
X141409561Y-53404715D01*
X141357460Y-53530500D01*
X141357460Y-53530501D01*
X141470352Y-53803046D01*
X141470353Y-53803047D01*
X141742899Y-53915940D01*
X141742900Y-53915940D01*
X141742901Y-53915940D01*
X141879173Y-53859493D01*
X142015447Y-53803047D01*
X142128340Y-53530500D01*
X142076239Y-53404716D01*
X142076240Y-53356882D01*
X142110064Y-53323057D01*
X142133982Y-53318300D01*
X147010518Y-53318300D01*
X147054712Y-53336606D01*
X147073018Y-53380800D01*
X147054712Y-53424994D01*
X147053452Y-53426253D01*
X146940560Y-53698799D01*
X146940560Y-53698800D01*
X147053452Y-53971346D01*
X147053453Y-53971347D01*
X147325999Y-54084240D01*
X147326000Y-54084240D01*
X147326001Y-54084240D01*
X147462552Y-54027678D01*
X147598547Y-53971347D01*
X147711440Y-53698800D01*
X147692569Y-53653242D01*
X147598547Y-53426253D01*
X147597288Y-53424994D01*
X147578982Y-53380800D01*
X147597288Y-53336606D01*
X147641482Y-53318300D01*
X158255661Y-53318300D01*
X158299855Y-53336606D01*
X158318161Y-53380800D01*
X158299855Y-53424994D01*
X158279579Y-53438542D01*
X158183069Y-53478517D01*
X158183068Y-53478518D01*
X158070176Y-53751064D01*
X158070176Y-53751065D01*
X158183068Y-54023611D01*
X158183069Y-54023612D01*
X158455615Y-54136505D01*
X158455616Y-54136505D01*
X158455617Y-54136505D01*
X158642326Y-54059167D01*
X158728163Y-54023612D01*
X158841056Y-53751065D01*
X158800536Y-53653242D01*
X158728163Y-53478518D01*
X158728162Y-53478517D01*
X158631653Y-53438542D01*
X158597829Y-53404718D01*
X158597829Y-53356882D01*
X158631653Y-53323058D01*
X158655571Y-53318300D01*
X160750400Y-53318300D01*
X160794594Y-53336606D01*
X160812900Y-53380800D01*
X160812900Y-80940800D01*
X160794594Y-80984994D01*
X160750400Y-81003300D01*
X133190400Y-81003300D01*
X133146206Y-80984994D01*
X133127900Y-80940800D01*
X133127900Y-80668357D01*
X133347900Y-80668357D01*
X133355298Y-80705548D01*
X133355298Y-80705549D01*
X133383477Y-80747722D01*
X133411657Y-80766550D01*
X133425652Y-80775902D01*
X133462842Y-80783300D01*
X133462843Y-80783300D01*
X134837957Y-80783300D01*
X134837958Y-80783300D01*
X134875148Y-80775902D01*
X134917322Y-80747722D01*
X134945502Y-80705548D01*
X134952900Y-80668358D01*
X134952900Y-79981400D01*
X139574960Y-79981400D01*
X139687852Y-80253946D01*
X139687853Y-80253947D01*
X139960399Y-80366840D01*
X139960400Y-80366840D01*
X139960401Y-80366840D01*
X140096673Y-80310393D01*
X140232947Y-80253947D01*
X140332668Y-80013200D01*
X140488960Y-80013200D01*
X140601852Y-80285746D01*
X140601853Y-80285747D01*
X140874399Y-80398640D01*
X140874400Y-80398640D01*
X140874401Y-80398640D01*
X141010673Y-80342193D01*
X141146947Y-80285747D01*
X141259840Y-80013200D01*
X141246419Y-79980800D01*
X141146947Y-79740653D01*
X141146946Y-79740652D01*
X140874401Y-79627760D01*
X140874399Y-79627760D01*
X140601853Y-79740652D01*
X140601852Y-79740653D01*
X140488960Y-80013199D01*
X140488960Y-80013200D01*
X140332668Y-80013200D01*
X140345840Y-79981400D01*
X140345591Y-79980800D01*
X140232947Y-79708853D01*
X140232946Y-79708852D01*
X139960401Y-79595960D01*
X139960399Y-79595960D01*
X139687853Y-79708852D01*
X139687852Y-79708853D01*
X139574960Y-79981399D01*
X139574960Y-79981400D01*
X134952900Y-79981400D01*
X134952900Y-79293242D01*
X134945502Y-79256052D01*
X134936273Y-79242240D01*
X134917322Y-79213877D01*
X134875148Y-79185698D01*
X134845096Y-79179720D01*
X134837958Y-79178300D01*
X133462842Y-79178300D01*
X133455704Y-79179720D01*
X133425651Y-79185698D01*
X133425650Y-79185698D01*
X133383477Y-79213877D01*
X133355298Y-79256050D01*
X133355298Y-79256051D01*
X133347900Y-79293242D01*
X133347900Y-80668357D01*
X133127900Y-80668357D01*
X133127900Y-77980800D01*
X133332178Y-77980800D01*
X133394460Y-78293919D01*
X133394461Y-78293921D01*
X133444312Y-78368527D01*
X133571830Y-78559370D01*
X133689358Y-78637900D01*
X133837278Y-78736738D01*
X133837280Y-78736739D01*
X134150399Y-78799022D01*
X134150400Y-78799022D01*
X134150401Y-78799022D01*
X134306960Y-78767880D01*
X134463520Y-78736739D01*
X134728970Y-78559370D01*
X134906339Y-78293920D01*
X134968622Y-77980800D01*
X134906339Y-77667680D01*
X134883776Y-77633913D01*
X134842568Y-77572240D01*
X134728970Y-77402230D01*
X134588610Y-77308444D01*
X134463521Y-77224861D01*
X134463519Y-77224860D01*
X134150401Y-77162578D01*
X134150399Y-77162578D01*
X133837280Y-77224860D01*
X133837278Y-77224861D01*
X133571830Y-77402230D01*
X133394461Y-77667678D01*
X133394460Y-77667680D01*
X133332178Y-77980799D01*
X133332178Y-77980800D01*
X133127900Y-77980800D01*
X133127900Y-75980800D01*
X133332178Y-75980800D01*
X133394460Y-76293919D01*
X133394461Y-76293921D01*
X133432003Y-76350106D01*
X133571830Y-76559370D01*
X133770464Y-76692093D01*
X133837278Y-76736738D01*
X133837280Y-76736739D01*
X134150399Y-76799022D01*
X134150400Y-76799022D01*
X134150401Y-76799022D01*
X134306960Y-76767880D01*
X134463520Y-76736739D01*
X134728970Y-76559370D01*
X134906339Y-76293920D01*
X134968622Y-75980800D01*
X134964759Y-75961381D01*
X134906339Y-75667680D01*
X134906338Y-75667678D01*
X134839600Y-75567799D01*
X134728970Y-75402230D01*
X134596245Y-75313545D01*
X134463521Y-75224861D01*
X134463519Y-75224860D01*
X134150401Y-75162578D01*
X134150399Y-75162578D01*
X133837280Y-75224860D01*
X133837278Y-75224861D01*
X133571830Y-75402230D01*
X133394461Y-75667678D01*
X133394460Y-75667680D01*
X133332178Y-75980799D01*
X133332178Y-75980800D01*
X133127900Y-75980800D01*
X133127900Y-60150800D01*
X133764360Y-60150800D01*
X133877252Y-60423346D01*
X133877253Y-60423347D01*
X134149799Y-60536240D01*
X134149800Y-60536240D01*
X134149801Y-60536240D01*
X134240648Y-60498608D01*
X134422347Y-60423347D01*
X134442158Y-60375517D01*
X134475982Y-60341695D01*
X134523818Y-60341694D01*
X134557642Y-60375519D01*
X134562400Y-60399437D01*
X134562400Y-73199374D01*
X134557643Y-73223291D01*
X134546663Y-73249800D01*
X134585040Y-73342449D01*
X134607215Y-73395985D01*
X134633721Y-73406964D01*
X134653997Y-73420512D01*
X136055208Y-74821722D01*
X136073514Y-74865916D01*
X136068757Y-74889833D01*
X136050960Y-74932800D01*
X136100942Y-75053466D01*
X136105700Y-75077384D01*
X136105700Y-75423214D01*
X136100942Y-75447132D01*
X136050960Y-75567799D01*
X136050960Y-75567800D01*
X136163852Y-75840346D01*
X136163853Y-75840347D01*
X136436400Y-75953240D01*
X136449450Y-75947833D01*
X136497284Y-75947831D01*
X136517563Y-75961381D01*
X136862094Y-76305912D01*
X136880400Y-76350106D01*
X136880400Y-78948229D01*
X136862094Y-78992423D01*
X136812795Y-79041722D01*
X136792519Y-79055270D01*
X136671853Y-79105252D01*
X136671852Y-79105252D01*
X136558960Y-79377799D01*
X136558960Y-79377800D01*
X136671852Y-79650346D01*
X136671853Y-79650347D01*
X136944399Y-79763240D01*
X136944400Y-79763240D01*
X136944401Y-79763240D01*
X137216945Y-79650348D01*
X137216945Y-79650347D01*
X137216947Y-79650347D01*
X137266930Y-79529674D01*
X137280475Y-79509404D01*
X137497674Y-79292206D01*
X137541869Y-79273900D01*
X140559762Y-79273900D01*
X140603956Y-79292206D01*
X140617504Y-79312482D01*
X140646652Y-79382852D01*
X140646653Y-79382853D01*
X140919199Y-79495746D01*
X140919200Y-79495746D01*
X140919201Y-79495746D01*
X141055473Y-79439299D01*
X141191747Y-79382853D01*
X141220895Y-79312482D01*
X141254720Y-79278657D01*
X141278638Y-79273900D01*
X142412197Y-79273900D01*
X142456391Y-79292206D01*
X142474697Y-79336400D01*
X142469940Y-79360315D01*
X142412122Y-79499902D01*
X142412122Y-79499903D01*
X142525014Y-79772448D01*
X142525015Y-79772449D01*
X142797561Y-79885342D01*
X142797562Y-79885342D01*
X142797563Y-79885342D01*
X142933835Y-79828895D01*
X143070109Y-79772449D01*
X143183002Y-79499902D01*
X143125184Y-79360316D01*
X143125185Y-79312482D01*
X143159009Y-79278657D01*
X143182927Y-79273900D01*
X143735088Y-79273900D01*
X143759007Y-79278658D01*
X143779281Y-79287056D01*
X143779282Y-79287056D01*
X143904984Y-79234988D01*
X143904987Y-79234986D01*
X143925466Y-79226504D01*
X143936445Y-79199995D01*
X143949990Y-79179723D01*
X144536008Y-78593706D01*
X144580203Y-78575400D01*
X146774400Y-78575400D01*
X146818594Y-78593706D01*
X146836900Y-78637900D01*
X146836900Y-79205014D01*
X146832142Y-79228932D01*
X146782160Y-79349599D01*
X146782160Y-79349600D01*
X146895052Y-79622146D01*
X146895053Y-79622147D01*
X147167599Y-79735040D01*
X147167600Y-79735040D01*
X147167601Y-79735040D01*
X147330226Y-79667678D01*
X147440147Y-79622147D01*
X147553040Y-79349600D01*
X147547572Y-79336400D01*
X147503058Y-79228932D01*
X147498300Y-79205014D01*
X147498300Y-79001881D01*
X147516606Y-78957687D01*
X147560800Y-78939381D01*
X147604994Y-78957687D01*
X147604996Y-78957688D01*
X147612251Y-78964943D01*
X147612253Y-78964947D01*
X147634394Y-78974118D01*
X147884799Y-79077840D01*
X147884800Y-79077840D01*
X147884801Y-79077840D01*
X148021073Y-79021393D01*
X148157347Y-78964947D01*
X148270240Y-78692400D01*
X148252312Y-78649118D01*
X148252311Y-78601283D01*
X148286136Y-78567458D01*
X148310054Y-78562700D01*
X148725834Y-78562700D01*
X148725835Y-78562700D01*
X148740348Y-78560547D01*
X148786749Y-78572169D01*
X148810818Y-78610177D01*
X148917233Y-79145163D01*
X148917234Y-79145165D01*
X149089000Y-79402230D01*
X149332198Y-79766202D01*
X149701857Y-80013200D01*
X149953234Y-80181165D01*
X149953236Y-80181166D01*
X150685799Y-80326882D01*
X150685800Y-80326882D01*
X150685801Y-80326882D01*
X151052474Y-80253946D01*
X151418364Y-80181166D01*
X151718233Y-79980800D01*
X154972178Y-79980800D01*
X155034460Y-80293919D01*
X155034461Y-80293921D01*
X155083185Y-80366840D01*
X155211830Y-80559370D01*
X155374940Y-80668357D01*
X155477278Y-80736738D01*
X155477280Y-80736739D01*
X155790399Y-80799022D01*
X155790400Y-80799022D01*
X155790401Y-80799022D01*
X156048304Y-80747722D01*
X156103520Y-80736739D01*
X156368970Y-80559370D01*
X156546339Y-80293920D01*
X156608622Y-79980800D01*
X156972178Y-79980800D01*
X157034460Y-80293919D01*
X157034461Y-80293921D01*
X157083185Y-80366840D01*
X157211830Y-80559370D01*
X157374940Y-80668357D01*
X157477278Y-80736738D01*
X157477280Y-80736739D01*
X157790399Y-80799022D01*
X157790400Y-80799022D01*
X157790401Y-80799022D01*
X158048304Y-80747722D01*
X158103520Y-80736739D01*
X158205860Y-80668357D01*
X158987900Y-80668357D01*
X158995298Y-80705548D01*
X158995298Y-80705549D01*
X159023477Y-80747722D01*
X159051657Y-80766550D01*
X159065652Y-80775902D01*
X159102842Y-80783300D01*
X159102843Y-80783300D01*
X160477957Y-80783300D01*
X160477958Y-80783300D01*
X160515148Y-80775902D01*
X160557322Y-80747722D01*
X160585502Y-80705548D01*
X160592900Y-80668358D01*
X160592900Y-79293242D01*
X160585502Y-79256052D01*
X160576273Y-79242240D01*
X160557322Y-79213877D01*
X160515148Y-79185698D01*
X160485096Y-79179720D01*
X160477958Y-79178300D01*
X159102842Y-79178300D01*
X159095704Y-79179720D01*
X159065651Y-79185698D01*
X159065650Y-79185698D01*
X159023477Y-79213877D01*
X158995298Y-79256050D01*
X158995298Y-79256051D01*
X158987900Y-79293242D01*
X158987900Y-80668357D01*
X158205860Y-80668357D01*
X158368970Y-80559370D01*
X158546339Y-80293920D01*
X158608622Y-79980800D01*
X158546339Y-79667680D01*
X158534757Y-79650347D01*
X158498417Y-79595960D01*
X158368970Y-79402230D01*
X158205859Y-79293242D01*
X158103521Y-79224861D01*
X158103519Y-79224860D01*
X157790401Y-79162578D01*
X157790399Y-79162578D01*
X157477280Y-79224860D01*
X157477278Y-79224861D01*
X157211830Y-79402230D01*
X157034461Y-79667678D01*
X157034460Y-79667680D01*
X156972178Y-79980799D01*
X156972178Y-79980800D01*
X156608622Y-79980800D01*
X156546339Y-79667680D01*
X156534757Y-79650347D01*
X156498417Y-79595960D01*
X156368970Y-79402230D01*
X156205859Y-79293242D01*
X156103521Y-79224861D01*
X156103519Y-79224860D01*
X155790401Y-79162578D01*
X155790399Y-79162578D01*
X155477280Y-79224860D01*
X155477278Y-79224861D01*
X155211830Y-79402230D01*
X155034461Y-79667678D01*
X155034460Y-79667680D01*
X154972178Y-79980799D01*
X154972178Y-79980800D01*
X151718233Y-79980800D01*
X152039402Y-79766202D01*
X152454366Y-79145164D01*
X152560906Y-78609544D01*
X152587482Y-78569771D01*
X152634398Y-78560439D01*
X152636528Y-78560862D01*
X152645765Y-78562700D01*
X153999711Y-78562700D01*
X153999712Y-78562700D01*
X154067945Y-78549127D01*
X154112139Y-78530821D01*
X154119995Y-78525571D01*
X154124693Y-78522433D01*
X154159416Y-78511900D01*
X154177789Y-78511900D01*
X154201706Y-78516657D01*
X154256000Y-78539147D01*
X154443327Y-78461554D01*
X154443327Y-78461553D01*
X154460843Y-78454298D01*
X154460843Y-78454297D01*
X154509107Y-78434307D01*
X154531596Y-78380010D01*
X154545147Y-78359733D01*
X154548154Y-78356727D01*
X154861075Y-78043806D01*
X154905269Y-78025500D01*
X155232815Y-78025500D01*
X155256733Y-78030258D01*
X155377399Y-78080240D01*
X155377400Y-78080240D01*
X155377401Y-78080240D01*
X155513673Y-78023793D01*
X155649947Y-77967347D01*
X155762840Y-77694800D01*
X155757432Y-77681746D01*
X155757432Y-77633913D01*
X155770978Y-77613638D01*
X155975811Y-77408805D01*
X156020005Y-77390500D01*
X156682177Y-77390500D01*
X156682180Y-77390500D01*
X156869507Y-77312907D01*
X156871356Y-77308442D01*
X156905178Y-77274618D01*
X156928160Y-77269867D01*
X158205758Y-77250800D01*
X158757832Y-77250800D01*
X158802026Y-77269106D01*
X158851323Y-77318404D01*
X158864869Y-77338678D01*
X158914852Y-77459346D01*
X158914852Y-77459347D01*
X159187399Y-77572240D01*
X159187400Y-77572240D01*
X159187401Y-77572240D01*
X159323673Y-77515793D01*
X159459947Y-77459347D01*
X159572840Y-77186800D01*
X159459947Y-76914253D01*
X159459946Y-76914252D01*
X159339278Y-76864269D01*
X159319002Y-76850721D01*
X159000605Y-76532324D01*
X158982299Y-76488130D01*
X158995173Y-74170800D01*
X159405560Y-74170800D01*
X159518452Y-74443346D01*
X159518453Y-74443347D01*
X159790999Y-74556240D01*
X159791000Y-74556240D01*
X159791001Y-74556240D01*
X159994095Y-74472115D01*
X160063547Y-74443347D01*
X160176440Y-74170800D01*
X160063547Y-73898253D01*
X160063546Y-73898252D01*
X159791001Y-73785360D01*
X159790999Y-73785360D01*
X159518453Y-73898252D01*
X159518452Y-73898253D01*
X159405560Y-74170799D01*
X159405560Y-74170800D01*
X158995173Y-74170800D01*
X158999969Y-73307600D01*
X159843760Y-73307600D01*
X159956652Y-73580146D01*
X159956653Y-73580147D01*
X160229199Y-73693040D01*
X160229200Y-73693040D01*
X160229201Y-73693040D01*
X160365473Y-73636593D01*
X160501747Y-73580147D01*
X160614640Y-73307600D01*
X160590698Y-73249800D01*
X160501747Y-73035053D01*
X160501746Y-73035052D01*
X160229201Y-72922160D01*
X160229199Y-72922160D01*
X159956653Y-73035052D01*
X159956652Y-73035053D01*
X159843760Y-73307599D01*
X159843760Y-73307600D01*
X158999969Y-73307600D01*
X159004193Y-72547191D01*
X159004192Y-72547188D01*
X159004200Y-72545853D01*
X159022751Y-72501761D01*
X159066699Y-72483700D01*
X159737057Y-72483700D01*
X159737058Y-72483700D01*
X159774248Y-72476302D01*
X159816422Y-72448122D01*
X159844602Y-72405948D01*
X159852000Y-72368758D01*
X159852000Y-70643642D01*
X159844602Y-70606452D01*
X159844601Y-70606450D01*
X159816422Y-70564277D01*
X159774248Y-70536098D01*
X159737058Y-70528700D01*
X159737057Y-70528700D01*
X159078255Y-70528700D01*
X159034061Y-70510394D01*
X159015755Y-70466200D01*
X159015756Y-70465853D01*
X159018296Y-70008619D01*
X159018295Y-70008610D01*
X159016330Y-69994972D01*
X159028145Y-69948618D01*
X159065997Y-69924758D01*
X159255901Y-69886985D01*
X159579238Y-69670938D01*
X159795285Y-69347601D01*
X159871150Y-68966200D01*
X159795285Y-68584799D01*
X159579238Y-68261462D01*
X159417569Y-68153438D01*
X159255902Y-68045415D01*
X159255900Y-68045414D01*
X159076511Y-68009732D01*
X159036737Y-67983156D01*
X159027405Y-67936240D01*
X159027415Y-67936189D01*
X159029877Y-67924166D01*
X159029900Y-67920101D01*
X159029900Y-65371357D01*
X159026473Y-65336569D01*
X159021715Y-65312651D01*
X159014558Y-65299262D01*
X159009869Y-65251659D01*
X159040214Y-65214681D01*
X159045744Y-65212065D01*
X159079347Y-65198147D01*
X159192240Y-64925600D01*
X159168757Y-64868908D01*
X159079347Y-64653053D01*
X159079346Y-64653052D01*
X159046182Y-64639315D01*
X159012357Y-64605490D01*
X159012357Y-64557656D01*
X159016327Y-64548075D01*
X159029900Y-64479842D01*
X159029900Y-64044380D01*
X159044385Y-64004369D01*
X159228088Y-63783927D01*
X159258764Y-63730480D01*
X159258764Y-63730478D01*
X159258766Y-63730476D01*
X159264218Y-63715414D01*
X159273250Y-63690469D01*
X159283900Y-63629771D01*
X159283900Y-62004369D01*
X159283620Y-61997312D01*
X159282558Y-61983927D01*
X159256710Y-61904657D01*
X159256708Y-61904654D01*
X159256709Y-61904654D01*
X159231663Y-61863915D01*
X159231659Y-61863908D01*
X159226314Y-61858142D01*
X159184367Y-61812892D01*
X159175470Y-61806447D01*
X159119382Y-61765818D01*
X159098308Y-61739123D01*
X159079306Y-61693248D01*
X159074550Y-61668883D01*
X159080512Y-60834358D01*
X159080512Y-60834356D01*
X159067794Y-60766936D01*
X159050290Y-60723117D01*
X159050288Y-60723113D01*
X159013057Y-60665490D01*
X158998337Y-60650225D01*
X158980837Y-60605705D01*
X158985585Y-60582923D01*
X159004922Y-60536240D01*
X159006347Y-60532800D01*
X158928754Y-60345473D01*
X158928753Y-60345472D01*
X158926398Y-60339786D01*
X158926398Y-60339785D01*
X158926396Y-60339782D01*
X158901507Y-60279693D01*
X158901506Y-60279692D01*
X158867057Y-60265423D01*
X158847211Y-60257203D01*
X158826936Y-60243655D01*
X158744527Y-60161246D01*
X157853406Y-59270124D01*
X157835100Y-59225930D01*
X157835100Y-58898384D01*
X157839858Y-58874466D01*
X157889840Y-58753800D01*
X157889840Y-58753799D01*
X157776947Y-58481253D01*
X157776946Y-58481252D01*
X157504401Y-58368360D01*
X157504399Y-58368360D01*
X157491343Y-58373767D01*
X157443508Y-58373764D01*
X157423235Y-58360217D01*
X157403818Y-58340800D01*
X158972178Y-58340800D01*
X159034460Y-58653919D01*
X159034461Y-58653921D01*
X159101198Y-58753799D01*
X159211830Y-58919370D01*
X159410464Y-59052093D01*
X159477278Y-59096738D01*
X159477280Y-59096739D01*
X159790399Y-59159022D01*
X159790400Y-59159022D01*
X159790401Y-59159022D01*
X159946960Y-59127880D01*
X160103520Y-59096739D01*
X160368970Y-58919370D01*
X160546339Y-58653920D01*
X160608622Y-58340800D01*
X160546339Y-58027680D01*
X160368970Y-57762230D01*
X160184302Y-57638838D01*
X160103521Y-57584861D01*
X160103519Y-57584860D01*
X159790401Y-57522578D01*
X159790399Y-57522578D01*
X159477280Y-57584860D01*
X159477278Y-57584861D01*
X159211830Y-57762230D01*
X159034461Y-58027678D01*
X159034460Y-58027680D01*
X158972178Y-58340799D01*
X158972178Y-58340800D01*
X157403818Y-58340800D01*
X157294606Y-58231587D01*
X157276300Y-58187393D01*
X157276300Y-58049422D01*
X157276300Y-58049421D01*
X157276300Y-58049420D01*
X157198707Y-57862093D01*
X157198706Y-57862092D01*
X157193949Y-57850608D01*
X157197445Y-57849159D01*
X157187399Y-57824896D01*
X157187399Y-56559917D01*
X157187399Y-56340800D01*
X158972178Y-56340800D01*
X159034460Y-56653919D01*
X159034461Y-56653921D01*
X159098232Y-56749360D01*
X159211830Y-56919370D01*
X159410464Y-57052093D01*
X159477278Y-57096738D01*
X159477280Y-57096739D01*
X159790399Y-57159022D01*
X159790400Y-57159022D01*
X159790401Y-57159022D01*
X159946960Y-57127880D01*
X160103520Y-57096739D01*
X160368970Y-56919370D01*
X160546339Y-56653920D01*
X160608622Y-56340800D01*
X160593096Y-56262747D01*
X160546339Y-56027680D01*
X160546338Y-56027678D01*
X160444919Y-55875895D01*
X160368970Y-55762230D01*
X160236244Y-55673545D01*
X160103521Y-55584861D01*
X160103519Y-55584860D01*
X159790401Y-55522578D01*
X159790399Y-55522578D01*
X159477280Y-55584860D01*
X159477278Y-55584861D01*
X159211830Y-55762230D01*
X159034461Y-56027678D01*
X159034460Y-56027680D01*
X158972178Y-56340799D01*
X158972178Y-56340800D01*
X157187399Y-56340800D01*
X157187399Y-55291882D01*
X157205705Y-55247691D01*
X157225979Y-55234144D01*
X157268947Y-55216347D01*
X157346815Y-55028357D01*
X158987900Y-55028357D01*
X158995298Y-55065548D01*
X158995298Y-55065549D01*
X159023477Y-55107722D01*
X159051656Y-55126550D01*
X159065652Y-55135902D01*
X159102842Y-55143300D01*
X159102843Y-55143300D01*
X160477957Y-55143300D01*
X160477958Y-55143300D01*
X160515148Y-55135902D01*
X160557322Y-55107722D01*
X160585502Y-55065548D01*
X160592900Y-55028358D01*
X160592900Y-53653242D01*
X160585502Y-53616052D01*
X160564661Y-53584861D01*
X160557322Y-53573877D01*
X160515148Y-53545698D01*
X160477958Y-53538300D01*
X159102842Y-53538300D01*
X159084246Y-53541999D01*
X159065651Y-53545698D01*
X159065650Y-53545698D01*
X159023477Y-53573877D01*
X158995298Y-53616050D01*
X158995298Y-53616051D01*
X158987900Y-53653242D01*
X158987900Y-55028357D01*
X157346815Y-55028357D01*
X157381840Y-54943800D01*
X157372063Y-54920197D01*
X157268947Y-54671253D01*
X157268946Y-54671252D01*
X156996401Y-54558360D01*
X156996399Y-54558360D01*
X156723853Y-54671252D01*
X156723852Y-54671253D01*
X156706056Y-54714218D01*
X156672232Y-54748042D01*
X156648314Y-54752800D01*
X154229038Y-54752800D01*
X154184844Y-54734494D01*
X154166538Y-54690300D01*
X154184844Y-54646106D01*
X154205120Y-54632558D01*
X154226988Y-54623499D01*
X154252947Y-54612747D01*
X154365840Y-54340200D01*
X154324656Y-54240774D01*
X154252947Y-54067653D01*
X154252946Y-54067652D01*
X153980401Y-53954760D01*
X153980400Y-53954760D01*
X153867741Y-54001424D01*
X153819906Y-54001423D01*
X153786081Y-53967598D01*
X153786082Y-53919763D01*
X153793440Y-53902000D01*
X153730920Y-53751065D01*
X153680547Y-53629453D01*
X153680546Y-53629452D01*
X153408001Y-53516560D01*
X153407999Y-53516560D01*
X153135453Y-53629452D01*
X153135452Y-53629453D01*
X153022560Y-53901999D01*
X153022560Y-53902000D01*
X153135452Y-54174546D01*
X153135453Y-54174547D01*
X153407999Y-54287440D01*
X153408000Y-54287440D01*
X153408001Y-54287440D01*
X153520658Y-54240775D01*
X153568493Y-54240774D01*
X153602318Y-54274599D01*
X153602319Y-54322434D01*
X153594960Y-54340200D01*
X153707852Y-54612746D01*
X153707853Y-54612747D01*
X153755680Y-54632558D01*
X153789505Y-54666382D01*
X153789504Y-54714218D01*
X153755680Y-54748043D01*
X153731762Y-54752800D01*
X150566949Y-54752800D01*
X150522755Y-54734494D01*
X150509207Y-54714218D01*
X150440578Y-54548533D01*
X150440577Y-54548532D01*
X150168032Y-54435640D01*
X150168030Y-54435640D01*
X149895484Y-54548532D01*
X149895483Y-54548533D01*
X149812564Y-54748718D01*
X149778740Y-54782543D01*
X149754822Y-54787300D01*
X149479488Y-54787300D01*
X149468167Y-54789551D01*
X149411255Y-54800872D01*
X149367063Y-54819178D01*
X149367059Y-54819180D01*
X149309217Y-54857828D01*
X148939428Y-55227617D01*
X148900780Y-55285459D01*
X148900778Y-55285463D01*
X148882472Y-55329655D01*
X148868900Y-55397888D01*
X148868900Y-55756816D01*
X148864143Y-55780733D01*
X148840463Y-55837903D01*
X148851442Y-55864409D01*
X148856200Y-55888326D01*
X148856200Y-56864023D01*
X148839013Y-56907068D01*
X148804119Y-56943800D01*
X148528813Y-57233596D01*
X148412150Y-57356399D01*
X148295565Y-57479119D01*
X148056988Y-57717697D01*
X148012794Y-57736003D01*
X146575480Y-57736003D01*
X146531286Y-57717697D01*
X146517738Y-57697421D01*
X146499941Y-57654456D01*
X146499940Y-57654455D01*
X146227395Y-57541563D01*
X146227394Y-57541563D01*
X146219870Y-57544679D01*
X146213115Y-57547477D01*
X146165280Y-57547474D01*
X146131456Y-57513648D01*
X146126700Y-57489733D01*
X146126700Y-55223984D01*
X146131458Y-55200066D01*
X146154972Y-55143300D01*
X146181440Y-55079400D01*
X146175702Y-55065548D01*
X146068547Y-54806853D01*
X146068546Y-54806852D01*
X145796001Y-54693960D01*
X145796000Y-54693960D01*
X145720592Y-54725194D01*
X145672758Y-54725194D01*
X145631400Y-54708063D01*
X145604893Y-54719042D01*
X145580977Y-54723800D01*
X144712986Y-54723800D01*
X144668792Y-54705494D01*
X144655244Y-54685218D01*
X144637447Y-54642253D01*
X144637446Y-54642252D01*
X144364901Y-54529360D01*
X144364899Y-54529360D01*
X144092353Y-54642252D01*
X144092352Y-54642253D01*
X144031146Y-54790018D01*
X143997322Y-54823843D01*
X143973404Y-54828600D01*
X143354023Y-54828600D01*
X143330106Y-54823842D01*
X143303600Y-54812863D01*
X143303599Y-54812863D01*
X143208703Y-54852171D01*
X143157414Y-54873415D01*
X143146434Y-54899922D01*
X143132886Y-54920197D01*
X142064891Y-55988194D01*
X142020697Y-56006500D01*
X139086474Y-56006500D01*
X139062556Y-56001742D01*
X139008264Y-55979253D01*
X139008262Y-55979253D01*
X138891350Y-56027680D01*
X138755154Y-56084093D01*
X138732666Y-56138386D01*
X138719118Y-56158662D01*
X138644563Y-56233217D01*
X138600369Y-56251523D01*
X138576452Y-56246766D01*
X138563400Y-56241360D01*
X138563399Y-56241360D01*
X138290853Y-56354252D01*
X138290852Y-56354253D01*
X138177960Y-56626799D01*
X138177960Y-56626800D01*
X138183366Y-56639852D01*
X138183365Y-56687688D01*
X138169817Y-56707963D01*
X138041187Y-56836594D01*
X137996994Y-56854900D01*
X137818056Y-56854900D01*
X137794139Y-56850143D01*
X137617200Y-56776853D01*
X137617199Y-56776853D01*
X137364093Y-56881692D01*
X137364092Y-56881693D01*
X137354348Y-56905218D01*
X137320523Y-56939043D01*
X137296606Y-56943800D01*
X135101486Y-56943800D01*
X135057292Y-56925494D01*
X135043744Y-56905218D01*
X135025947Y-56862253D01*
X135025946Y-56862252D01*
X134753401Y-56749360D01*
X134753399Y-56749360D01*
X134480853Y-56862252D01*
X134480852Y-56862253D01*
X134367960Y-57134799D01*
X134367960Y-57134800D01*
X134480851Y-57407346D01*
X134480852Y-57407346D01*
X134480853Y-57407347D01*
X134523818Y-57425143D01*
X134557642Y-57458966D01*
X134562400Y-57482885D01*
X134562400Y-59902162D01*
X134544094Y-59946356D01*
X134499900Y-59964662D01*
X134455706Y-59946356D01*
X134442158Y-59926080D01*
X134422347Y-59878253D01*
X134422346Y-59878252D01*
X134149801Y-59765360D01*
X134149799Y-59765360D01*
X133877253Y-59878252D01*
X133877252Y-59878253D01*
X133764360Y-60150799D01*
X133764360Y-60150800D01*
X133127900Y-60150800D01*
X133127900Y-55028357D01*
X133347900Y-55028357D01*
X133355298Y-55065548D01*
X133355298Y-55065549D01*
X133383477Y-55107722D01*
X133411657Y-55126550D01*
X133425652Y-55135902D01*
X133462842Y-55143300D01*
X133462843Y-55143300D01*
X134837957Y-55143300D01*
X134837958Y-55143300D01*
X134875148Y-55135902D01*
X134917322Y-55107722D01*
X134945502Y-55065548D01*
X134952900Y-55028358D01*
X134952900Y-54340800D01*
X135332178Y-54340800D01*
X135394460Y-54653919D01*
X135394461Y-54653921D01*
X135457352Y-54748043D01*
X135571830Y-54919370D01*
X135734940Y-55028357D01*
X135837278Y-55096738D01*
X135837280Y-55096739D01*
X136150399Y-55159022D01*
X136150400Y-55159022D01*
X136150401Y-55159022D01*
X136408304Y-55107722D01*
X136463520Y-55096739D01*
X136728970Y-54919370D01*
X136906339Y-54653920D01*
X136968622Y-54340800D01*
X137332178Y-54340800D01*
X137394460Y-54653919D01*
X137394461Y-54653921D01*
X137457352Y-54748043D01*
X137571830Y-54919370D01*
X137734940Y-55028357D01*
X137837278Y-55096738D01*
X137837280Y-55096739D01*
X138150399Y-55159022D01*
X138150400Y-55159022D01*
X138150401Y-55159022D01*
X138408304Y-55107722D01*
X138420480Y-55105300D01*
X141306660Y-55105300D01*
X141419552Y-55377846D01*
X141419553Y-55377847D01*
X141692099Y-55490740D01*
X141692100Y-55490740D01*
X141692101Y-55490740D01*
X141828373Y-55434293D01*
X141964647Y-55377847D01*
X142077540Y-55105300D01*
X142073993Y-55096738D01*
X141964647Y-54832753D01*
X141964646Y-54832752D01*
X141692101Y-54719860D01*
X141692099Y-54719860D01*
X141419553Y-54832752D01*
X141419552Y-54832753D01*
X141306660Y-55105299D01*
X141306660Y-55105300D01*
X138420480Y-55105300D01*
X138463520Y-55096739D01*
X138728970Y-54919370D01*
X138906339Y-54653920D01*
X138968622Y-54340800D01*
X138968502Y-54340199D01*
X138906339Y-54027680D01*
X138906338Y-54027678D01*
X138822361Y-53901999D01*
X138728970Y-53762230D01*
X138565859Y-53653242D01*
X138463521Y-53584861D01*
X138463519Y-53584860D01*
X138150401Y-53522578D01*
X138150399Y-53522578D01*
X137837280Y-53584860D01*
X137837278Y-53584861D01*
X137571830Y-53762230D01*
X137394461Y-54027678D01*
X137394460Y-54027680D01*
X137332178Y-54340799D01*
X137332178Y-54340800D01*
X136968622Y-54340800D01*
X136968502Y-54340199D01*
X136906339Y-54027680D01*
X136906338Y-54027678D01*
X136822361Y-53901999D01*
X136728970Y-53762230D01*
X136565859Y-53653242D01*
X136463521Y-53584861D01*
X136463519Y-53584860D01*
X136150401Y-53522578D01*
X136150399Y-53522578D01*
X135837280Y-53584860D01*
X135837278Y-53584861D01*
X135571830Y-53762230D01*
X135394461Y-54027678D01*
X135394460Y-54027680D01*
X135332178Y-54340799D01*
X135332178Y-54340800D01*
X134952900Y-54340800D01*
X134952900Y-53653242D01*
X134945502Y-53616052D01*
X134924661Y-53584861D01*
X134917322Y-53573877D01*
X134875148Y-53545698D01*
X134875147Y-53545698D01*
X134837958Y-53538300D01*
X133462842Y-53538300D01*
X133444246Y-53541999D01*
X133425651Y-53545698D01*
X133425650Y-53545698D01*
X133383477Y-53573877D01*
X133355298Y-53616050D01*
X133355298Y-53616051D01*
X133347900Y-53653242D01*
X133347900Y-55028357D01*
X133127900Y-55028357D01*
X133127900Y-53380800D01*
X133146206Y-53336606D01*
X133190400Y-53318300D01*
X141351818Y-53318300D01*
X141396012Y-53336606D01*
G37*
%TD.AperFunction*%
%TD*%
M02*
