%TF.GenerationSoftware,KiCad,Pcbnew,7.0.6*%
%TF.CreationDate,2023-07-24T08:09:00-07:00*%
%TF.ProjectId,minidrone,6d696e69-6472-46f6-9e65-2e6b69636164,rev?*%
%TF.SameCoordinates,Original*%
%TF.FileFunction,Legend,Top*%
%TF.FilePolarity,Positive*%
%FSLAX46Y46*%
G04 Gerber Fmt 4.6, Leading zero omitted, Abs format (unit mm)*
G04 Created by KiCad (PCBNEW 7.0.6) date 2023-07-24 08:09:00*
%MOMM*%
%LPD*%
G01*
G04 APERTURE LIST*
%ADD10C,0.150000*%
%ADD11C,0.120000*%
%ADD12C,0.100000*%
G04 APERTURE END LIST*
D10*
X149352466Y-76117419D02*
X149019133Y-75641228D01*
X148781038Y-76117419D02*
X148781038Y-75117419D01*
X148781038Y-75117419D02*
X149161990Y-75117419D01*
X149161990Y-75117419D02*
X149257228Y-75165038D01*
X149257228Y-75165038D02*
X149304847Y-75212657D01*
X149304847Y-75212657D02*
X149352466Y-75307895D01*
X149352466Y-75307895D02*
X149352466Y-75450752D01*
X149352466Y-75450752D02*
X149304847Y-75545990D01*
X149304847Y-75545990D02*
X149257228Y-75593609D01*
X149257228Y-75593609D02*
X149161990Y-75641228D01*
X149161990Y-75641228D02*
X148781038Y-75641228D01*
X149781038Y-75593609D02*
X150114371Y-75593609D01*
X150257228Y-76117419D02*
X149781038Y-76117419D01*
X149781038Y-76117419D02*
X149781038Y-75117419D01*
X149781038Y-75117419D02*
X150257228Y-75117419D01*
X151019133Y-75593609D02*
X150685800Y-75593609D01*
X150685800Y-76117419D02*
X150685800Y-75117419D01*
X150685800Y-75117419D02*
X151161990Y-75117419D01*
X151685800Y-75117419D02*
X151685800Y-75355514D01*
X151447705Y-75260276D02*
X151685800Y-75355514D01*
X151685800Y-75355514D02*
X151923895Y-75260276D01*
X151542943Y-75545990D02*
X151685800Y-75355514D01*
X151685800Y-75355514D02*
X151828657Y-75545990D01*
X152447705Y-75117419D02*
X152447705Y-75355514D01*
X152209610Y-75260276D02*
X152447705Y-75355514D01*
X152447705Y-75355514D02*
X152685800Y-75260276D01*
X152304848Y-75545990D02*
X152447705Y-75355514D01*
X152447705Y-75355514D02*
X152590562Y-75545990D01*
X141091219Y-78142704D02*
X141900742Y-78142704D01*
X141900742Y-78142704D02*
X141995980Y-78095085D01*
X141995980Y-78095085D02*
X142043600Y-78047466D01*
X142043600Y-78047466D02*
X142091219Y-77952228D01*
X142091219Y-77952228D02*
X142091219Y-77761752D01*
X142091219Y-77761752D02*
X142043600Y-77666514D01*
X142043600Y-77666514D02*
X141995980Y-77618895D01*
X141995980Y-77618895D02*
X141900742Y-77571276D01*
X141900742Y-77571276D02*
X141091219Y-77571276D01*
X141091219Y-77190323D02*
X141091219Y-76523657D01*
X141091219Y-76523657D02*
X142091219Y-76952228D01*
X157595528Y-69721490D02*
X158071719Y-69721490D01*
X157071719Y-70054823D02*
X157595528Y-69721490D01*
X157595528Y-69721490D02*
X157071719Y-69388157D01*
X157166957Y-69102442D02*
X157119338Y-69054823D01*
X157119338Y-69054823D02*
X157071719Y-68959585D01*
X157071719Y-68959585D02*
X157071719Y-68721490D01*
X157071719Y-68721490D02*
X157119338Y-68626252D01*
X157119338Y-68626252D02*
X157166957Y-68578633D01*
X157166957Y-68578633D02*
X157262195Y-68531014D01*
X157262195Y-68531014D02*
X157357433Y-68531014D01*
X157357433Y-68531014D02*
X157500290Y-68578633D01*
X157500290Y-68578633D02*
X158071719Y-69150061D01*
X158071719Y-69150061D02*
X158071719Y-68531014D01*
X145036819Y-74545594D02*
X145846342Y-74545594D01*
X145846342Y-74545594D02*
X145941580Y-74497975D01*
X145941580Y-74497975D02*
X145989200Y-74450356D01*
X145989200Y-74450356D02*
X146036819Y-74355118D01*
X146036819Y-74355118D02*
X146036819Y-74164642D01*
X146036819Y-74164642D02*
X145989200Y-74069404D01*
X145989200Y-74069404D02*
X145941580Y-74021785D01*
X145941580Y-74021785D02*
X145846342Y-73974166D01*
X145846342Y-73974166D02*
X145036819Y-73974166D01*
X146036819Y-72974166D02*
X146036819Y-73545594D01*
X146036819Y-73259880D02*
X145036819Y-73259880D01*
X145036819Y-73259880D02*
X145179676Y-73355118D01*
X145179676Y-73355118D02*
X145274914Y-73450356D01*
X145274914Y-73450356D02*
X145322533Y-73545594D01*
X145036819Y-72069404D02*
X145036819Y-72545594D01*
X145036819Y-72545594D02*
X145513009Y-72593213D01*
X145513009Y-72593213D02*
X145465390Y-72545594D01*
X145465390Y-72545594D02*
X145417771Y-72450356D01*
X145417771Y-72450356D02*
X145417771Y-72212261D01*
X145417771Y-72212261D02*
X145465390Y-72117023D01*
X145465390Y-72117023D02*
X145513009Y-72069404D01*
X145513009Y-72069404D02*
X145608247Y-72021785D01*
X145608247Y-72021785D02*
X145846342Y-72021785D01*
X145846342Y-72021785D02*
X145941580Y-72069404D01*
X145941580Y-72069404D02*
X145989200Y-72117023D01*
X145989200Y-72117023D02*
X146036819Y-72212261D01*
X146036819Y-72212261D02*
X146036819Y-72450356D01*
X146036819Y-72450356D02*
X145989200Y-72545594D01*
X145989200Y-72545594D02*
X145941580Y-72593213D01*
X139740919Y-78682894D02*
X140550442Y-78682894D01*
X140550442Y-78682894D02*
X140645680Y-78635275D01*
X140645680Y-78635275D02*
X140693300Y-78587656D01*
X140693300Y-78587656D02*
X140740919Y-78492418D01*
X140740919Y-78492418D02*
X140740919Y-78301942D01*
X140740919Y-78301942D02*
X140693300Y-78206704D01*
X140693300Y-78206704D02*
X140645680Y-78159085D01*
X140645680Y-78159085D02*
X140550442Y-78111466D01*
X140550442Y-78111466D02*
X139740919Y-78111466D01*
X140740919Y-77111466D02*
X140740919Y-77682894D01*
X140740919Y-77397180D02*
X139740919Y-77397180D01*
X139740919Y-77397180D02*
X139883776Y-77492418D01*
X139883776Y-77492418D02*
X139979014Y-77587656D01*
X139979014Y-77587656D02*
X140026633Y-77682894D01*
X139740919Y-76778132D02*
X139740919Y-76159085D01*
X139740919Y-76159085D02*
X140121871Y-76492418D01*
X140121871Y-76492418D02*
X140121871Y-76349561D01*
X140121871Y-76349561D02*
X140169490Y-76254323D01*
X140169490Y-76254323D02*
X140217109Y-76206704D01*
X140217109Y-76206704D02*
X140312347Y-76159085D01*
X140312347Y-76159085D02*
X140550442Y-76159085D01*
X140550442Y-76159085D02*
X140645680Y-76206704D01*
X140645680Y-76206704D02*
X140693300Y-76254323D01*
X140693300Y-76254323D02*
X140740919Y-76349561D01*
X140740919Y-76349561D02*
X140740919Y-76635275D01*
X140740919Y-76635275D02*
X140693300Y-76730513D01*
X140693300Y-76730513D02*
X140645680Y-76778132D01*
X135988495Y-61281619D02*
X135988495Y-62091142D01*
X135988495Y-62091142D02*
X136036114Y-62186380D01*
X136036114Y-62186380D02*
X136083733Y-62234000D01*
X136083733Y-62234000D02*
X136178971Y-62281619D01*
X136178971Y-62281619D02*
X136369447Y-62281619D01*
X136369447Y-62281619D02*
X136464685Y-62234000D01*
X136464685Y-62234000D02*
X136512304Y-62186380D01*
X136512304Y-62186380D02*
X136559923Y-62091142D01*
X136559923Y-62091142D02*
X136559923Y-61281619D01*
X137083733Y-62281619D02*
X137274209Y-62281619D01*
X137274209Y-62281619D02*
X137369447Y-62234000D01*
X137369447Y-62234000D02*
X137417066Y-62186380D01*
X137417066Y-62186380D02*
X137512304Y-62043523D01*
X137512304Y-62043523D02*
X137559923Y-61853047D01*
X137559923Y-61853047D02*
X137559923Y-61472095D01*
X137559923Y-61472095D02*
X137512304Y-61376857D01*
X137512304Y-61376857D02*
X137464685Y-61329238D01*
X137464685Y-61329238D02*
X137369447Y-61281619D01*
X137369447Y-61281619D02*
X137178971Y-61281619D01*
X137178971Y-61281619D02*
X137083733Y-61329238D01*
X137083733Y-61329238D02*
X137036114Y-61376857D01*
X137036114Y-61376857D02*
X136988495Y-61472095D01*
X136988495Y-61472095D02*
X136988495Y-61710190D01*
X136988495Y-61710190D02*
X137036114Y-61805428D01*
X137036114Y-61805428D02*
X137083733Y-61853047D01*
X137083733Y-61853047D02*
X137178971Y-61900666D01*
X137178971Y-61900666D02*
X137369447Y-61900666D01*
X137369447Y-61900666D02*
X137464685Y-61853047D01*
X137464685Y-61853047D02*
X137512304Y-61805428D01*
X137512304Y-61805428D02*
X137559923Y-61710190D01*
X139480785Y-55581619D02*
X139480785Y-56391142D01*
X139480785Y-56391142D02*
X139528404Y-56486380D01*
X139528404Y-56486380D02*
X139576023Y-56534000D01*
X139576023Y-56534000D02*
X139671261Y-56581619D01*
X139671261Y-56581619D02*
X139861737Y-56581619D01*
X139861737Y-56581619D02*
X139956975Y-56534000D01*
X139956975Y-56534000D02*
X140004594Y-56486380D01*
X140004594Y-56486380D02*
X140052213Y-56391142D01*
X140052213Y-56391142D02*
X140052213Y-55581619D01*
X140671261Y-56010190D02*
X140576023Y-55962571D01*
X140576023Y-55962571D02*
X140528404Y-55914952D01*
X140528404Y-55914952D02*
X140480785Y-55819714D01*
X140480785Y-55819714D02*
X140480785Y-55772095D01*
X140480785Y-55772095D02*
X140528404Y-55676857D01*
X140528404Y-55676857D02*
X140576023Y-55629238D01*
X140576023Y-55629238D02*
X140671261Y-55581619D01*
X140671261Y-55581619D02*
X140861737Y-55581619D01*
X140861737Y-55581619D02*
X140956975Y-55629238D01*
X140956975Y-55629238D02*
X141004594Y-55676857D01*
X141004594Y-55676857D02*
X141052213Y-55772095D01*
X141052213Y-55772095D02*
X141052213Y-55819714D01*
X141052213Y-55819714D02*
X141004594Y-55914952D01*
X141004594Y-55914952D02*
X140956975Y-55962571D01*
X140956975Y-55962571D02*
X140861737Y-56010190D01*
X140861737Y-56010190D02*
X140671261Y-56010190D01*
X140671261Y-56010190D02*
X140576023Y-56057809D01*
X140576023Y-56057809D02*
X140528404Y-56105428D01*
X140528404Y-56105428D02*
X140480785Y-56200666D01*
X140480785Y-56200666D02*
X140480785Y-56391142D01*
X140480785Y-56391142D02*
X140528404Y-56486380D01*
X140528404Y-56486380D02*
X140576023Y-56534000D01*
X140576023Y-56534000D02*
X140671261Y-56581619D01*
X140671261Y-56581619D02*
X140861737Y-56581619D01*
X140861737Y-56581619D02*
X140956975Y-56534000D01*
X140956975Y-56534000D02*
X141004594Y-56486380D01*
X141004594Y-56486380D02*
X141052213Y-56391142D01*
X141052213Y-56391142D02*
X141052213Y-56200666D01*
X141052213Y-56200666D02*
X141004594Y-56105428D01*
X141004594Y-56105428D02*
X140956975Y-56057809D01*
X140956975Y-56057809D02*
X140861737Y-56010190D01*
X135391219Y-74650414D02*
X136200742Y-74650414D01*
X136200742Y-74650414D02*
X136295980Y-74602795D01*
X136295980Y-74602795D02*
X136343600Y-74555176D01*
X136343600Y-74555176D02*
X136391219Y-74459938D01*
X136391219Y-74459938D02*
X136391219Y-74269462D01*
X136391219Y-74269462D02*
X136343600Y-74174224D01*
X136343600Y-74174224D02*
X136295980Y-74126605D01*
X136295980Y-74126605D02*
X136200742Y-74078986D01*
X136200742Y-74078986D02*
X135391219Y-74078986D01*
X135391219Y-73174224D02*
X135391219Y-73364700D01*
X135391219Y-73364700D02*
X135438838Y-73459938D01*
X135438838Y-73459938D02*
X135486457Y-73507557D01*
X135486457Y-73507557D02*
X135629314Y-73602795D01*
X135629314Y-73602795D02*
X135819790Y-73650414D01*
X135819790Y-73650414D02*
X136200742Y-73650414D01*
X136200742Y-73650414D02*
X136295980Y-73602795D01*
X136295980Y-73602795D02*
X136343600Y-73555176D01*
X136343600Y-73555176D02*
X136391219Y-73459938D01*
X136391219Y-73459938D02*
X136391219Y-73269462D01*
X136391219Y-73269462D02*
X136343600Y-73174224D01*
X136343600Y-73174224D02*
X136295980Y-73126605D01*
X136295980Y-73126605D02*
X136200742Y-73078986D01*
X136200742Y-73078986D02*
X135962647Y-73078986D01*
X135962647Y-73078986D02*
X135867409Y-73126605D01*
X135867409Y-73126605D02*
X135819790Y-73174224D01*
X135819790Y-73174224D02*
X135772171Y-73269462D01*
X135772171Y-73269462D02*
X135772171Y-73459938D01*
X135772171Y-73459938D02*
X135819790Y-73555176D01*
X135819790Y-73555176D02*
X135867409Y-73602795D01*
X135867409Y-73602795D02*
X135962647Y-73650414D01*
X156428495Y-71949619D02*
X156428495Y-72759142D01*
X156428495Y-72759142D02*
X156476114Y-72854380D01*
X156476114Y-72854380D02*
X156523733Y-72902000D01*
X156523733Y-72902000D02*
X156618971Y-72949619D01*
X156618971Y-72949619D02*
X156809447Y-72949619D01*
X156809447Y-72949619D02*
X156904685Y-72902000D01*
X156904685Y-72902000D02*
X156952304Y-72854380D01*
X156952304Y-72854380D02*
X156999923Y-72759142D01*
X156999923Y-72759142D02*
X156999923Y-71949619D01*
X157952304Y-71949619D02*
X157476114Y-71949619D01*
X157476114Y-71949619D02*
X157428495Y-72425809D01*
X157428495Y-72425809D02*
X157476114Y-72378190D01*
X157476114Y-72378190D02*
X157571352Y-72330571D01*
X157571352Y-72330571D02*
X157809447Y-72330571D01*
X157809447Y-72330571D02*
X157904685Y-72378190D01*
X157904685Y-72378190D02*
X157952304Y-72425809D01*
X157952304Y-72425809D02*
X157999923Y-72521047D01*
X157999923Y-72521047D02*
X157999923Y-72759142D01*
X157999923Y-72759142D02*
X157952304Y-72854380D01*
X157952304Y-72854380D02*
X157904685Y-72902000D01*
X157904685Y-72902000D02*
X157809447Y-72949619D01*
X157809447Y-72949619D02*
X157571352Y-72949619D01*
X157571352Y-72949619D02*
X157476114Y-72902000D01*
X157476114Y-72902000D02*
X157428495Y-72854380D01*
X152936205Y-77649619D02*
X152936205Y-78459142D01*
X152936205Y-78459142D02*
X152983824Y-78554380D01*
X152983824Y-78554380D02*
X153031443Y-78602000D01*
X153031443Y-78602000D02*
X153126681Y-78649619D01*
X153126681Y-78649619D02*
X153317157Y-78649619D01*
X153317157Y-78649619D02*
X153412395Y-78602000D01*
X153412395Y-78602000D02*
X153460014Y-78554380D01*
X153460014Y-78554380D02*
X153507633Y-78459142D01*
X153507633Y-78459142D02*
X153507633Y-77649619D01*
X154412395Y-77982952D02*
X154412395Y-78649619D01*
X154174300Y-77602000D02*
X153936205Y-78316285D01*
X153936205Y-78316285D02*
X154555252Y-78316285D01*
X157459219Y-61194994D02*
X158268742Y-61194994D01*
X158268742Y-61194994D02*
X158363980Y-61147375D01*
X158363980Y-61147375D02*
X158411600Y-61099756D01*
X158411600Y-61099756D02*
X158459219Y-61004518D01*
X158459219Y-61004518D02*
X158459219Y-60814042D01*
X158459219Y-60814042D02*
X158411600Y-60718804D01*
X158411600Y-60718804D02*
X158363980Y-60671185D01*
X158363980Y-60671185D02*
X158268742Y-60623566D01*
X158268742Y-60623566D02*
X157459219Y-60623566D01*
X157459219Y-60242613D02*
X157459219Y-59623566D01*
X157459219Y-59623566D02*
X157840171Y-59956899D01*
X157840171Y-59956899D02*
X157840171Y-59814042D01*
X157840171Y-59814042D02*
X157887790Y-59718804D01*
X157887790Y-59718804D02*
X157935409Y-59671185D01*
X157935409Y-59671185D02*
X158030647Y-59623566D01*
X158030647Y-59623566D02*
X158268742Y-59623566D01*
X158268742Y-59623566D02*
X158363980Y-59671185D01*
X158363980Y-59671185D02*
X158411600Y-59718804D01*
X158411600Y-59718804D02*
X158459219Y-59814042D01*
X158459219Y-59814042D02*
X158459219Y-60099756D01*
X158459219Y-60099756D02*
X158411600Y-60194994D01*
X158411600Y-60194994D02*
X158363980Y-60242613D01*
X141605219Y-67922704D02*
X142414742Y-67922704D01*
X142414742Y-67922704D02*
X142509980Y-67875085D01*
X142509980Y-67875085D02*
X142557600Y-67827466D01*
X142557600Y-67827466D02*
X142605219Y-67732228D01*
X142605219Y-67732228D02*
X142605219Y-67541752D01*
X142605219Y-67541752D02*
X142557600Y-67446514D01*
X142557600Y-67446514D02*
X142509980Y-67398895D01*
X142509980Y-67398895D02*
X142414742Y-67351276D01*
X142414742Y-67351276D02*
X141605219Y-67351276D01*
X141700457Y-66922704D02*
X141652838Y-66875085D01*
X141652838Y-66875085D02*
X141605219Y-66779847D01*
X141605219Y-66779847D02*
X141605219Y-66541752D01*
X141605219Y-66541752D02*
X141652838Y-66446514D01*
X141652838Y-66446514D02*
X141700457Y-66398895D01*
X141700457Y-66398895D02*
X141795695Y-66351276D01*
X141795695Y-66351276D02*
X141890933Y-66351276D01*
X141890933Y-66351276D02*
X142033790Y-66398895D01*
X142033790Y-66398895D02*
X142605219Y-66970323D01*
X142605219Y-66970323D02*
X142605219Y-66351276D01*
X151759219Y-57702704D02*
X152568742Y-57702704D01*
X152568742Y-57702704D02*
X152663980Y-57655085D01*
X152663980Y-57655085D02*
X152711600Y-57607466D01*
X152711600Y-57607466D02*
X152759219Y-57512228D01*
X152759219Y-57512228D02*
X152759219Y-57321752D01*
X152759219Y-57321752D02*
X152711600Y-57226514D01*
X152711600Y-57226514D02*
X152663980Y-57178895D01*
X152663980Y-57178895D02*
X152568742Y-57131276D01*
X152568742Y-57131276D02*
X151759219Y-57131276D01*
X152759219Y-56131276D02*
X152759219Y-56702704D01*
X152759219Y-56416990D02*
X151759219Y-56416990D01*
X151759219Y-56416990D02*
X151902076Y-56512228D01*
X151902076Y-56512228D02*
X151997314Y-56607466D01*
X151997314Y-56607466D02*
X152044933Y-56702704D01*
X154809567Y-67955200D02*
X154952424Y-68002819D01*
X154952424Y-68002819D02*
X155190519Y-68002819D01*
X155190519Y-68002819D02*
X155285757Y-67955200D01*
X155285757Y-67955200D02*
X155333376Y-67907580D01*
X155333376Y-67907580D02*
X155380995Y-67812342D01*
X155380995Y-67812342D02*
X155380995Y-67717104D01*
X155380995Y-67717104D02*
X155333376Y-67621866D01*
X155333376Y-67621866D02*
X155285757Y-67574247D01*
X155285757Y-67574247D02*
X155190519Y-67526628D01*
X155190519Y-67526628D02*
X155000043Y-67479009D01*
X155000043Y-67479009D02*
X154904805Y-67431390D01*
X154904805Y-67431390D02*
X154857186Y-67383771D01*
X154857186Y-67383771D02*
X154809567Y-67288533D01*
X154809567Y-67288533D02*
X154809567Y-67193295D01*
X154809567Y-67193295D02*
X154857186Y-67098057D01*
X154857186Y-67098057D02*
X154904805Y-67050438D01*
X154904805Y-67050438D02*
X155000043Y-67002819D01*
X155000043Y-67002819D02*
X155238138Y-67002819D01*
X155238138Y-67002819D02*
X155380995Y-67050438D01*
X155714329Y-67002819D02*
X155952424Y-68002819D01*
X155952424Y-68002819D02*
X156142900Y-67288533D01*
X156142900Y-67288533D02*
X156333376Y-68002819D01*
X156333376Y-68002819D02*
X156571472Y-67002819D01*
X157476233Y-68002819D02*
X156904805Y-68002819D01*
X157190519Y-68002819D02*
X157190519Y-67002819D01*
X157190519Y-67002819D02*
X157095281Y-67145676D01*
X157095281Y-67145676D02*
X157000043Y-67240914D01*
X157000043Y-67240914D02*
X156904805Y-67288533D01*
X153090842Y-75256519D02*
X152757509Y-74780328D01*
X152519414Y-75256519D02*
X152519414Y-74256519D01*
X152519414Y-74256519D02*
X152900366Y-74256519D01*
X152900366Y-74256519D02*
X152995604Y-74304138D01*
X152995604Y-74304138D02*
X153043223Y-74351757D01*
X153043223Y-74351757D02*
X153090842Y-74446995D01*
X153090842Y-74446995D02*
X153090842Y-74589852D01*
X153090842Y-74589852D02*
X153043223Y-74685090D01*
X153043223Y-74685090D02*
X152995604Y-74732709D01*
X152995604Y-74732709D02*
X152900366Y-74780328D01*
X152900366Y-74780328D02*
X152519414Y-74780328D01*
X153424176Y-74256519D02*
X154043223Y-74256519D01*
X154043223Y-74256519D02*
X153709890Y-74637471D01*
X153709890Y-74637471D02*
X153852747Y-74637471D01*
X153852747Y-74637471D02*
X153947985Y-74685090D01*
X153947985Y-74685090D02*
X153995604Y-74732709D01*
X153995604Y-74732709D02*
X154043223Y-74827947D01*
X154043223Y-74827947D02*
X154043223Y-75066042D01*
X154043223Y-75066042D02*
X153995604Y-75161280D01*
X153995604Y-75161280D02*
X153947985Y-75208900D01*
X153947985Y-75208900D02*
X153852747Y-75256519D01*
X153852747Y-75256519D02*
X153567033Y-75256519D01*
X153567033Y-75256519D02*
X153471795Y-75208900D01*
X153471795Y-75208900D02*
X153424176Y-75161280D01*
X154900366Y-74589852D02*
X154900366Y-75256519D01*
X154662271Y-74208900D02*
X154424176Y-74923185D01*
X154424176Y-74923185D02*
X155043223Y-74923185D01*
X151021542Y-73649319D02*
X150688209Y-73173128D01*
X150450114Y-73649319D02*
X150450114Y-72649319D01*
X150450114Y-72649319D02*
X150831066Y-72649319D01*
X150831066Y-72649319D02*
X150926304Y-72696938D01*
X150926304Y-72696938D02*
X150973923Y-72744557D01*
X150973923Y-72744557D02*
X151021542Y-72839795D01*
X151021542Y-72839795D02*
X151021542Y-72982652D01*
X151021542Y-72982652D02*
X150973923Y-73077890D01*
X150973923Y-73077890D02*
X150926304Y-73125509D01*
X150926304Y-73125509D02*
X150831066Y-73173128D01*
X150831066Y-73173128D02*
X150450114Y-73173128D01*
X151354876Y-72649319D02*
X151973923Y-72649319D01*
X151973923Y-72649319D02*
X151640590Y-73030271D01*
X151640590Y-73030271D02*
X151783447Y-73030271D01*
X151783447Y-73030271D02*
X151878685Y-73077890D01*
X151878685Y-73077890D02*
X151926304Y-73125509D01*
X151926304Y-73125509D02*
X151973923Y-73220747D01*
X151973923Y-73220747D02*
X151973923Y-73458842D01*
X151973923Y-73458842D02*
X151926304Y-73554080D01*
X151926304Y-73554080D02*
X151878685Y-73601700D01*
X151878685Y-73601700D02*
X151783447Y-73649319D01*
X151783447Y-73649319D02*
X151497733Y-73649319D01*
X151497733Y-73649319D02*
X151402495Y-73601700D01*
X151402495Y-73601700D02*
X151354876Y-73554080D01*
X152592971Y-72649319D02*
X152688209Y-72649319D01*
X152688209Y-72649319D02*
X152783447Y-72696938D01*
X152783447Y-72696938D02*
X152831066Y-72744557D01*
X152831066Y-72744557D02*
X152878685Y-72839795D01*
X152878685Y-72839795D02*
X152926304Y-73030271D01*
X152926304Y-73030271D02*
X152926304Y-73268366D01*
X152926304Y-73268366D02*
X152878685Y-73458842D01*
X152878685Y-73458842D02*
X152831066Y-73554080D01*
X152831066Y-73554080D02*
X152783447Y-73601700D01*
X152783447Y-73601700D02*
X152688209Y-73649319D01*
X152688209Y-73649319D02*
X152592971Y-73649319D01*
X152592971Y-73649319D02*
X152497733Y-73601700D01*
X152497733Y-73601700D02*
X152450114Y-73554080D01*
X152450114Y-73554080D02*
X152402495Y-73458842D01*
X152402495Y-73458842D02*
X152354876Y-73268366D01*
X152354876Y-73268366D02*
X152354876Y-73030271D01*
X152354876Y-73030271D02*
X152402495Y-72839795D01*
X152402495Y-72839795D02*
X152450114Y-72744557D01*
X152450114Y-72744557D02*
X152497733Y-72696938D01*
X152497733Y-72696938D02*
X152592971Y-72649319D01*
X152224419Y-73485357D02*
X151748228Y-73818690D01*
X152224419Y-74056785D02*
X151224419Y-74056785D01*
X151224419Y-74056785D02*
X151224419Y-73675833D01*
X151224419Y-73675833D02*
X151272038Y-73580595D01*
X151272038Y-73580595D02*
X151319657Y-73532976D01*
X151319657Y-73532976D02*
X151414895Y-73485357D01*
X151414895Y-73485357D02*
X151557752Y-73485357D01*
X151557752Y-73485357D02*
X151652990Y-73532976D01*
X151652990Y-73532976D02*
X151700609Y-73580595D01*
X151700609Y-73580595D02*
X151748228Y-73675833D01*
X151748228Y-73675833D02*
X151748228Y-74056785D01*
X151319657Y-73104404D02*
X151272038Y-73056785D01*
X151272038Y-73056785D02*
X151224419Y-72961547D01*
X151224419Y-72961547D02*
X151224419Y-72723452D01*
X151224419Y-72723452D02*
X151272038Y-72628214D01*
X151272038Y-72628214D02*
X151319657Y-72580595D01*
X151319657Y-72580595D02*
X151414895Y-72532976D01*
X151414895Y-72532976D02*
X151510133Y-72532976D01*
X151510133Y-72532976D02*
X151652990Y-72580595D01*
X151652990Y-72580595D02*
X152224419Y-73152023D01*
X152224419Y-73152023D02*
X152224419Y-72532976D01*
X151652990Y-71961547D02*
X151605371Y-72056785D01*
X151605371Y-72056785D02*
X151557752Y-72104404D01*
X151557752Y-72104404D02*
X151462514Y-72152023D01*
X151462514Y-72152023D02*
X151414895Y-72152023D01*
X151414895Y-72152023D02*
X151319657Y-72104404D01*
X151319657Y-72104404D02*
X151272038Y-72056785D01*
X151272038Y-72056785D02*
X151224419Y-71961547D01*
X151224419Y-71961547D02*
X151224419Y-71771071D01*
X151224419Y-71771071D02*
X151272038Y-71675833D01*
X151272038Y-71675833D02*
X151319657Y-71628214D01*
X151319657Y-71628214D02*
X151414895Y-71580595D01*
X151414895Y-71580595D02*
X151462514Y-71580595D01*
X151462514Y-71580595D02*
X151557752Y-71628214D01*
X151557752Y-71628214D02*
X151605371Y-71675833D01*
X151605371Y-71675833D02*
X151652990Y-71771071D01*
X151652990Y-71771071D02*
X151652990Y-71961547D01*
X151652990Y-71961547D02*
X151700609Y-72056785D01*
X151700609Y-72056785D02*
X151748228Y-72104404D01*
X151748228Y-72104404D02*
X151843466Y-72152023D01*
X151843466Y-72152023D02*
X152033942Y-72152023D01*
X152033942Y-72152023D02*
X152129180Y-72104404D01*
X152129180Y-72104404D02*
X152176800Y-72056785D01*
X152176800Y-72056785D02*
X152224419Y-71961547D01*
X152224419Y-71961547D02*
X152224419Y-71771071D01*
X152224419Y-71771071D02*
X152176800Y-71675833D01*
X152176800Y-71675833D02*
X152129180Y-71628214D01*
X152129180Y-71628214D02*
X152033942Y-71580595D01*
X152033942Y-71580595D02*
X151843466Y-71580595D01*
X151843466Y-71580595D02*
X151748228Y-71628214D01*
X151748228Y-71628214D02*
X151700609Y-71675833D01*
X151700609Y-71675833D02*
X151652990Y-71771071D01*
X145687542Y-71617319D02*
X145354209Y-71141128D01*
X145116114Y-71617319D02*
X145116114Y-70617319D01*
X145116114Y-70617319D02*
X145497066Y-70617319D01*
X145497066Y-70617319D02*
X145592304Y-70664938D01*
X145592304Y-70664938D02*
X145639923Y-70712557D01*
X145639923Y-70712557D02*
X145687542Y-70807795D01*
X145687542Y-70807795D02*
X145687542Y-70950652D01*
X145687542Y-70950652D02*
X145639923Y-71045890D01*
X145639923Y-71045890D02*
X145592304Y-71093509D01*
X145592304Y-71093509D02*
X145497066Y-71141128D01*
X145497066Y-71141128D02*
X145116114Y-71141128D01*
X146068495Y-70712557D02*
X146116114Y-70664938D01*
X146116114Y-70664938D02*
X146211352Y-70617319D01*
X146211352Y-70617319D02*
X146449447Y-70617319D01*
X146449447Y-70617319D02*
X146544685Y-70664938D01*
X146544685Y-70664938D02*
X146592304Y-70712557D01*
X146592304Y-70712557D02*
X146639923Y-70807795D01*
X146639923Y-70807795D02*
X146639923Y-70903033D01*
X146639923Y-70903033D02*
X146592304Y-71045890D01*
X146592304Y-71045890D02*
X146020876Y-71617319D01*
X146020876Y-71617319D02*
X146639923Y-71617319D01*
X146973257Y-70617319D02*
X147639923Y-70617319D01*
X147639923Y-70617319D02*
X147211352Y-71617319D01*
X145687542Y-72633319D02*
X145354209Y-72157128D01*
X145116114Y-72633319D02*
X145116114Y-71633319D01*
X145116114Y-71633319D02*
X145497066Y-71633319D01*
X145497066Y-71633319D02*
X145592304Y-71680938D01*
X145592304Y-71680938D02*
X145639923Y-71728557D01*
X145639923Y-71728557D02*
X145687542Y-71823795D01*
X145687542Y-71823795D02*
X145687542Y-71966652D01*
X145687542Y-71966652D02*
X145639923Y-72061890D01*
X145639923Y-72061890D02*
X145592304Y-72109509D01*
X145592304Y-72109509D02*
X145497066Y-72157128D01*
X145497066Y-72157128D02*
X145116114Y-72157128D01*
X146068495Y-71728557D02*
X146116114Y-71680938D01*
X146116114Y-71680938D02*
X146211352Y-71633319D01*
X146211352Y-71633319D02*
X146449447Y-71633319D01*
X146449447Y-71633319D02*
X146544685Y-71680938D01*
X146544685Y-71680938D02*
X146592304Y-71728557D01*
X146592304Y-71728557D02*
X146639923Y-71823795D01*
X146639923Y-71823795D02*
X146639923Y-71919033D01*
X146639923Y-71919033D02*
X146592304Y-72061890D01*
X146592304Y-72061890D02*
X146020876Y-72633319D01*
X146020876Y-72633319D02*
X146639923Y-72633319D01*
X147497066Y-71633319D02*
X147306590Y-71633319D01*
X147306590Y-71633319D02*
X147211352Y-71680938D01*
X147211352Y-71680938D02*
X147163733Y-71728557D01*
X147163733Y-71728557D02*
X147068495Y-71871414D01*
X147068495Y-71871414D02*
X147020876Y-72061890D01*
X147020876Y-72061890D02*
X147020876Y-72442842D01*
X147020876Y-72442842D02*
X147068495Y-72538080D01*
X147068495Y-72538080D02*
X147116114Y-72585700D01*
X147116114Y-72585700D02*
X147211352Y-72633319D01*
X147211352Y-72633319D02*
X147401828Y-72633319D01*
X147401828Y-72633319D02*
X147497066Y-72585700D01*
X147497066Y-72585700D02*
X147544685Y-72538080D01*
X147544685Y-72538080D02*
X147592304Y-72442842D01*
X147592304Y-72442842D02*
X147592304Y-72204747D01*
X147592304Y-72204747D02*
X147544685Y-72109509D01*
X147544685Y-72109509D02*
X147497066Y-72061890D01*
X147497066Y-72061890D02*
X147401828Y-72014271D01*
X147401828Y-72014271D02*
X147211352Y-72014271D01*
X147211352Y-72014271D02*
X147116114Y-72061890D01*
X147116114Y-72061890D02*
X147068495Y-72109509D01*
X147068495Y-72109509D02*
X147020876Y-72204747D01*
X153629319Y-68598557D02*
X153153128Y-68931890D01*
X153629319Y-69169985D02*
X152629319Y-69169985D01*
X152629319Y-69169985D02*
X152629319Y-68789033D01*
X152629319Y-68789033D02*
X152676938Y-68693795D01*
X152676938Y-68693795D02*
X152724557Y-68646176D01*
X152724557Y-68646176D02*
X152819795Y-68598557D01*
X152819795Y-68598557D02*
X152962652Y-68598557D01*
X152962652Y-68598557D02*
X153057890Y-68646176D01*
X153057890Y-68646176D02*
X153105509Y-68693795D01*
X153105509Y-68693795D02*
X153153128Y-68789033D01*
X153153128Y-68789033D02*
X153153128Y-69169985D01*
X152724557Y-68217604D02*
X152676938Y-68169985D01*
X152676938Y-68169985D02*
X152629319Y-68074747D01*
X152629319Y-68074747D02*
X152629319Y-67836652D01*
X152629319Y-67836652D02*
X152676938Y-67741414D01*
X152676938Y-67741414D02*
X152724557Y-67693795D01*
X152724557Y-67693795D02*
X152819795Y-67646176D01*
X152819795Y-67646176D02*
X152915033Y-67646176D01*
X152915033Y-67646176D02*
X153057890Y-67693795D01*
X153057890Y-67693795D02*
X153629319Y-68265223D01*
X153629319Y-68265223D02*
X153629319Y-67646176D01*
X152962652Y-66789033D02*
X153629319Y-66789033D01*
X152581700Y-67027128D02*
X153295985Y-67265223D01*
X153295985Y-67265223D02*
X153295985Y-66646176D01*
X155593542Y-61508119D02*
X155260209Y-61031928D01*
X155022114Y-61508119D02*
X155022114Y-60508119D01*
X155022114Y-60508119D02*
X155403066Y-60508119D01*
X155403066Y-60508119D02*
X155498304Y-60555738D01*
X155498304Y-60555738D02*
X155545923Y-60603357D01*
X155545923Y-60603357D02*
X155593542Y-60698595D01*
X155593542Y-60698595D02*
X155593542Y-60841452D01*
X155593542Y-60841452D02*
X155545923Y-60936690D01*
X155545923Y-60936690D02*
X155498304Y-60984309D01*
X155498304Y-60984309D02*
X155403066Y-61031928D01*
X155403066Y-61031928D02*
X155022114Y-61031928D01*
X156545923Y-61508119D02*
X155974495Y-61508119D01*
X156260209Y-61508119D02*
X156260209Y-60508119D01*
X156260209Y-60508119D02*
X156164971Y-60650976D01*
X156164971Y-60650976D02*
X156069733Y-60746214D01*
X156069733Y-60746214D02*
X155974495Y-60793833D01*
X157403066Y-60841452D02*
X157403066Y-61508119D01*
X157164971Y-60460500D02*
X156926876Y-61174785D01*
X156926876Y-61174785D02*
X157545923Y-61174785D01*
X153667142Y-63848119D02*
X153333809Y-63371928D01*
X153095714Y-63848119D02*
X153095714Y-62848119D01*
X153095714Y-62848119D02*
X153476666Y-62848119D01*
X153476666Y-62848119D02*
X153571904Y-62895738D01*
X153571904Y-62895738D02*
X153619523Y-62943357D01*
X153619523Y-62943357D02*
X153667142Y-63038595D01*
X153667142Y-63038595D02*
X153667142Y-63181452D01*
X153667142Y-63181452D02*
X153619523Y-63276690D01*
X153619523Y-63276690D02*
X153571904Y-63324309D01*
X153571904Y-63324309D02*
X153476666Y-63371928D01*
X153476666Y-63371928D02*
X153095714Y-63371928D01*
X154619523Y-63848119D02*
X154048095Y-63848119D01*
X154333809Y-63848119D02*
X154333809Y-62848119D01*
X154333809Y-62848119D02*
X154238571Y-62990976D01*
X154238571Y-62990976D02*
X154143333Y-63086214D01*
X154143333Y-63086214D02*
X154048095Y-63133833D01*
X154952857Y-62848119D02*
X155571904Y-62848119D01*
X155571904Y-62848119D02*
X155238571Y-63229071D01*
X155238571Y-63229071D02*
X155381428Y-63229071D01*
X155381428Y-63229071D02*
X155476666Y-63276690D01*
X155476666Y-63276690D02*
X155524285Y-63324309D01*
X155524285Y-63324309D02*
X155571904Y-63419547D01*
X155571904Y-63419547D02*
X155571904Y-63657642D01*
X155571904Y-63657642D02*
X155524285Y-63752880D01*
X155524285Y-63752880D02*
X155476666Y-63800500D01*
X155476666Y-63800500D02*
X155381428Y-63848119D01*
X155381428Y-63848119D02*
X155095714Y-63848119D01*
X155095714Y-63848119D02*
X155000476Y-63800500D01*
X155000476Y-63800500D02*
X154952857Y-63752880D01*
X158004133Y-60492119D02*
X157670800Y-60015928D01*
X157432705Y-60492119D02*
X157432705Y-59492119D01*
X157432705Y-59492119D02*
X157813657Y-59492119D01*
X157813657Y-59492119D02*
X157908895Y-59539738D01*
X157908895Y-59539738D02*
X157956514Y-59587357D01*
X157956514Y-59587357D02*
X158004133Y-59682595D01*
X158004133Y-59682595D02*
X158004133Y-59825452D01*
X158004133Y-59825452D02*
X157956514Y-59920690D01*
X157956514Y-59920690D02*
X157908895Y-59968309D01*
X157908895Y-59968309D02*
X157813657Y-60015928D01*
X157813657Y-60015928D02*
X157432705Y-60015928D01*
X158385086Y-59587357D02*
X158432705Y-59539738D01*
X158432705Y-59539738D02*
X158527943Y-59492119D01*
X158527943Y-59492119D02*
X158766038Y-59492119D01*
X158766038Y-59492119D02*
X158861276Y-59539738D01*
X158861276Y-59539738D02*
X158908895Y-59587357D01*
X158908895Y-59587357D02*
X158956514Y-59682595D01*
X158956514Y-59682595D02*
X158956514Y-59777833D01*
X158956514Y-59777833D02*
X158908895Y-59920690D01*
X158908895Y-59920690D02*
X158337467Y-60492119D01*
X158337467Y-60492119D02*
X158956514Y-60492119D01*
X158004133Y-61508119D02*
X157670800Y-61031928D01*
X157432705Y-61508119D02*
X157432705Y-60508119D01*
X157432705Y-60508119D02*
X157813657Y-60508119D01*
X157813657Y-60508119D02*
X157908895Y-60555738D01*
X157908895Y-60555738D02*
X157956514Y-60603357D01*
X157956514Y-60603357D02*
X158004133Y-60698595D01*
X158004133Y-60698595D02*
X158004133Y-60841452D01*
X158004133Y-60841452D02*
X157956514Y-60936690D01*
X157956514Y-60936690D02*
X157908895Y-60984309D01*
X157908895Y-60984309D02*
X157813657Y-61031928D01*
X157813657Y-61031928D02*
X157432705Y-61031928D01*
X158956514Y-61508119D02*
X158385086Y-61508119D01*
X158670800Y-61508119D02*
X158670800Y-60508119D01*
X158670800Y-60508119D02*
X158575562Y-60650976D01*
X158575562Y-60650976D02*
X158480324Y-60746214D01*
X158480324Y-60746214D02*
X158385086Y-60793833D01*
X158541166Y-73291019D02*
X158541166Y-74005304D01*
X158541166Y-74005304D02*
X158493547Y-74148161D01*
X158493547Y-74148161D02*
X158398309Y-74243400D01*
X158398309Y-74243400D02*
X158255452Y-74291019D01*
X158255452Y-74291019D02*
X158160214Y-74291019D01*
X158922119Y-73291019D02*
X159588785Y-73291019D01*
X159588785Y-73291019D02*
X159160214Y-74291019D01*
X147244766Y-62942819D02*
X147244766Y-63657104D01*
X147244766Y-63657104D02*
X147197147Y-63799961D01*
X147197147Y-63799961D02*
X147101909Y-63895200D01*
X147101909Y-63895200D02*
X146959052Y-63942819D01*
X146959052Y-63942819D02*
X146863814Y-63942819D01*
X148149528Y-62942819D02*
X147959052Y-62942819D01*
X147959052Y-62942819D02*
X147863814Y-62990438D01*
X147863814Y-62990438D02*
X147816195Y-63038057D01*
X147816195Y-63038057D02*
X147720957Y-63180914D01*
X147720957Y-63180914D02*
X147673338Y-63371390D01*
X147673338Y-63371390D02*
X147673338Y-63752342D01*
X147673338Y-63752342D02*
X147720957Y-63847580D01*
X147720957Y-63847580D02*
X147768576Y-63895200D01*
X147768576Y-63895200D02*
X147863814Y-63942819D01*
X147863814Y-63942819D02*
X148054290Y-63942819D01*
X148054290Y-63942819D02*
X148149528Y-63895200D01*
X148149528Y-63895200D02*
X148197147Y-63847580D01*
X148197147Y-63847580D02*
X148244766Y-63752342D01*
X148244766Y-63752342D02*
X148244766Y-63514247D01*
X148244766Y-63514247D02*
X148197147Y-63419009D01*
X148197147Y-63419009D02*
X148149528Y-63371390D01*
X148149528Y-63371390D02*
X148054290Y-63323771D01*
X148054290Y-63323771D02*
X147863814Y-63323771D01*
X147863814Y-63323771D02*
X147768576Y-63371390D01*
X147768576Y-63371390D02*
X147720957Y-63419009D01*
X147720957Y-63419009D02*
X147673338Y-63514247D01*
X142090219Y-67494133D02*
X142804504Y-67494133D01*
X142804504Y-67494133D02*
X142947361Y-67541752D01*
X142947361Y-67541752D02*
X143042600Y-67636990D01*
X143042600Y-67636990D02*
X143090219Y-67779847D01*
X143090219Y-67779847D02*
X143090219Y-67875085D01*
X142090219Y-66541752D02*
X142090219Y-67017942D01*
X142090219Y-67017942D02*
X142566409Y-67065561D01*
X142566409Y-67065561D02*
X142518790Y-67017942D01*
X142518790Y-67017942D02*
X142471171Y-66922704D01*
X142471171Y-66922704D02*
X142471171Y-66684609D01*
X142471171Y-66684609D02*
X142518790Y-66589371D01*
X142518790Y-66589371D02*
X142566409Y-66541752D01*
X142566409Y-66541752D02*
X142661647Y-66494133D01*
X142661647Y-66494133D02*
X142899742Y-66494133D01*
X142899742Y-66494133D02*
X142994980Y-66541752D01*
X142994980Y-66541752D02*
X143042600Y-66589371D01*
X143042600Y-66589371D02*
X143090219Y-66684609D01*
X143090219Y-66684609D02*
X143090219Y-66922704D01*
X143090219Y-66922704D02*
X143042600Y-67017942D01*
X143042600Y-67017942D02*
X142994980Y-67065561D01*
X131545219Y-54674133D02*
X132259504Y-54674133D01*
X132259504Y-54674133D02*
X132402361Y-54721752D01*
X132402361Y-54721752D02*
X132497600Y-54816990D01*
X132497600Y-54816990D02*
X132545219Y-54959847D01*
X132545219Y-54959847D02*
X132545219Y-55055085D01*
X131878552Y-53769371D02*
X132545219Y-53769371D01*
X131497600Y-54007466D02*
X132211885Y-54245561D01*
X132211885Y-54245561D02*
X132211885Y-53626514D01*
X133817066Y-81495619D02*
X133817066Y-82209904D01*
X133817066Y-82209904D02*
X133769447Y-82352761D01*
X133769447Y-82352761D02*
X133674209Y-82448000D01*
X133674209Y-82448000D02*
X133531352Y-82495619D01*
X133531352Y-82495619D02*
X133436114Y-82495619D01*
X134198019Y-81495619D02*
X134817066Y-81495619D01*
X134817066Y-81495619D02*
X134483733Y-81876571D01*
X134483733Y-81876571D02*
X134626590Y-81876571D01*
X134626590Y-81876571D02*
X134721828Y-81924190D01*
X134721828Y-81924190D02*
X134769447Y-81971809D01*
X134769447Y-81971809D02*
X134817066Y-82067047D01*
X134817066Y-82067047D02*
X134817066Y-82305142D01*
X134817066Y-82305142D02*
X134769447Y-82400380D01*
X134769447Y-82400380D02*
X134721828Y-82448000D01*
X134721828Y-82448000D02*
X134626590Y-82495619D01*
X134626590Y-82495619D02*
X134340876Y-82495619D01*
X134340876Y-82495619D02*
X134245638Y-82448000D01*
X134245638Y-82448000D02*
X134198019Y-82400380D01*
X161305219Y-80314133D02*
X162019504Y-80314133D01*
X162019504Y-80314133D02*
X162162361Y-80361752D01*
X162162361Y-80361752D02*
X162257600Y-80456990D01*
X162257600Y-80456990D02*
X162305219Y-80599847D01*
X162305219Y-80599847D02*
X162305219Y-80695085D01*
X161400457Y-79885561D02*
X161352838Y-79837942D01*
X161352838Y-79837942D02*
X161305219Y-79742704D01*
X161305219Y-79742704D02*
X161305219Y-79504609D01*
X161305219Y-79504609D02*
X161352838Y-79409371D01*
X161352838Y-79409371D02*
X161400457Y-79361752D01*
X161400457Y-79361752D02*
X161495695Y-79314133D01*
X161495695Y-79314133D02*
X161590933Y-79314133D01*
X161590933Y-79314133D02*
X161733790Y-79361752D01*
X161733790Y-79361752D02*
X162305219Y-79933180D01*
X162305219Y-79933180D02*
X162305219Y-79314133D01*
X159457066Y-51735619D02*
X159457066Y-52449904D01*
X159457066Y-52449904D02*
X159409447Y-52592761D01*
X159409447Y-52592761D02*
X159314209Y-52688000D01*
X159314209Y-52688000D02*
X159171352Y-52735619D01*
X159171352Y-52735619D02*
X159076114Y-52735619D01*
X160457066Y-52735619D02*
X159885638Y-52735619D01*
X160171352Y-52735619D02*
X160171352Y-51735619D01*
X160171352Y-51735619D02*
X160076114Y-51878476D01*
X160076114Y-51878476D02*
X159980876Y-51973714D01*
X159980876Y-51973714D02*
X159885638Y-52021333D01*
X154492105Y-74195719D02*
X154492105Y-73195719D01*
X154492105Y-73195719D02*
X154730200Y-73195719D01*
X154730200Y-73195719D02*
X154873057Y-73243338D01*
X154873057Y-73243338D02*
X154968295Y-73338576D01*
X154968295Y-73338576D02*
X155015914Y-73433814D01*
X155015914Y-73433814D02*
X155063533Y-73624290D01*
X155063533Y-73624290D02*
X155063533Y-73767147D01*
X155063533Y-73767147D02*
X155015914Y-73957623D01*
X155015914Y-73957623D02*
X154968295Y-74052861D01*
X154968295Y-74052861D02*
X154873057Y-74148100D01*
X154873057Y-74148100D02*
X154730200Y-74195719D01*
X154730200Y-74195719D02*
X154492105Y-74195719D01*
X155968295Y-73195719D02*
X155492105Y-73195719D01*
X155492105Y-73195719D02*
X155444486Y-73671909D01*
X155444486Y-73671909D02*
X155492105Y-73624290D01*
X155492105Y-73624290D02*
X155587343Y-73576671D01*
X155587343Y-73576671D02*
X155825438Y-73576671D01*
X155825438Y-73576671D02*
X155920676Y-73624290D01*
X155920676Y-73624290D02*
X155968295Y-73671909D01*
X155968295Y-73671909D02*
X156015914Y-73767147D01*
X156015914Y-73767147D02*
X156015914Y-74005242D01*
X156015914Y-74005242D02*
X155968295Y-74100480D01*
X155968295Y-74100480D02*
X155920676Y-74148100D01*
X155920676Y-74148100D02*
X155825438Y-74195719D01*
X155825438Y-74195719D02*
X155587343Y-74195719D01*
X155587343Y-74195719D02*
X155492105Y-74148100D01*
X155492105Y-74148100D02*
X155444486Y-74100480D01*
X139696019Y-55681394D02*
X138696019Y-55681394D01*
X138696019Y-55681394D02*
X138696019Y-55443299D01*
X138696019Y-55443299D02*
X138743638Y-55300442D01*
X138743638Y-55300442D02*
X138838876Y-55205204D01*
X138838876Y-55205204D02*
X138934114Y-55157585D01*
X138934114Y-55157585D02*
X139124590Y-55109966D01*
X139124590Y-55109966D02*
X139267447Y-55109966D01*
X139267447Y-55109966D02*
X139457923Y-55157585D01*
X139457923Y-55157585D02*
X139553161Y-55205204D01*
X139553161Y-55205204D02*
X139648400Y-55300442D01*
X139648400Y-55300442D02*
X139696019Y-55443299D01*
X139696019Y-55443299D02*
X139696019Y-55681394D01*
X139029352Y-54252823D02*
X139696019Y-54252823D01*
X138648400Y-54490918D02*
X139362685Y-54729013D01*
X139362685Y-54729013D02*
X139362685Y-54109966D01*
X155554005Y-55939219D02*
X155554005Y-54939219D01*
X155554005Y-54939219D02*
X155792100Y-54939219D01*
X155792100Y-54939219D02*
X155934957Y-54986838D01*
X155934957Y-54986838D02*
X156030195Y-55082076D01*
X156030195Y-55082076D02*
X156077814Y-55177314D01*
X156077814Y-55177314D02*
X156125433Y-55367790D01*
X156125433Y-55367790D02*
X156125433Y-55510647D01*
X156125433Y-55510647D02*
X156077814Y-55701123D01*
X156077814Y-55701123D02*
X156030195Y-55796361D01*
X156030195Y-55796361D02*
X155934957Y-55891600D01*
X155934957Y-55891600D02*
X155792100Y-55939219D01*
X155792100Y-55939219D02*
X155554005Y-55939219D01*
X156458767Y-54939219D02*
X157077814Y-54939219D01*
X157077814Y-54939219D02*
X156744481Y-55320171D01*
X156744481Y-55320171D02*
X156887338Y-55320171D01*
X156887338Y-55320171D02*
X156982576Y-55367790D01*
X156982576Y-55367790D02*
X157030195Y-55415409D01*
X157030195Y-55415409D02*
X157077814Y-55510647D01*
X157077814Y-55510647D02*
X157077814Y-55748742D01*
X157077814Y-55748742D02*
X157030195Y-55843980D01*
X157030195Y-55843980D02*
X156982576Y-55891600D01*
X156982576Y-55891600D02*
X156887338Y-55939219D01*
X156887338Y-55939219D02*
X156601624Y-55939219D01*
X156601624Y-55939219D02*
X156506386Y-55891600D01*
X156506386Y-55891600D02*
X156458767Y-55843980D01*
X150945219Y-73045094D02*
X149945219Y-73045094D01*
X149945219Y-73045094D02*
X149945219Y-72806999D01*
X149945219Y-72806999D02*
X149992838Y-72664142D01*
X149992838Y-72664142D02*
X150088076Y-72568904D01*
X150088076Y-72568904D02*
X150183314Y-72521285D01*
X150183314Y-72521285D02*
X150373790Y-72473666D01*
X150373790Y-72473666D02*
X150516647Y-72473666D01*
X150516647Y-72473666D02*
X150707123Y-72521285D01*
X150707123Y-72521285D02*
X150802361Y-72568904D01*
X150802361Y-72568904D02*
X150897600Y-72664142D01*
X150897600Y-72664142D02*
X150945219Y-72806999D01*
X150945219Y-72806999D02*
X150945219Y-73045094D01*
X150040457Y-72092713D02*
X149992838Y-72045094D01*
X149992838Y-72045094D02*
X149945219Y-71949856D01*
X149945219Y-71949856D02*
X149945219Y-71711761D01*
X149945219Y-71711761D02*
X149992838Y-71616523D01*
X149992838Y-71616523D02*
X150040457Y-71568904D01*
X150040457Y-71568904D02*
X150135695Y-71521285D01*
X150135695Y-71521285D02*
X150230933Y-71521285D01*
X150230933Y-71521285D02*
X150373790Y-71568904D01*
X150373790Y-71568904D02*
X150945219Y-72140332D01*
X150945219Y-72140332D02*
X150945219Y-71521285D01*
X146987542Y-74580080D02*
X146939923Y-74627700D01*
X146939923Y-74627700D02*
X146797066Y-74675319D01*
X146797066Y-74675319D02*
X146701828Y-74675319D01*
X146701828Y-74675319D02*
X146558971Y-74627700D01*
X146558971Y-74627700D02*
X146463733Y-74532461D01*
X146463733Y-74532461D02*
X146416114Y-74437223D01*
X146416114Y-74437223D02*
X146368495Y-74246747D01*
X146368495Y-74246747D02*
X146368495Y-74103890D01*
X146368495Y-74103890D02*
X146416114Y-73913414D01*
X146416114Y-73913414D02*
X146463733Y-73818176D01*
X146463733Y-73818176D02*
X146558971Y-73722938D01*
X146558971Y-73722938D02*
X146701828Y-73675319D01*
X146701828Y-73675319D02*
X146797066Y-73675319D01*
X146797066Y-73675319D02*
X146939923Y-73722938D01*
X146939923Y-73722938D02*
X146987542Y-73770557D01*
X147844685Y-73675319D02*
X147654209Y-73675319D01*
X147654209Y-73675319D02*
X147558971Y-73722938D01*
X147558971Y-73722938D02*
X147511352Y-73770557D01*
X147511352Y-73770557D02*
X147416114Y-73913414D01*
X147416114Y-73913414D02*
X147368495Y-74103890D01*
X147368495Y-74103890D02*
X147368495Y-74484842D01*
X147368495Y-74484842D02*
X147416114Y-74580080D01*
X147416114Y-74580080D02*
X147463733Y-74627700D01*
X147463733Y-74627700D02*
X147558971Y-74675319D01*
X147558971Y-74675319D02*
X147749447Y-74675319D01*
X147749447Y-74675319D02*
X147844685Y-74627700D01*
X147844685Y-74627700D02*
X147892304Y-74580080D01*
X147892304Y-74580080D02*
X147939923Y-74484842D01*
X147939923Y-74484842D02*
X147939923Y-74246747D01*
X147939923Y-74246747D02*
X147892304Y-74151509D01*
X147892304Y-74151509D02*
X147844685Y-74103890D01*
X147844685Y-74103890D02*
X147749447Y-74056271D01*
X147749447Y-74056271D02*
X147558971Y-74056271D01*
X147558971Y-74056271D02*
X147463733Y-74103890D01*
X147463733Y-74103890D02*
X147416114Y-74151509D01*
X147416114Y-74151509D02*
X147368495Y-74246747D01*
X148273257Y-73675319D02*
X148892304Y-73675319D01*
X148892304Y-73675319D02*
X148558971Y-74056271D01*
X148558971Y-74056271D02*
X148701828Y-74056271D01*
X148701828Y-74056271D02*
X148797066Y-74103890D01*
X148797066Y-74103890D02*
X148844685Y-74151509D01*
X148844685Y-74151509D02*
X148892304Y-74246747D01*
X148892304Y-74246747D02*
X148892304Y-74484842D01*
X148892304Y-74484842D02*
X148844685Y-74580080D01*
X148844685Y-74580080D02*
X148797066Y-74627700D01*
X148797066Y-74627700D02*
X148701828Y-74675319D01*
X148701828Y-74675319D02*
X148416114Y-74675319D01*
X148416114Y-74675319D02*
X148320876Y-74627700D01*
X148320876Y-74627700D02*
X148273257Y-74580080D01*
X148912742Y-76900080D02*
X148865123Y-76947700D01*
X148865123Y-76947700D02*
X148722266Y-76995319D01*
X148722266Y-76995319D02*
X148627028Y-76995319D01*
X148627028Y-76995319D02*
X148484171Y-76947700D01*
X148484171Y-76947700D02*
X148388933Y-76852461D01*
X148388933Y-76852461D02*
X148341314Y-76757223D01*
X148341314Y-76757223D02*
X148293695Y-76566747D01*
X148293695Y-76566747D02*
X148293695Y-76423890D01*
X148293695Y-76423890D02*
X148341314Y-76233414D01*
X148341314Y-76233414D02*
X148388933Y-76138176D01*
X148388933Y-76138176D02*
X148484171Y-76042938D01*
X148484171Y-76042938D02*
X148627028Y-75995319D01*
X148627028Y-75995319D02*
X148722266Y-75995319D01*
X148722266Y-75995319D02*
X148865123Y-76042938D01*
X148865123Y-76042938D02*
X148912742Y-76090557D01*
X149769885Y-75995319D02*
X149579409Y-75995319D01*
X149579409Y-75995319D02*
X149484171Y-76042938D01*
X149484171Y-76042938D02*
X149436552Y-76090557D01*
X149436552Y-76090557D02*
X149341314Y-76233414D01*
X149341314Y-76233414D02*
X149293695Y-76423890D01*
X149293695Y-76423890D02*
X149293695Y-76804842D01*
X149293695Y-76804842D02*
X149341314Y-76900080D01*
X149341314Y-76900080D02*
X149388933Y-76947700D01*
X149388933Y-76947700D02*
X149484171Y-76995319D01*
X149484171Y-76995319D02*
X149674647Y-76995319D01*
X149674647Y-76995319D02*
X149769885Y-76947700D01*
X149769885Y-76947700D02*
X149817504Y-76900080D01*
X149817504Y-76900080D02*
X149865123Y-76804842D01*
X149865123Y-76804842D02*
X149865123Y-76566747D01*
X149865123Y-76566747D02*
X149817504Y-76471509D01*
X149817504Y-76471509D02*
X149769885Y-76423890D01*
X149769885Y-76423890D02*
X149674647Y-76376271D01*
X149674647Y-76376271D02*
X149484171Y-76376271D01*
X149484171Y-76376271D02*
X149388933Y-76423890D01*
X149388933Y-76423890D02*
X149341314Y-76471509D01*
X149341314Y-76471509D02*
X149293695Y-76566747D01*
X150246076Y-76090557D02*
X150293695Y-76042938D01*
X150293695Y-76042938D02*
X150388933Y-75995319D01*
X150388933Y-75995319D02*
X150627028Y-75995319D01*
X150627028Y-75995319D02*
X150722266Y-76042938D01*
X150722266Y-76042938D02*
X150769885Y-76090557D01*
X150769885Y-76090557D02*
X150817504Y-76185795D01*
X150817504Y-76185795D02*
X150817504Y-76281033D01*
X150817504Y-76281033D02*
X150769885Y-76423890D01*
X150769885Y-76423890D02*
X150198457Y-76995319D01*
X150198457Y-76995319D02*
X150817504Y-76995319D01*
X154489280Y-70452157D02*
X154536900Y-70499776D01*
X154536900Y-70499776D02*
X154584519Y-70642633D01*
X154584519Y-70642633D02*
X154584519Y-70737871D01*
X154584519Y-70737871D02*
X154536900Y-70880728D01*
X154536900Y-70880728D02*
X154441661Y-70975966D01*
X154441661Y-70975966D02*
X154346423Y-71023585D01*
X154346423Y-71023585D02*
X154155947Y-71071204D01*
X154155947Y-71071204D02*
X154013090Y-71071204D01*
X154013090Y-71071204D02*
X153822614Y-71023585D01*
X153822614Y-71023585D02*
X153727376Y-70975966D01*
X153727376Y-70975966D02*
X153632138Y-70880728D01*
X153632138Y-70880728D02*
X153584519Y-70737871D01*
X153584519Y-70737871D02*
X153584519Y-70642633D01*
X153584519Y-70642633D02*
X153632138Y-70499776D01*
X153632138Y-70499776D02*
X153679757Y-70452157D01*
X153584519Y-69547395D02*
X153584519Y-70023585D01*
X153584519Y-70023585D02*
X154060709Y-70071204D01*
X154060709Y-70071204D02*
X154013090Y-70023585D01*
X154013090Y-70023585D02*
X153965471Y-69928347D01*
X153965471Y-69928347D02*
X153965471Y-69690252D01*
X153965471Y-69690252D02*
X154013090Y-69595014D01*
X154013090Y-69595014D02*
X154060709Y-69547395D01*
X154060709Y-69547395D02*
X154155947Y-69499776D01*
X154155947Y-69499776D02*
X154394042Y-69499776D01*
X154394042Y-69499776D02*
X154489280Y-69547395D01*
X154489280Y-69547395D02*
X154536900Y-69595014D01*
X154536900Y-69595014D02*
X154584519Y-69690252D01*
X154584519Y-69690252D02*
X154584519Y-69928347D01*
X154584519Y-69928347D02*
X154536900Y-70023585D01*
X154536900Y-70023585D02*
X154489280Y-70071204D01*
X154013090Y-68928347D02*
X153965471Y-69023585D01*
X153965471Y-69023585D02*
X153917852Y-69071204D01*
X153917852Y-69071204D02*
X153822614Y-69118823D01*
X153822614Y-69118823D02*
X153774995Y-69118823D01*
X153774995Y-69118823D02*
X153679757Y-69071204D01*
X153679757Y-69071204D02*
X153632138Y-69023585D01*
X153632138Y-69023585D02*
X153584519Y-68928347D01*
X153584519Y-68928347D02*
X153584519Y-68737871D01*
X153584519Y-68737871D02*
X153632138Y-68642633D01*
X153632138Y-68642633D02*
X153679757Y-68595014D01*
X153679757Y-68595014D02*
X153774995Y-68547395D01*
X153774995Y-68547395D02*
X153822614Y-68547395D01*
X153822614Y-68547395D02*
X153917852Y-68595014D01*
X153917852Y-68595014D02*
X153965471Y-68642633D01*
X153965471Y-68642633D02*
X154013090Y-68737871D01*
X154013090Y-68737871D02*
X154013090Y-68928347D01*
X154013090Y-68928347D02*
X154060709Y-69023585D01*
X154060709Y-69023585D02*
X154108328Y-69071204D01*
X154108328Y-69071204D02*
X154203566Y-69118823D01*
X154203566Y-69118823D02*
X154394042Y-69118823D01*
X154394042Y-69118823D02*
X154489280Y-69071204D01*
X154489280Y-69071204D02*
X154536900Y-69023585D01*
X154536900Y-69023585D02*
X154584519Y-68928347D01*
X154584519Y-68928347D02*
X154584519Y-68737871D01*
X154584519Y-68737871D02*
X154536900Y-68642633D01*
X154536900Y-68642633D02*
X154489280Y-68595014D01*
X154489280Y-68595014D02*
X154394042Y-68547395D01*
X154394042Y-68547395D02*
X154203566Y-68547395D01*
X154203566Y-68547395D02*
X154108328Y-68595014D01*
X154108328Y-68595014D02*
X154060709Y-68642633D01*
X154060709Y-68642633D02*
X154013090Y-68737871D01*
X154489280Y-68628557D02*
X154536900Y-68676176D01*
X154536900Y-68676176D02*
X154584519Y-68819033D01*
X154584519Y-68819033D02*
X154584519Y-68914271D01*
X154584519Y-68914271D02*
X154536900Y-69057128D01*
X154536900Y-69057128D02*
X154441661Y-69152366D01*
X154441661Y-69152366D02*
X154346423Y-69199985D01*
X154346423Y-69199985D02*
X154155947Y-69247604D01*
X154155947Y-69247604D02*
X154013090Y-69247604D01*
X154013090Y-69247604D02*
X153822614Y-69199985D01*
X153822614Y-69199985D02*
X153727376Y-69152366D01*
X153727376Y-69152366D02*
X153632138Y-69057128D01*
X153632138Y-69057128D02*
X153584519Y-68914271D01*
X153584519Y-68914271D02*
X153584519Y-68819033D01*
X153584519Y-68819033D02*
X153632138Y-68676176D01*
X153632138Y-68676176D02*
X153679757Y-68628557D01*
X153584519Y-67723795D02*
X153584519Y-68199985D01*
X153584519Y-68199985D02*
X154060709Y-68247604D01*
X154060709Y-68247604D02*
X154013090Y-68199985D01*
X154013090Y-68199985D02*
X153965471Y-68104747D01*
X153965471Y-68104747D02*
X153965471Y-67866652D01*
X153965471Y-67866652D02*
X154013090Y-67771414D01*
X154013090Y-67771414D02*
X154060709Y-67723795D01*
X154060709Y-67723795D02*
X154155947Y-67676176D01*
X154155947Y-67676176D02*
X154394042Y-67676176D01*
X154394042Y-67676176D02*
X154489280Y-67723795D01*
X154489280Y-67723795D02*
X154536900Y-67771414D01*
X154536900Y-67771414D02*
X154584519Y-67866652D01*
X154584519Y-67866652D02*
X154584519Y-68104747D01*
X154584519Y-68104747D02*
X154536900Y-68199985D01*
X154536900Y-68199985D02*
X154489280Y-68247604D01*
X153584519Y-67342842D02*
X153584519Y-66676176D01*
X153584519Y-66676176D02*
X154584519Y-67104747D01*
X140688342Y-75020480D02*
X140640723Y-75068100D01*
X140640723Y-75068100D02*
X140497866Y-75115719D01*
X140497866Y-75115719D02*
X140402628Y-75115719D01*
X140402628Y-75115719D02*
X140259771Y-75068100D01*
X140259771Y-75068100D02*
X140164533Y-74972861D01*
X140164533Y-74972861D02*
X140116914Y-74877623D01*
X140116914Y-74877623D02*
X140069295Y-74687147D01*
X140069295Y-74687147D02*
X140069295Y-74544290D01*
X140069295Y-74544290D02*
X140116914Y-74353814D01*
X140116914Y-74353814D02*
X140164533Y-74258576D01*
X140164533Y-74258576D02*
X140259771Y-74163338D01*
X140259771Y-74163338D02*
X140402628Y-74115719D01*
X140402628Y-74115719D02*
X140497866Y-74115719D01*
X140497866Y-74115719D02*
X140640723Y-74163338D01*
X140640723Y-74163338D02*
X140688342Y-74210957D01*
X141593104Y-74115719D02*
X141116914Y-74115719D01*
X141116914Y-74115719D02*
X141069295Y-74591909D01*
X141069295Y-74591909D02*
X141116914Y-74544290D01*
X141116914Y-74544290D02*
X141212152Y-74496671D01*
X141212152Y-74496671D02*
X141450247Y-74496671D01*
X141450247Y-74496671D02*
X141545485Y-74544290D01*
X141545485Y-74544290D02*
X141593104Y-74591909D01*
X141593104Y-74591909D02*
X141640723Y-74687147D01*
X141640723Y-74687147D02*
X141640723Y-74925242D01*
X141640723Y-74925242D02*
X141593104Y-75020480D01*
X141593104Y-75020480D02*
X141545485Y-75068100D01*
X141545485Y-75068100D02*
X141450247Y-75115719D01*
X141450247Y-75115719D02*
X141212152Y-75115719D01*
X141212152Y-75115719D02*
X141116914Y-75068100D01*
X141116914Y-75068100D02*
X141069295Y-75020480D01*
X142497866Y-74115719D02*
X142307390Y-74115719D01*
X142307390Y-74115719D02*
X142212152Y-74163338D01*
X142212152Y-74163338D02*
X142164533Y-74210957D01*
X142164533Y-74210957D02*
X142069295Y-74353814D01*
X142069295Y-74353814D02*
X142021676Y-74544290D01*
X142021676Y-74544290D02*
X142021676Y-74925242D01*
X142021676Y-74925242D02*
X142069295Y-75020480D01*
X142069295Y-75020480D02*
X142116914Y-75068100D01*
X142116914Y-75068100D02*
X142212152Y-75115719D01*
X142212152Y-75115719D02*
X142402628Y-75115719D01*
X142402628Y-75115719D02*
X142497866Y-75068100D01*
X142497866Y-75068100D02*
X142545485Y-75020480D01*
X142545485Y-75020480D02*
X142593104Y-74925242D01*
X142593104Y-74925242D02*
X142593104Y-74687147D01*
X142593104Y-74687147D02*
X142545485Y-74591909D01*
X142545485Y-74591909D02*
X142497866Y-74544290D01*
X142497866Y-74544290D02*
X142402628Y-74496671D01*
X142402628Y-74496671D02*
X142212152Y-74496671D01*
X142212152Y-74496671D02*
X142116914Y-74544290D01*
X142116914Y-74544290D02*
X142069295Y-74591909D01*
X142069295Y-74591909D02*
X142021676Y-74687147D01*
D11*
%TO.C,U7*%
X136986400Y-79030800D02*
X137236400Y-79030800D01*
X140286400Y-79030800D02*
X140036400Y-79030800D01*
X136986400Y-78780800D02*
X136986400Y-79030800D01*
X140286400Y-78780800D02*
X140286400Y-79030800D01*
X136986400Y-75980800D02*
X136986400Y-75730800D01*
X140286400Y-75980800D02*
X140286400Y-75645800D01*
X136986400Y-75730800D02*
X137236400Y-75730800D01*
%TO.C,Y2*%
X153516900Y-67245300D02*
X153516900Y-71245300D01*
X156816900Y-67245300D02*
X153516900Y-67245300D01*
D12*
%TO.C,U15*%
X149782000Y-71957500D02*
X149142000Y-71957500D01*
X149782000Y-72437500D02*
X149782000Y-71957500D01*
X149782000Y-74657500D02*
X149782000Y-74177500D01*
X149782000Y-74657500D02*
X149142000Y-74657500D01*
X148222000Y-74657500D02*
X147582000Y-74657500D01*
X148222000Y-71957500D02*
X147582000Y-71957500D01*
X147582000Y-72437500D02*
X147582000Y-71957500D01*
D11*
%TO.C,U13*%
X146346100Y-80444800D02*
X146346100Y-74444800D01*
X141126100Y-77444800D02*
X141126100Y-74444800D01*
%TO.C,U9*%
X138400400Y-57176800D02*
X138400400Y-57426800D01*
X138150400Y-60476800D02*
X138485400Y-60476800D01*
X138150400Y-57176800D02*
X138400400Y-57176800D01*
X135350400Y-60476800D02*
X135100400Y-60476800D01*
X135350400Y-57176800D02*
X135100400Y-57176800D01*
X135100400Y-60476800D02*
X135100400Y-60226800D01*
X135100400Y-57176800D02*
X135100400Y-57426800D01*
%TO.C,U8*%
X140724400Y-60026800D02*
X139724400Y-60026800D01*
X140724400Y-57226800D02*
X139424400Y-57226800D01*
%TO.C,U6*%
X137036400Y-73406800D02*
X137036400Y-74706800D01*
X139836400Y-73406800D02*
X139836400Y-74406800D01*
%TO.C,U5*%
X155540400Y-77144800D02*
X155540400Y-76894800D01*
X155790400Y-73844800D02*
X155455400Y-73844800D01*
X155790400Y-77144800D02*
X155540400Y-77144800D01*
X158590400Y-73844800D02*
X158840400Y-73844800D01*
X158590400Y-77144800D02*
X158840400Y-77144800D01*
X158840400Y-73844800D02*
X158840400Y-74094800D01*
X158840400Y-77144800D02*
X158840400Y-76894800D01*
%TO.C,U4*%
X153216400Y-74294800D02*
X154216400Y-74294800D01*
X153216400Y-77094800D02*
X154516400Y-77094800D01*
%TO.C,U3*%
X154104400Y-60914800D02*
X154104400Y-59914800D01*
X156904400Y-60914800D02*
X156904400Y-59614800D01*
%TO.C,U2*%
X143360400Y-64200800D02*
X143360400Y-63550800D01*
X143360400Y-63550800D02*
X144010400Y-63550800D01*
X150580400Y-70120800D02*
X150580400Y-70770800D01*
X150580400Y-70770800D02*
X149930400Y-70770800D01*
X150580400Y-64200800D02*
X150580400Y-63550800D01*
X150580400Y-63550800D02*
X149930400Y-63550800D01*
X143360400Y-70120800D02*
X143360400Y-70770800D01*
%TO.C,U1*%
X156954400Y-55290800D02*
X156704400Y-55290800D01*
X153654400Y-55290800D02*
X153904400Y-55290800D01*
X156954400Y-55540800D02*
X156954400Y-55290800D01*
X153654400Y-55540800D02*
X153654400Y-55290800D01*
X156954400Y-58340800D02*
X156954400Y-58590800D01*
X153654400Y-58340800D02*
X153654400Y-58675800D01*
X156954400Y-58590800D02*
X156704400Y-58590800D01*
%TO.C,SW1*%
X159202900Y-66798000D02*
X153082900Y-66798000D01*
X159202900Y-63098000D02*
X159202900Y-66798000D01*
X153082900Y-66798000D02*
X153082900Y-63098000D01*
X153082900Y-63098000D02*
X159202900Y-63098000D01*
%TO.C,R34*%
X153887341Y-74011700D02*
X153580059Y-74011700D01*
X153887341Y-73251700D02*
X153580059Y-73251700D01*
%TO.C,R30*%
X151510759Y-73984500D02*
X151818041Y-73984500D01*
X151510759Y-74744500D02*
X151818041Y-74744500D01*
%TO.C,R28*%
X150979600Y-72688859D02*
X150979600Y-72996141D01*
X150219600Y-72688859D02*
X150219600Y-72996141D01*
%TO.C,R27*%
X146176759Y-71952500D02*
X146484041Y-71952500D01*
X146176759Y-72712500D02*
X146484041Y-72712500D01*
%TO.C,R26*%
X146176759Y-72968500D02*
X146484041Y-72968500D01*
X146176759Y-73728500D02*
X146484041Y-73728500D01*
%TO.C,R24*%
X152384500Y-67802059D02*
X152384500Y-68109341D01*
X151624500Y-67802059D02*
X151624500Y-68109341D01*
%TO.C,R14*%
X156082759Y-62603300D02*
X156390041Y-62603300D01*
X156082759Y-61843300D02*
X156390041Y-61843300D01*
%TO.C,R13*%
X154463641Y-62603300D02*
X154156359Y-62603300D01*
X154463641Y-61843300D02*
X154156359Y-61843300D01*
%TO.C,R2*%
X158017159Y-60827300D02*
X158324441Y-60827300D01*
X158017159Y-61587300D02*
X158324441Y-61587300D01*
%TO.C,R1*%
X158017159Y-61843300D02*
X158324441Y-61843300D01*
X158017159Y-62603300D02*
X158324441Y-62603300D01*
%TO.C,J7*%
X160204500Y-71506200D02*
X160204500Y-72836200D01*
X160204500Y-67636200D02*
X157544500Y-67636200D01*
X160204500Y-70236200D02*
X160204500Y-67636200D01*
X160204500Y-70236200D02*
X157544500Y-70236200D01*
X160204500Y-72836200D02*
X158874500Y-72836200D01*
X157544500Y-70236200D02*
X157544500Y-67636200D01*
%TO.C,J6*%
X152638100Y-56748000D02*
X152638100Y-60998000D01*
X143538100Y-59398000D02*
X144818100Y-59398000D01*
X142518100Y-60998000D02*
X143538100Y-60998000D01*
X151618100Y-59398000D02*
X150338100Y-59398000D01*
X152638100Y-60998000D02*
X151618100Y-60998000D01*
X143538100Y-60998000D02*
X143538100Y-59398000D01*
X150918100Y-53178000D02*
X144238100Y-53178000D01*
X151618100Y-60998000D02*
X151618100Y-59398000D01*
X150338100Y-59398000D02*
X150338100Y-62288000D01*
X142518100Y-56748000D02*
X142518100Y-60998000D01*
%TO.C,J5*%
X134835400Y-71755800D02*
X132105400Y-71755800D01*
X138435400Y-71755800D02*
X137535400Y-71755800D01*
X141515400Y-62685800D02*
X141515400Y-71635800D01*
X132105400Y-62565800D02*
X132105400Y-71755800D01*
X134835400Y-62565800D02*
X132105400Y-62565800D01*
X138435400Y-62565800D02*
X137535400Y-62565800D01*
%TO.C,J4*%
X133090400Y-55400800D02*
X133090400Y-54340800D01*
X135150400Y-53280800D02*
X139210400Y-53280800D01*
X135150400Y-55400800D02*
X139210400Y-55400800D01*
X135150400Y-55400800D02*
X135150400Y-53280800D01*
X139210400Y-55400800D02*
X139210400Y-53280800D01*
X134150400Y-55400800D02*
X133090400Y-55400800D01*
%TO.C,J3*%
X135210400Y-79980800D02*
X135210400Y-81040800D01*
X135210400Y-74920800D02*
X133090400Y-74920800D01*
X135210400Y-78980800D02*
X133090400Y-78980800D01*
X135210400Y-78980800D02*
X135210400Y-74920800D01*
X133090400Y-78980800D02*
X133090400Y-74920800D01*
X135210400Y-81040800D02*
X134150400Y-81040800D01*
%TO.C,J2*%
X160850400Y-78920800D02*
X160850400Y-79980800D01*
X158790400Y-81040800D02*
X154730400Y-81040800D01*
X158790400Y-78920800D02*
X154730400Y-78920800D01*
X158790400Y-78920800D02*
X158790400Y-81040800D01*
X154730400Y-78920800D02*
X154730400Y-81040800D01*
X159790400Y-78920800D02*
X160850400Y-78920800D01*
%TO.C,J1*%
X158730400Y-54340800D02*
X158730400Y-53280800D01*
X158730400Y-59400800D02*
X160850400Y-59400800D01*
X158730400Y-55340800D02*
X160850400Y-55340800D01*
X158730400Y-55340800D02*
X158730400Y-59400800D01*
X160850400Y-55340800D02*
X160850400Y-59400800D01*
X158730400Y-53280800D02*
X159790400Y-53280800D01*
%TO.C,D5*%
X156715200Y-71575900D02*
X154430200Y-71575900D01*
X156715200Y-73045900D02*
X156715200Y-71575900D01*
X154430200Y-73045900D02*
X156715200Y-73045900D01*
%TO.C,D4*%
X139936200Y-54143300D02*
X139936200Y-56428300D01*
X139936200Y-56428300D02*
X141406200Y-56428300D01*
X141406200Y-56428300D02*
X141406200Y-54143300D01*
%TO.C,D3*%
X155492100Y-54789400D02*
X157777100Y-54789400D01*
X157777100Y-54789400D02*
X157777100Y-53319400D01*
X157777100Y-53319400D02*
X155492100Y-53319400D01*
%TO.C,D2*%
X151185400Y-71507000D02*
X151185400Y-73792000D01*
X151185400Y-73792000D02*
X152655400Y-73792000D01*
X152655400Y-73792000D02*
X152655400Y-71507000D01*
%TO.C,C63*%
X147522564Y-75740500D02*
X147738236Y-75740500D01*
X147522564Y-75020500D02*
X147738236Y-75020500D01*
%TO.C,C62*%
X149663436Y-75740500D02*
X149447764Y-75740500D01*
X149663436Y-75020500D02*
X149447764Y-75020500D01*
%TO.C,C58*%
X152609700Y-69701464D02*
X152609700Y-69917136D01*
X153329700Y-69701464D02*
X153329700Y-69917136D01*
%TO.C,C57*%
X153329700Y-67877864D02*
X153329700Y-68093536D01*
X152609700Y-67877864D02*
X152609700Y-68093536D01*
%TO.C,C56*%
X141439036Y-73140900D02*
X141223364Y-73140900D01*
X141439036Y-73860900D02*
X141223364Y-73860900D01*
%TD*%
M02*
