%TF.GenerationSoftware,KiCad,Pcbnew,7.0.6*%
%TF.CreationDate,2023-07-24T08:09:00-07:00*%
%TF.ProjectId,minidrone,6d696e69-6472-46f6-9e65-2e6b69636164,rev?*%
%TF.SameCoordinates,Original*%
%TF.FileFunction,Soldermask,Bot*%
%TF.FilePolarity,Negative*%
%FSLAX46Y46*%
G04 Gerber Fmt 4.6, Leading zero omitted, Abs format (unit mm)*
G04 Created by KiCad (PCBNEW 7.0.6) date 2023-07-24 08:09:00*
%MOMM*%
%LPD*%
G01*
G04 APERTURE LIST*
G04 Aperture macros list*
%AMRoundRect*
0 Rectangle with rounded corners*
0 $1 Rounding radius*
0 $2 $3 $4 $5 $6 $7 $8 $9 X,Y pos of 4 corners*
0 Add a 4 corners polygon primitive as box body*
4,1,4,$2,$3,$4,$5,$6,$7,$8,$9,$2,$3,0*
0 Add four circle primitives for the rounded corners*
1,1,$1+$1,$2,$3*
1,1,$1+$1,$4,$5*
1,1,$1+$1,$6,$7*
1,1,$1+$1,$8,$9*
0 Add four rect primitives between the rounded corners*
20,1,$1+$1,$2,$3,$4,$5,0*
20,1,$1+$1,$4,$5,$6,$7,0*
20,1,$1+$1,$6,$7,$8,$9,0*
20,1,$1+$1,$8,$9,$2,$3,0*%
G04 Aperture macros list end*
%ADD10C,1.000000*%
%ADD11C,3.500000*%
%ADD12R,3.400000X0.980000*%
%ADD13RoundRect,0.087500X0.225000X0.087500X-0.225000X0.087500X-0.225000X-0.087500X0.225000X-0.087500X0*%
%ADD14RoundRect,0.087500X0.087500X0.225000X-0.087500X0.225000X-0.087500X-0.225000X0.087500X-0.225000X0*%
%ADD15R,0.280000X0.850000*%
%ADD16R,2.400000X1.650000*%
%ADD17R,0.700000X0.280000*%
%ADD18RoundRect,0.150000X0.512500X0.150000X-0.512500X0.150000X-0.512500X-0.150000X0.512500X-0.150000X0*%
%ADD19R,0.340000X0.700000*%
%ADD20RoundRect,0.135000X0.135000X0.185000X-0.135000X0.185000X-0.135000X-0.185000X0.135000X-0.185000X0*%
%ADD21RoundRect,0.135000X-0.135000X-0.185000X0.135000X-0.185000X0.135000X0.185000X-0.135000X0.185000X0*%
%ADD22RoundRect,0.135000X-0.185000X0.135000X-0.185000X-0.135000X0.185000X-0.135000X0.185000X0.135000X0*%
%ADD23RoundRect,0.135000X0.185000X-0.135000X0.185000X0.135000X-0.185000X0.135000X-0.185000X-0.135000X0*%
%ADD24R,0.980000X3.400000*%
%ADD25R,1.700000X1.700000*%
%ADD26O,1.700000X1.700000*%
%ADD27O,2.100000X1.100000*%
%ADD28C,0.700000*%
%ADD29R,1.350000X1.350000*%
%ADD30O,1.350000X1.350000*%
%ADD31RoundRect,0.112500X0.187500X0.112500X-0.187500X0.112500X-0.187500X-0.112500X0.187500X-0.112500X0*%
%ADD32RoundRect,0.140000X-0.170000X0.140000X-0.170000X-0.140000X0.170000X-0.140000X0.170000X0.140000X0*%
%ADD33RoundRect,0.225000X0.250000X-0.225000X0.250000X0.225000X-0.250000X0.225000X-0.250000X-0.225000X0*%
%ADD34RoundRect,0.140000X0.140000X0.170000X-0.140000X0.170000X-0.140000X-0.170000X0.140000X-0.170000X0*%
%ADD35RoundRect,0.250000X-0.250000X-0.475000X0.250000X-0.475000X0.250000X0.475000X-0.250000X0.475000X0*%
%ADD36RoundRect,0.250000X0.475000X-0.250000X0.475000X0.250000X-0.475000X0.250000X-0.475000X-0.250000X0*%
%ADD37RoundRect,0.250000X-0.475000X0.250000X-0.475000X-0.250000X0.475000X-0.250000X0.475000X0.250000X0*%
%ADD38RoundRect,0.140000X0.170000X-0.140000X0.170000X0.140000X-0.170000X0.140000X-0.170000X-0.140000X0*%
%ADD39RoundRect,0.140000X-0.140000X-0.170000X0.140000X-0.170000X0.140000X0.170000X-0.140000X0.170000X0*%
%ADD40RoundRect,0.225000X-0.225000X-0.250000X0.225000X-0.250000X0.225000X0.250000X-0.225000X0.250000X0*%
%ADD41RoundRect,0.250000X0.250000X0.475000X-0.250000X0.475000X-0.250000X-0.475000X0.250000X-0.475000X0*%
%ADD42RoundRect,0.225000X0.225000X0.250000X-0.225000X0.250000X-0.225000X-0.250000X0.225000X-0.250000X0*%
%ADD43RoundRect,0.225000X-0.250000X0.225000X-0.250000X-0.225000X0.250000X-0.225000X0.250000X0.225000X0*%
G04 APERTURE END LIST*
D10*
%TO.C,TP2*%
X157654900Y-64671800D03*
%TD*%
D11*
%TO.C,REF\u002A\u002A*%
X150685800Y-78412600D03*
%TD*%
D12*
%TO.C,L2*%
X144311900Y-76381800D03*
X144311900Y-74011800D03*
%TD*%
D13*
%TO.C,U14*%
X152320900Y-71529800D03*
X152320900Y-72029800D03*
X152320900Y-72529800D03*
X152320900Y-73029800D03*
D14*
X151658400Y-73192300D03*
X151158400Y-73192300D03*
X150658400Y-73192300D03*
D13*
X149995900Y-73029800D03*
X149995900Y-72529800D03*
X149995900Y-72029800D03*
X149995900Y-71529800D03*
D14*
X150658400Y-71367300D03*
X151158400Y-71367300D03*
X151658400Y-71367300D03*
%TD*%
D15*
%TO.C,U12*%
X148741300Y-57966200D03*
X148241300Y-57966200D03*
X147741300Y-57966200D03*
X147241300Y-57966200D03*
X146741300Y-57966200D03*
X146741300Y-55016200D03*
X147241300Y-55016200D03*
X147741300Y-55016200D03*
X148241300Y-55016200D03*
X148741300Y-55016200D03*
D16*
X147741300Y-56491200D03*
D17*
X146191300Y-56741200D03*
X149291300Y-56741200D03*
X146191300Y-56241200D03*
X149291300Y-56241200D03*
%TD*%
D18*
%TO.C,U11*%
X142776400Y-60772200D03*
X142776400Y-61722200D03*
X142776400Y-62672200D03*
X145051400Y-62672200D03*
X145051400Y-61722200D03*
X145051400Y-60772200D03*
%TD*%
D19*
%TO.C,U10*%
X143811900Y-77821800D03*
X144311900Y-77821800D03*
X144811900Y-77821800D03*
X144811900Y-79321800D03*
X144311900Y-79321800D03*
X143811900Y-79321800D03*
%TD*%
D10*
%TO.C,TP1*%
X157654900Y-66703800D03*
%TD*%
D20*
%TO.C,R35*%
X144079700Y-57442100D03*
X145099700Y-57442100D03*
%TD*%
D21*
%TO.C,R33*%
X149427200Y-65830100D03*
X150447200Y-65830100D03*
%TD*%
D22*
%TO.C,R32*%
X141899300Y-57192100D03*
X141899300Y-56172100D03*
%TD*%
%TO.C,R31*%
X158451200Y-56289600D03*
X158451200Y-55269600D03*
%TD*%
D23*
%TO.C,R29*%
X148313600Y-68277400D03*
X148313600Y-67257400D03*
%TD*%
D21*
%TO.C,R25*%
X149376400Y-70224300D03*
X150396400Y-70224300D03*
%TD*%
%TO.C,R23*%
X142377000Y-70661000D03*
X143397000Y-70661000D03*
%TD*%
D20*
%TO.C,R22*%
X143397000Y-69645000D03*
X142377000Y-69645000D03*
%TD*%
D23*
%TO.C,R21*%
X146978900Y-78714800D03*
X146978900Y-77694800D03*
%TD*%
D20*
%TO.C,R20*%
X144079700Y-58407300D03*
X145099700Y-58407300D03*
%TD*%
D23*
%TO.C,R19*%
X145040000Y-56039600D03*
X145040000Y-55019600D03*
%TD*%
D21*
%TO.C,R18*%
X145099700Y-59372500D03*
X144079700Y-59372500D03*
%TD*%
D20*
%TO.C,R17*%
X149261300Y-53847800D03*
X148241300Y-53847800D03*
%TD*%
%TO.C,R16*%
X146449900Y-64262200D03*
X147469900Y-64262200D03*
%TD*%
%TO.C,R15*%
X148481900Y-64262200D03*
X149501900Y-64262200D03*
%TD*%
%TO.C,R12*%
X135804800Y-60150800D03*
X134784800Y-60150800D03*
%TD*%
D22*
%TO.C,R11*%
X139960400Y-79346400D03*
X139960400Y-78326400D03*
%TD*%
D21*
%TO.C,R10*%
X158136000Y-74170800D03*
X159156000Y-74170800D03*
%TD*%
D23*
%TO.C,R9*%
X153980400Y-54975200D03*
X153980400Y-55995200D03*
%TD*%
D20*
%TO.C,R8*%
X138063000Y-68435800D03*
X137043000Y-68435800D03*
%TD*%
%TO.C,R7*%
X138063000Y-65895800D03*
X137043000Y-65895800D03*
%TD*%
D21*
%TO.C,R6*%
X142512900Y-68293900D03*
X143532900Y-68293900D03*
%TD*%
D23*
%TO.C,R5*%
X142568000Y-67155600D03*
X142568000Y-66135600D03*
%TD*%
D22*
%TO.C,R4*%
X141771900Y-73753800D03*
X141771900Y-74773800D03*
%TD*%
%TO.C,R3*%
X141771900Y-75658800D03*
X141771900Y-76678800D03*
%TD*%
D24*
%TO.C,L1*%
X146961900Y-61722200D03*
X149331900Y-61722200D03*
%TD*%
D25*
%TO.C,J7*%
X158874500Y-71506200D03*
D26*
X158874500Y-68966200D03*
%TD*%
D27*
%TO.C,J5*%
X136685400Y-71760800D03*
X139685400Y-71760800D03*
X136685400Y-62560800D03*
X139685400Y-62560800D03*
D28*
X139485400Y-64185800D03*
X139485400Y-65035800D03*
X139485400Y-65885800D03*
X139485400Y-66735800D03*
X139485400Y-67585800D03*
X139485400Y-68435800D03*
X139485400Y-69285800D03*
X139485400Y-70135800D03*
X140835400Y-70135800D03*
X140835400Y-69285800D03*
X140835400Y-68435800D03*
X140835400Y-67585800D03*
X140835400Y-66735800D03*
X140835400Y-65885800D03*
X140835400Y-65035800D03*
X140835400Y-64185800D03*
%TD*%
D29*
%TO.C,J4*%
X134150400Y-54340800D03*
D30*
X136150400Y-54340800D03*
X138150400Y-54340800D03*
%TD*%
%TO.C,J3*%
X134150400Y-75980800D03*
X134150400Y-77980800D03*
D29*
X134150400Y-79980800D03*
%TD*%
%TO.C,J2*%
X159790400Y-79980800D03*
D30*
X157790400Y-79980800D03*
X155790400Y-79980800D03*
%TD*%
%TO.C,J1*%
X159790400Y-58340800D03*
X159790400Y-56340800D03*
D29*
X159790400Y-54340800D03*
%TD*%
D20*
%TO.C,FB1*%
X146106800Y-67049300D03*
X145086800Y-67049300D03*
%TD*%
D31*
%TO.C,D1*%
X150695700Y-60731600D03*
X152795700Y-60731600D03*
%TD*%
D32*
%TO.C,C61*%
X148872400Y-72360500D03*
X148872400Y-73320500D03*
%TD*%
D33*
%TO.C,C60*%
X149126400Y-76079300D03*
X149126400Y-74529300D03*
%TD*%
D34*
%TO.C,C59*%
X151384400Y-74288300D03*
X150424400Y-74288300D03*
%TD*%
D35*
%TO.C,C55*%
X150652900Y-54203400D03*
X152552900Y-54203400D03*
%TD*%
D36*
%TO.C,C54*%
X150890900Y-55968900D03*
X150890900Y-57868900D03*
%TD*%
D37*
%TO.C,C53*%
X153176700Y-64414600D03*
X153176700Y-62514600D03*
%TD*%
%TO.C,C52*%
X151144700Y-64414600D03*
X151144700Y-62514600D03*
%TD*%
D38*
%TO.C,C51*%
X141348500Y-62001600D03*
X141348500Y-62961600D03*
%TD*%
D35*
%TO.C,C50*%
X143278900Y-64516200D03*
X145178900Y-64516200D03*
%TD*%
D36*
%TO.C,C49*%
X146343900Y-70313600D03*
X146343900Y-68413600D03*
%TD*%
D32*
%TO.C,C48*%
X143533200Y-66144800D03*
X143533200Y-67104800D03*
%TD*%
D34*
%TO.C,C47*%
X150323200Y-67668800D03*
X149363200Y-67668800D03*
%TD*%
D39*
%TO.C,C46*%
X145124700Y-66046400D03*
X146084700Y-66046400D03*
%TD*%
D32*
%TO.C,C45*%
X148313600Y-65322100D03*
X148313600Y-66282100D03*
%TD*%
D38*
%TO.C,C44*%
X144370400Y-70598300D03*
X144370400Y-69638300D03*
%TD*%
D39*
%TO.C,C43*%
X151804900Y-66179800D03*
X152764900Y-66179800D03*
%TD*%
D32*
%TO.C,C42*%
X147224400Y-66048400D03*
X147224400Y-67008400D03*
%TD*%
D38*
%TO.C,C41*%
X147970400Y-70186700D03*
X147970400Y-69226700D03*
%TD*%
D35*
%TO.C,C40*%
X151931900Y-67703800D03*
X153831900Y-67703800D03*
%TD*%
%TO.C,C39*%
X145713900Y-72233800D03*
X147613900Y-72233800D03*
%TD*%
D37*
%TO.C,C38*%
X147359900Y-74265800D03*
X147359900Y-76165800D03*
%TD*%
D34*
%TO.C,C37*%
X142660900Y-72741800D03*
X141700900Y-72741800D03*
%TD*%
D35*
%TO.C,C36*%
X146343900Y-80149800D03*
X148243900Y-80149800D03*
%TD*%
D39*
%TO.C,C35*%
X144890900Y-80615800D03*
X143930900Y-80615800D03*
%TD*%
D36*
%TO.C,C34*%
X142025900Y-80276800D03*
X142025900Y-78376800D03*
%TD*%
D38*
%TO.C,C33*%
X145962900Y-78654800D03*
X145962900Y-77694800D03*
%TD*%
D34*
%TO.C,C32*%
X137928400Y-58404800D03*
X136968400Y-58404800D03*
%TD*%
%TO.C,C31*%
X137928399Y-57388800D03*
X136968399Y-57388800D03*
%TD*%
D36*
%TO.C,C30*%
X140341400Y-56118800D03*
X140341400Y-54218800D03*
%TD*%
D35*
%TO.C,C29*%
X133864400Y-57134801D03*
X135764400Y-57134801D03*
%TD*%
D40*
%TO.C,C28*%
X134245400Y-58912800D03*
X135795400Y-58912800D03*
%TD*%
D34*
%TO.C,C27*%
X140793400Y-57388800D03*
X139833400Y-57388800D03*
%TD*%
%TO.C,C26*%
X137928400Y-59420800D03*
X136968400Y-59420800D03*
%TD*%
%TO.C,C25*%
X140376800Y-59642799D03*
X139416800Y-59642799D03*
%TD*%
D32*
%TO.C,C24*%
X138214400Y-77162800D03*
X138214400Y-76202800D03*
%TD*%
%TO.C,C23*%
X137198400Y-77162801D03*
X137198400Y-76202801D03*
%TD*%
D41*
%TO.C,C22*%
X134028400Y-73789800D03*
X135928400Y-73789800D03*
%TD*%
D36*
%TO.C,C21*%
X136944401Y-78366800D03*
X136944401Y-80266800D03*
%TD*%
D33*
%TO.C,C20*%
X138722400Y-78335800D03*
X138722400Y-79885800D03*
%TD*%
D32*
%TO.C,C19*%
X137198400Y-74297800D03*
X137198400Y-73337800D03*
%TD*%
%TO.C,C18*%
X139230400Y-77162800D03*
X139230400Y-76202800D03*
%TD*%
%TO.C,C17*%
X139452399Y-74714400D03*
X139452399Y-73754400D03*
%TD*%
D39*
%TO.C,C16*%
X156012400Y-75916800D03*
X156972400Y-75916800D03*
%TD*%
%TO.C,C15*%
X156012401Y-76932800D03*
X156972401Y-76932800D03*
%TD*%
D37*
%TO.C,C14*%
X153599400Y-78202800D03*
X153599400Y-80102800D03*
%TD*%
D41*
%TO.C,C13*%
X160076400Y-77186799D03*
X158176400Y-77186799D03*
%TD*%
D42*
%TO.C,C12*%
X159695400Y-75408800D03*
X158145400Y-75408800D03*
%TD*%
D39*
%TO.C,C11*%
X153147400Y-76932800D03*
X154107400Y-76932800D03*
%TD*%
%TO.C,C10*%
X156012400Y-74900800D03*
X156972400Y-74900800D03*
%TD*%
%TO.C,C9*%
X153564000Y-74678801D03*
X154524000Y-74678801D03*
%TD*%
D38*
%TO.C,C8*%
X154488400Y-59607200D03*
X154488400Y-60567200D03*
%TD*%
%TO.C,C7*%
X154710400Y-57158800D03*
X154710400Y-58118800D03*
%TD*%
%TO.C,C6*%
X156742400Y-60023800D03*
X156742400Y-60983800D03*
%TD*%
D43*
%TO.C,C5*%
X155218400Y-55985800D03*
X155218400Y-54435800D03*
%TD*%
D38*
%TO.C,C4*%
X155726400Y-57158800D03*
X155726400Y-58118800D03*
%TD*%
D35*
%TO.C,C3*%
X159912400Y-60531800D03*
X158012400Y-60531800D03*
%TD*%
D38*
%TO.C,C2*%
X156742400Y-57158800D03*
X156742400Y-58118800D03*
%TD*%
D37*
%TO.C,C1*%
X156996400Y-54054800D03*
X156996400Y-55954800D03*
%TD*%
M02*
