%TF.GenerationSoftware,KiCad,Pcbnew,7.0.6*%
%TF.CreationDate,2023-07-24T08:09:00-07:00*%
%TF.ProjectId,minidrone,6d696e69-6472-46f6-9e65-2e6b69636164,rev?*%
%TF.SameCoordinates,Original*%
%TF.FileFunction,Paste,Top*%
%TF.FilePolarity,Positive*%
%FSLAX46Y46*%
G04 Gerber Fmt 4.6, Leading zero omitted, Abs format (unit mm)*
G04 Created by KiCad (PCBNEW 7.0.6) date 2023-07-24 08:09:00*
%MOMM*%
%LPD*%
G01*
G04 APERTURE LIST*
G04 Aperture macros list*
%AMRoundRect*
0 Rectangle with rounded corners*
0 $1 Rounding radius*
0 $2 $3 $4 $5 $6 $7 $8 $9 X,Y pos of 4 corners*
0 Add a 4 corners polygon primitive as box body*
4,1,4,$2,$3,$4,$5,$6,$7,$8,$9,$2,$3,0*
0 Add four circle primitives for the rounded corners*
1,1,$1+$1,$2,$3*
1,1,$1+$1,$4,$5*
1,1,$1+$1,$6,$7*
1,1,$1+$1,$8,$9*
0 Add four rect primitives between the rounded corners*
20,1,$1+$1,$2,$3,$4,$5,0*
20,1,$1+$1,$4,$5,$6,$7,0*
20,1,$1+$1,$6,$7,$8,$9,0*
20,1,$1+$1,$8,$9,$2,$3,0*%
G04 Aperture macros list end*
%ADD10R,0.400000X0.400000*%
%ADD11O,0.470000X0.200000*%
%ADD12O,0.200000X0.470000*%
%ADD13R,1.200000X1.400000*%
%ADD14R,0.500000X0.350000*%
%ADD15RoundRect,0.250000X0.615000X-0.435000X0.615000X0.435000X-0.615000X0.435000X-0.615000X-0.435000X0*%
%ADD16RoundRect,0.125000X0.125000X-0.250000X0.125000X0.250000X-0.125000X0.250000X-0.125000X-0.250000X0*%
%ADD17R,0.550000X0.300000*%
%ADD18R,0.550000X0.400000*%
%ADD19R,0.300000X0.550000*%
%ADD20R,0.400000X0.550000*%
%ADD21RoundRect,0.050000X0.050000X-0.387500X0.050000X0.387500X-0.050000X0.387500X-0.050000X-0.387500X0*%
%ADD22RoundRect,0.050000X0.387500X-0.050000X0.387500X0.050000X-0.387500X0.050000X-0.387500X-0.050000X0*%
%ADD23RoundRect,0.249999X0.395001X-0.395001X0.395001X0.395001X-0.395001X0.395001X-0.395001X-0.395001X0*%
%ADD24R,1.500000X1.500000*%
%ADD25RoundRect,0.135000X0.135000X0.185000X-0.135000X0.185000X-0.135000X-0.185000X0.135000X-0.185000X0*%
%ADD26RoundRect,0.135000X-0.135000X-0.185000X0.135000X-0.185000X0.135000X0.185000X-0.135000X0.185000X0*%
%ADD27RoundRect,0.135000X-0.185000X0.135000X-0.185000X-0.135000X0.185000X-0.135000X0.185000X0.135000X0*%
%ADD28RoundRect,0.250001X0.499999X1.449999X-0.499999X1.449999X-0.499999X-1.449999X0.499999X-1.449999X0*%
%ADD29RoundRect,0.250000X0.250000X1.500000X-0.250000X1.500000X-0.250000X-1.500000X0.250000X-1.500000X0*%
%ADD30RoundRect,0.218750X0.218750X0.256250X-0.218750X0.256250X-0.218750X-0.256250X0.218750X-0.256250X0*%
%ADD31RoundRect,0.218750X0.256250X-0.218750X0.256250X0.218750X-0.256250X0.218750X-0.256250X-0.218750X0*%
%ADD32RoundRect,0.140000X-0.140000X-0.170000X0.140000X-0.170000X0.140000X0.170000X-0.140000X0.170000X0*%
%ADD33RoundRect,0.140000X0.140000X0.170000X-0.140000X0.170000X-0.140000X-0.170000X0.140000X-0.170000X0*%
%ADD34RoundRect,0.140000X-0.170000X0.140000X-0.170000X-0.140000X0.170000X-0.140000X0.170000X0.140000X0*%
G04 APERTURE END LIST*
D10*
%TO.C,U7*%
X138636400Y-77380800D03*
D11*
X140201400Y-76380800D03*
X140201400Y-76780800D03*
X140201400Y-77180800D03*
X140201400Y-77580800D03*
X140201400Y-77980800D03*
X140201400Y-78380800D03*
D12*
X139636400Y-78945800D03*
X139236400Y-78945800D03*
X138836400Y-78945800D03*
X138436400Y-78945800D03*
X138036400Y-78945800D03*
X137636400Y-78945800D03*
D11*
X137071400Y-78380800D03*
X137071400Y-77980800D03*
X137071400Y-77580800D03*
X137071400Y-77180800D03*
X137071400Y-76780800D03*
X137071400Y-76380800D03*
D12*
X137636400Y-75815800D03*
X138036400Y-75815800D03*
X138436400Y-75815800D03*
X138836400Y-75815800D03*
X139236400Y-75815800D03*
X139636400Y-75815800D03*
%TD*%
D13*
%TO.C,Y2*%
X154366900Y-68145300D03*
X154366900Y-70345300D03*
X155966900Y-70345300D03*
X155966900Y-68145300D03*
%TD*%
D14*
%TO.C,U15*%
X147882000Y-74282500D03*
X147882000Y-73632500D03*
X147882000Y-72982500D03*
X147882000Y-72332500D03*
X149482000Y-72332500D03*
X149482000Y-72982500D03*
X149482000Y-73632500D03*
X149482000Y-74282500D03*
%TD*%
D15*
%TO.C,U13*%
X142661100Y-78294800D03*
X144811100Y-76594800D03*
X142661100Y-76594800D03*
X144811100Y-78294800D03*
D16*
X141831100Y-80144800D03*
X143101100Y-80144800D03*
X144371100Y-80144800D03*
X145641100Y-80144800D03*
X145641100Y-74744800D03*
X144371100Y-74744800D03*
X143101100Y-74744800D03*
X141831100Y-74744800D03*
%TD*%
D11*
%TO.C,U9*%
X138315400Y-59826800D03*
X138315400Y-59426800D03*
X138315400Y-59026800D03*
X138315400Y-58626800D03*
X138315400Y-58226800D03*
X138315400Y-57826800D03*
D12*
X137750400Y-57261800D03*
X137350400Y-57261800D03*
X136950400Y-57261800D03*
X136550400Y-57261800D03*
X136150400Y-57261800D03*
X135750400Y-57261800D03*
D11*
X135185400Y-57826800D03*
X135185400Y-58226800D03*
X135185400Y-58626800D03*
X135185400Y-59026800D03*
X135185400Y-59426800D03*
X135185400Y-59826800D03*
D12*
X135750400Y-60391800D03*
X136150400Y-60391800D03*
X136550400Y-60391800D03*
X136950400Y-60391800D03*
X137350400Y-60391800D03*
X137750400Y-60391800D03*
D10*
X136750400Y-58826800D03*
%TD*%
D17*
%TO.C,U8*%
X139839400Y-57626800D03*
X139839400Y-58126800D03*
D18*
X139839400Y-58626800D03*
D17*
X139839400Y-59126800D03*
X139839400Y-59626800D03*
X140609400Y-59626800D03*
X140609400Y-59126800D03*
D18*
X140609400Y-58626800D03*
D17*
X140609400Y-58126800D03*
X140609400Y-57626800D03*
%TD*%
D19*
%TO.C,U6*%
X137436400Y-73521800D03*
X137936400Y-73521800D03*
D20*
X138436400Y-73521800D03*
D19*
X138936400Y-73521800D03*
X139436400Y-73521800D03*
X139436400Y-74291800D03*
X138936400Y-74291800D03*
D20*
X138436400Y-74291800D03*
D19*
X137936400Y-74291800D03*
X137436400Y-74291800D03*
%TD*%
D11*
%TO.C,U5*%
X155625400Y-74494800D03*
X155625400Y-74894800D03*
X155625400Y-75294800D03*
X155625400Y-75694800D03*
X155625400Y-76094800D03*
X155625400Y-76494800D03*
D12*
X156190400Y-77059800D03*
X156590400Y-77059800D03*
X156990400Y-77059800D03*
X157390400Y-77059800D03*
X157790400Y-77059800D03*
X158190400Y-77059800D03*
D11*
X158755400Y-76494800D03*
X158755400Y-76094800D03*
X158755400Y-75694800D03*
X158755400Y-75294800D03*
X158755400Y-74894800D03*
X158755400Y-74494800D03*
D12*
X158190400Y-73929800D03*
X157790400Y-73929800D03*
X157390400Y-73929800D03*
X156990400Y-73929800D03*
X156590400Y-73929800D03*
X156190400Y-73929800D03*
D10*
X157190400Y-75494800D03*
%TD*%
D17*
%TO.C,U4*%
X154101400Y-76694800D03*
X154101400Y-76194800D03*
D18*
X154101400Y-75694800D03*
D17*
X154101400Y-75194800D03*
X154101400Y-74694800D03*
X153331400Y-74694800D03*
X153331400Y-75194800D03*
D18*
X153331400Y-75694800D03*
D17*
X153331400Y-76194800D03*
X153331400Y-76694800D03*
%TD*%
D19*
%TO.C,U3*%
X156504400Y-60029800D03*
X156004400Y-60029800D03*
D20*
X155504400Y-60029800D03*
D19*
X155004400Y-60029800D03*
X154504400Y-60029800D03*
X154504400Y-60799800D03*
X155004400Y-60799800D03*
D20*
X155504400Y-60799800D03*
D19*
X156004400Y-60799800D03*
X156504400Y-60799800D03*
%TD*%
D21*
%TO.C,U2*%
X144370400Y-70598300D03*
X144770400Y-70598300D03*
X145170400Y-70598300D03*
X145570400Y-70598300D03*
X145970400Y-70598300D03*
X146370400Y-70598300D03*
X146770400Y-70598300D03*
X147170400Y-70598300D03*
X147570400Y-70598300D03*
X147970400Y-70598300D03*
X148370400Y-70598300D03*
X148770400Y-70598300D03*
X149170400Y-70598300D03*
X149570400Y-70598300D03*
D22*
X150407900Y-69760800D03*
X150407900Y-69360800D03*
X150407900Y-68960800D03*
X150407900Y-68560800D03*
X150407900Y-68160800D03*
X150407900Y-67760800D03*
X150407900Y-67360800D03*
X150407900Y-66960800D03*
X150407900Y-66560800D03*
X150407900Y-66160800D03*
X150407900Y-65760800D03*
X150407900Y-65360800D03*
X150407900Y-64960800D03*
X150407900Y-64560800D03*
D21*
X149570400Y-63723300D03*
X149170400Y-63723300D03*
X148770400Y-63723300D03*
X148370400Y-63723300D03*
X147970400Y-63723300D03*
X147570400Y-63723300D03*
X147170400Y-63723300D03*
X146770400Y-63723300D03*
X146370400Y-63723300D03*
X145970400Y-63723300D03*
X145570400Y-63723300D03*
X145170400Y-63723300D03*
X144770400Y-63723300D03*
X144370400Y-63723300D03*
D22*
X143532900Y-64560800D03*
X143532900Y-64960800D03*
X143532900Y-65360800D03*
X143532900Y-65760800D03*
X143532900Y-66160800D03*
X143532900Y-66560800D03*
X143532900Y-66960800D03*
X143532900Y-67360800D03*
X143532900Y-67760800D03*
X143532900Y-68160800D03*
X143532900Y-68560800D03*
X143532900Y-68960800D03*
X143532900Y-69360800D03*
X143532900Y-69760800D03*
D23*
X146170400Y-67960800D03*
X147770400Y-67960800D03*
X146170400Y-66360800D03*
X147770400Y-66360800D03*
%TD*%
D10*
%TO.C,U1*%
X155304400Y-56940800D03*
D11*
X153739400Y-57940800D03*
X153739400Y-57540800D03*
X153739400Y-57140800D03*
X153739400Y-56740800D03*
X153739400Y-56340800D03*
X153739400Y-55940800D03*
D12*
X154304400Y-55375800D03*
X154704400Y-55375800D03*
X155104400Y-55375800D03*
X155504400Y-55375800D03*
X155904400Y-55375800D03*
X156304400Y-55375800D03*
D11*
X156869400Y-55940800D03*
X156869400Y-56340800D03*
X156869400Y-56740800D03*
X156869400Y-57140800D03*
X156869400Y-57540800D03*
X156869400Y-57940800D03*
D12*
X156304400Y-58505800D03*
X155904400Y-58505800D03*
X155504400Y-58505800D03*
X155104400Y-58505800D03*
X154704400Y-58505800D03*
X154304400Y-58505800D03*
%TD*%
D24*
%TO.C,SW1*%
X160042900Y-64948000D03*
X152242900Y-64948000D03*
%TD*%
D25*
%TO.C,R34*%
X154243700Y-73631700D03*
X153223700Y-73631700D03*
%TD*%
D26*
%TO.C,R30*%
X151154400Y-74364500D03*
X152174400Y-74364500D03*
%TD*%
D27*
%TO.C,R28*%
X150599600Y-72332500D03*
X150599600Y-73352500D03*
%TD*%
D26*
%TO.C,R27*%
X145820400Y-72332500D03*
X146840400Y-72332500D03*
%TD*%
%TO.C,R26*%
X145820400Y-73348500D03*
X146840400Y-73348500D03*
%TD*%
D27*
%TO.C,R24*%
X152004500Y-67445700D03*
X152004500Y-68465700D03*
%TD*%
D26*
%TO.C,R14*%
X156746400Y-62223300D03*
X155726400Y-62223300D03*
%TD*%
D25*
%TO.C,R13*%
X154820000Y-62223300D03*
X153800000Y-62223300D03*
%TD*%
D26*
%TO.C,R2*%
X157660800Y-61207300D03*
X158680800Y-61207300D03*
%TD*%
%TO.C,R1*%
X157660800Y-62223300D03*
X158680800Y-62223300D03*
%TD*%
D28*
%TO.C,J6*%
X151928100Y-54788000D03*
X143228100Y-54788000D03*
D29*
X145578100Y-60538000D03*
X147578100Y-60538000D03*
X149578100Y-60538000D03*
%TD*%
D30*
%TO.C,D5*%
X156017700Y-72310900D03*
X154442700Y-72310900D03*
%TD*%
D31*
%TO.C,D4*%
X140671200Y-54155800D03*
X140671200Y-55730800D03*
%TD*%
D30*
%TO.C,D3*%
X155504600Y-54054400D03*
X157079600Y-54054400D03*
%TD*%
D31*
%TO.C,D2*%
X151920400Y-71519500D03*
X151920400Y-73094500D03*
%TD*%
D32*
%TO.C,C63*%
X147150400Y-75380500D03*
X148110400Y-75380500D03*
%TD*%
D33*
%TO.C,C62*%
X149075600Y-75380500D03*
X150035600Y-75380500D03*
%TD*%
D34*
%TO.C,C58*%
X152969700Y-69329300D03*
X152969700Y-70289300D03*
%TD*%
%TO.C,C57*%
X152969700Y-68465700D03*
X152969700Y-67505700D03*
%TD*%
D33*
%TO.C,C56*%
X141811200Y-73500900D03*
X140851200Y-73500900D03*
%TD*%
M02*
