M48
; DRILL file {KiCad 7.0.6} date Mon Jul 24 08:09:25 2023
; FORMAT={-:-/ absolute / inch / decimal}
; #@! TF.CreationDate,2023-07-24T08:09:25-07:00
; #@! TF.GenerationSoftware,Kicad,Pcbnew,7.0.6
; #@! TF.FileFunction,Plated,1,4,PTH
FMAT,2
INCH
; #@! TA.AperFunction,Plated,PTH,ViaDrill
T1C0.0080
; #@! TA.AperFunction,Plated,PTH,ComponentDrill
T2C0.0157
; #@! TA.AperFunction,Plated,PTH,ComponentDrill
T3C0.0236
; #@! TA.AperFunction,Plated,PTH,ComponentDrill
T4C0.0315
; #@! TA.AperFunction,Plated,PTH,ComponentDrill
T5C0.0394
; #@! TA.AperFunction,Plated,PTH,ComponentDrill
T6C0.0866
%
G90
G05
T1
X5.2815Y-2.3681
X5.3053Y-2.2494
X5.3368Y-2.3999
X5.3465Y-2.9751
X5.3465Y-3.0001
X5.3517Y-2.4174
X5.3602Y-2.5101
X5.3647Y-2.8628
X5.3658Y-2.2935
X5.3708Y-2.3435
X5.3715Y-2.9501
X5.3715Y-2.9751
X5.3715Y-3.0001
X5.3715Y-3.0251
X5.3746Y-2.4174
X5.388Y-2.8635
X5.3902Y-2.5161
X5.3915Y-3.1251
X5.3925Y-2.4019
X5.3965Y-2.9751
X5.4053Y-2.2294
X5.4108Y-2.3185
X5.4128Y-2.8629
X5.4141Y-2.9603
X5.4148Y-2.4074
X5.4303Y-2.2044
X5.4303Y-2.2294
X5.4356Y-3.0646
X5.4478Y-2.4
X5.448Y-2.866
X5.4503Y-2.9449
X5.4503Y-2.9689
X5.4553Y-2.2044
X5.4553Y-2.2294
X5.4553Y-2.2544
X5.4606Y-3.0196
X5.4614Y-2.3081
X5.4638Y-2.3411
X5.464Y-2.3649
X5.4671Y-2.576
X5.4782Y-2.2601
X5.4803Y-2.2294
X5.4852Y-2.9665
X5.4855Y-2.3081
X5.4856Y-3.0596
X5.486Y-2.872
X5.4905Y-2.3804
X5.5102Y-2.9841
X5.5103Y-3.1489
X5.5121Y-2.9214
X5.5449Y-2.9486
X5.5451Y-2.9235
X5.5462Y-3.1501
X5.5466Y-3.0256
X5.5474Y-3.0486
X5.548Y-3.0816
X5.548Y-3.1146
X5.5558Y-2.3475
X5.5608Y-2.2885
X5.5765Y-2.7867
X5.5778Y-2.5206
X5.5784Y-2.1695
X5.5804Y-2.1075
X5.5838Y-2.2879
X5.5867Y-2.7207
X5.5869Y-2.6319
X5.5885Y-2.836
X5.5902Y-2.5769
X5.5909Y-2.6039
X5.5915Y-2.6681
X5.5942Y-2.5041
X5.6026Y-2.3011
X5.6123Y-2.7154
X5.6135Y-2.5769
X5.622Y-3.1299
X5.6242Y-2.3581
X5.65Y-2.496
X5.6504Y-2.2995
X5.6589Y-2.9639
X5.6627Y-2.4374
X5.6662Y-2.3701
X5.6742Y-2.8001
X5.6749Y-2.715
X5.6828Y-2.5647
X5.6837Y-2.162
X5.6842Y-2.6321
X5.6842Y-2.6721
X5.6845Y-2.8331
X5.686Y-2.228
X5.6965Y-2.2876
X5.702Y-2.848
X5.7042Y-2.6881
X5.7053Y-2.8792
X5.708Y-3.152
X5.7089Y-2.9619
X5.7102Y-2.2321
X5.7162Y-2.7401
X5.7322Y-2.6641
X5.74Y-2.1685
X5.7492Y-2.5671
X5.7522Y-2.4701
X5.7569Y-2.9619
X5.757Y-2.2806
X5.77Y-2.5566
X5.7742Y-2.6181
X5.7762Y-2.6601
X5.7822Y-2.2241
X5.7866Y-3.0339
X5.794Y-3.124
X5.794Y-2.5558
X5.7949Y-2.7321
X5.7996Y-2.8228
X5.8Y-3.156
X5.8002Y-2.1141
X5.8042Y-2.7041
X5.8062Y-2.6781
X5.8142Y-2.6221
X5.8166Y-2.2241
X5.8169Y-2.5579
X5.8189Y-3.0559
X5.8202Y-2.4721
X5.8222Y-3.0981
X5.8249Y-2.7505
X5.8442Y-2.2301
X5.8442Y-2.4641
X5.8469Y-2.8235
X5.8481Y-2.9107
X5.8571Y-2.7395
X5.8709Y-2.5599
X5.8729Y-2.7175
X5.8752Y-2.8107
X5.8829Y-2.6919
X5.8862Y-2.6281
X5.8882Y-2.1441
X5.8922Y-2.2581
X5.8962Y-2.1934
X5.9049Y-2.7915
X5.9121Y-2.1583
X5.9171Y-2.4977
X5.929Y-2.9509
X5.93Y-2.318
X5.9509Y-2.4199
X5.9514Y-2.3719
X5.9522Y-2.6261
X5.9624Y-2.7392
X5.9729Y-2.7845
X5.9738Y-2.9662
X5.9826Y-2.7501
X5.9887Y-3.0
X5.9902Y-2.5081
X5.9958Y-2.3199
X5.9984Y-2.2401
X5.9985Y-2.2635
X6.008Y-2.2963
X6.0117Y-2.9998
X6.0125Y-3.0514
X6.0167Y-2.9407
X6.0208Y-2.2275
X6.0224Y-2.6295
X6.0249Y-2.204
X6.0269Y-2.8161
X6.0324Y-2.8749
X6.035Y-2.576
X6.0382Y-2.7921
X6.0397Y-2.1221
X6.0414Y-2.1839
X6.044Y-2.418
X6.0449Y-2.8506
X6.058Y-2.576
X6.0622Y-2.1394
X6.0629Y-2.3199
X6.0742Y-2.5201
X6.0774Y-2.8075
X6.0829Y-2.4137
X6.0869Y-2.2287
X6.087Y-2.9801
X6.0872Y-2.3218
X6.0918Y-3.0264
X6.0922Y-3.0589
X6.0942Y-2.5421
X6.1086Y-2.9451
X6.111Y-2.9801
X6.1111Y-2.9223
X6.1119Y-2.2687
X6.1131Y-2.4177
X6.1172Y-3.0339
X6.1172Y-3.0589
X6.1172Y-3.0839
X6.1222Y-2.3193
X6.1222Y-2.3434
X6.1289Y-2.9058
X6.1298Y-2.8828
X6.1322Y-2.5681
X6.1358Y-2.4961
X6.1369Y-2.2237
X6.1404Y-2.6449
X6.1419Y-2.4187
X6.1422Y-3.0589
X6.1422Y-3.0839
X6.1584Y-2.3279
X6.1617Y-2.9698
X6.1672Y-3.0589
X6.1711Y-2.4777
X6.1712Y-2.8793
X6.176Y-2.3131
X6.1782Y-2.5801
X6.1782Y-2.6061
X6.181Y-2.1631
X6.1949Y-2.8799
X6.201Y-2.2631
X6.201Y-2.2881
X6.201Y-2.3131
X6.201Y-2.3381
X6.2017Y-2.9448
X6.2067Y-2.9948
X6.2071Y-2.4777
X6.2179Y-2.8799
X6.226Y-2.2881
X6.226Y-2.3131
X6.2311Y-2.4777
X6.2384Y-2.1162
X6.2522Y-2.5561
X6.2672Y-3.0389
X6.291Y-2.9201
X6.3082Y-2.8861
T2
X5.4916Y-2.527
X5.4916Y-2.5605
X5.4916Y-2.5939
X5.4916Y-2.6274
X5.4916Y-2.6609
X5.4916Y-2.6943
X5.4916Y-2.7278
X5.4916Y-2.7613
X5.5447Y-2.527
X5.5447Y-2.5605
X5.5447Y-2.5939
X5.5447Y-2.6274
X5.5447Y-2.6609
X5.5447Y-2.6943
X5.5447Y-2.7278
X5.5447Y-2.7613
T4
X5.2815Y-2.1394
X5.2815Y-2.9914
X5.2815Y-3.0701
X5.2815Y-3.1489
X5.3603Y-2.1394
X5.439Y-2.1394
X6.1335Y-3.1489
X6.2122Y-3.1489
X6.291Y-2.1394
X6.291Y-2.2181
X6.291Y-2.2969
X6.291Y-3.1489
T5
X6.2549Y-2.7152
X6.2549Y-2.8152
T6
X5.9325Y-3.0871
T3
G00X5.401Y-2.463
M15
G01X5.3616Y-2.463
M16
G05
G00X5.401Y-2.8252
M15
G01X5.3616Y-2.8252
M16
G05
G00X5.5191Y-2.463
M15
G01X5.4797Y-2.463
M16
G05
G00X5.5191Y-2.8252
M15
G01X5.4797Y-2.8252
M16
G05
T0
M30
